<?xml version="1.0" encoding="UTF-8" standalone="no"?><svg xmlns="http://www.w3.org/2000/svg" xmlns:xlink="http://www.w3.org/1999/xlink" contentStyleType="text/css" height="775px" preserveAspectRatio="none" style="width:464px;height:775px;background:#FFFFFF;" version="1.1" viewBox="0 0 464 775" width="464px" zoomAndPan="magnify"><defs/><g><ellipse cx="233" cy="20" fill="#222222" rx="10" ry="10" style="stroke:#222222;stroke-width:1.0;"/><rect fill="none" height="326.9033" style="stroke:#000000;stroke-width:1.5;" width="416" x="25" y="40"/><path d="M123,40 L123,50.6094 L113,60.6094 L25,60.6094 " fill="none" style="stroke:#000000;stroke-width:1.5;"/><text fill="#000000" font-family="sans-serif" font-size="14" lengthAdjust="spacing" textLength="88" x="28" y="55.5332">User Interface</text><rect fill="#F1F1F1" height="35.0938" rx="12.5" ry="12.5" style="stroke:#181818;stroke-width:0.5;" width="116" x="175" y="77.6094"/><text fill="#000000" font-family="sans-serif" font-size="12" lengthAdjust="spacing" textLength="96" x="185" y="100.0664">View Profile Page</text><polygon fill="#F1F1F1" points="74,132.7031,151,132.7031,163,144.7031,151,156.7031,74,156.7031,62,144.7031,74,132.7031" style="stroke:#181818;stroke-width:0.5;"/><text fill="#000000" font-family="sans-serif" font-size="11" lengthAdjust="spacing" textLength="22" x="116.5" y="168.1221">True</text><text fill="#000000" font-family="sans-serif" font-size="11" lengthAdjust="spacing" textLength="77" x="74" y="149.2041">Click "Edit Info"?</text><rect fill="#F1F1F1" height="35.0938" rx="12.5" ry="12.5" style="stroke:#181818;stroke-width:0.5;" width="155" x="35" y="189.6221"/><text fill="#000000" font-family="sans-serif" font-size="12" lengthAdjust="spacing" textLength="135" x="45" y="212.0791">Display Edit Profile Form</text><rect fill="#F1F1F1" height="35.0938" rx="12.5" ry="12.5" style="stroke:#181818;stroke-width:0.5;" width="140" x="42.5" y="244.7158"/><text fill="#000000" font-family="sans-serif" font-size="12" lengthAdjust="spacing" textLength="120" x="52.5" y="267.1729">Input New Information</text><rect fill="#F1F1F1" height="35.0938" rx="12.5" ry="12.5" style="stroke:#181818;stroke-width:0.5;" width="113" x="56" y="299.8096"/><text fill="#000000" font-family="sans-serif" font-size="12" lengthAdjust="spacing" textLength="93" x="66" y="322.2666">Submit Changes</text><polygon fill="#F1F1F1" points="252.5,132.7031,338.5,132.7031,350.5,144.7031,338.5,156.7031,252.5,156.7031,240.5,144.7031,252.5,132.7031" style="stroke:#181818;stroke-width:0.5;"/><text fill="#000000" font-family="sans-serif" font-size="11" lengthAdjust="spacing" textLength="22" x="299.5" y="168.1221">True</text><text fill="#000000" font-family="sans-serif" font-size="11" lengthAdjust="spacing" textLength="86" x="252.5" y="149.2041">Click "Edit Photo"?</text><text fill="#000000" font-family="sans-serif" font-size="11" lengthAdjust="spacing" textLength="26" x="350.5" y="142.2861">False</text><rect fill="#F1F1F1" height="35.0938" rx="12.5" ry="12.5" style="stroke:#181818;stroke-width:0.5;" width="171" x="210" y="189.6221"/><text fill="#000000" font-family="sans-serif" font-size="12" lengthAdjust="spacing" textLength="151" x="220" y="212.0791">Display Upload Photo Form</text><rect fill="#F1F1F1" height="35.0938" rx="12.5" ry="12.5" style="stroke:#181818;stroke-width:0.5;" width="117" x="237" y="244.7158"/><text fill="#000000" font-family="sans-serif" font-size="12" lengthAdjust="spacing" textLength="97" x="247" y="267.1729">Select New Photo</text><rect fill="#F1F1F1" height="35.0938" rx="12.5" ry="12.5" style="stroke:#181818;stroke-width:0.5;" width="94" x="248.5" y="299.8096"/><text fill="#000000" font-family="sans-serif" font-size="12" lengthAdjust="spacing" textLength="74" x="258.5" y="322.2666">Submit Photo</text><ellipse cx="416" cy="258.3447" fill="none" rx="11" ry="11" style="stroke:#222222;stroke-width:1.0;"/><ellipse cx="416" cy="258.3447" fill="#222222" rx="6" ry="6" style="stroke:#111111;stroke-width:1.0;"/><rect fill="none" height="345.7275" style="stroke:#000000;stroke-width:1.5;" width="442" x="11" y="376.9033"/><path d="M76,376.9033 L76,387.5127 L66,397.5127 L11,397.5127 " fill="none" style="stroke:#000000;stroke-width:1.5;"/><text fill="#000000" font-family="sans-serif" font-size="14" lengthAdjust="spacing" textLength="55" x="14" y="392.4365">Backend</text><polygon fill="#F1F1F1" points="33,417.5127,180,417.5127,192,429.5127,180,441.5127,33,441.5127,21,429.5127,33,417.5127" style="stroke:#181818;stroke-width:0.5;"/><text fill="#000000" font-family="sans-serif" font-size="11" lengthAdjust="spacing" textLength="22" x="110.5" y="452.9316">True</text><text fill="#000000" font-family="sans-serif" font-size="11" lengthAdjust="spacing" textLength="147" x="33" y="434.0137">"Update Profile Info" recieved?</text><rect fill="#F1F1F1" height="35.0938" rx="12.5" ry="12.5" style="stroke:#181818;stroke-width:0.5;" width="121" x="46" y="474.4316"/><text fill="#000000" font-family="sans-serif" font-size="12" lengthAdjust="spacing" textLength="101" x="56" y="496.8887">Update Profile Info</text><rect fill="#F1F1F1" height="35.0938" rx="12.5" ry="12.5" style="stroke:#181818;stroke-width:0.5;" width="133" x="40" y="578.4434"/><text fill="#000000" font-family="sans-serif" font-size="12" lengthAdjust="spacing" textLength="113" x="50" y="600.9004">Send Error Message</text><polygon fill="#F1F1F1" points="81,529.5254,132,529.5254,144,541.5254,132,553.5254,81,553.5254,69,541.5254,81,529.5254" style="stroke:#181818;stroke-width:0.5;"/><text fill="#000000" font-family="sans-serif" font-size="11" lengthAdjust="spacing" textLength="26" x="110.5" y="564.9443">False</text><text fill="#000000" font-family="sans-serif" font-size="11" lengthAdjust="spacing" textLength="51" x="81" y="546.0264">Validated?</text><text fill="#000000" font-family="sans-serif" font-size="11" lengthAdjust="spacing" textLength="22" x="144" y="539.1084">True</text><rect fill="#F1F1F1" height="35.0938" rx="12.5" ry="12.5" style="stroke:#181818;stroke-width:0.5;" width="150" x="31.5" y="655.5371"/><text fill="#000000" font-family="sans-serif" font-size="12" lengthAdjust="spacing" textLength="130" x="41.5" y="677.9941">Save Profile Information</text><polygon fill="#F1F1F1" points="227,417.5127,383,417.5127,395,429.5127,383,441.5127,227,441.5127,215,429.5127,227,417.5127" style="stroke:#181818;stroke-width:0.5;"/><text fill="#000000" font-family="sans-serif" font-size="11" lengthAdjust="spacing" textLength="22" x="309" y="452.9316">True</text><text fill="#000000" font-family="sans-serif" font-size="11" lengthAdjust="spacing" textLength="156" x="227" y="434.0137">"Update Profile Photo" recieved?</text><text fill="#000000" font-family="sans-serif" font-size="11" lengthAdjust="spacing" textLength="26" x="395" y="427.0957">False</text><rect fill="#F1F1F1" height="35.0938" rx="12.5" ry="12.5" style="stroke:#181818;stroke-width:0.5;" width="133" x="238.5" y="474.4316"/><text fill="#000000" font-family="sans-serif" font-size="12" lengthAdjust="spacing" textLength="113" x="248.5" y="496.8887">Update Profile Photo</text><rect fill="#F1F1F1" height="35.0938" rx="12.5" ry="12.5" style="stroke:#181818;stroke-width:0.5;" width="133" x="238.5" y="578.4434"/><text fill="#000000" font-family="sans-serif" font-size="12" lengthAdjust="spacing" textLength="113" x="248.5" y="600.9004">Send Error Message</text><polygon fill="#F1F1F1" points="279.5,529.5254,330.5,529.5254,342.5,541.5254,330.5,553.5254,279.5,553.5254,267.5,541.5254,279.5,529.5254" style="stroke:#181818;stroke-width:0.5;"/><text fill="#000000" font-family="sans-serif" font-size="11" lengthAdjust="spacing" textLength="26" x="309" y="564.9443">False</text><text fill="#000000" font-family="sans-serif" font-size="11" lengthAdjust="spacing" textLength="51" x="279.5" y="546.0264">Validated?</text><text fill="#000000" font-family="sans-serif" font-size="11" lengthAdjust="spacing" textLength="22" x="342.5" y="539.1084">True</text><rect fill="#F1F1F1" height="35.0938" rx="12.5" ry="12.5" style="stroke:#181818;stroke-width:0.5;" width="120" x="245" y="655.5371"/><text fill="#000000" font-family="sans-serif" font-size="12" lengthAdjust="spacing" textLength="100" x="255" y="677.9941">Save Profile Photo</text><ellipse cx="430" cy="583.0723" fill="none" rx="11" ry="11" style="stroke:#222222;stroke-width:1.0;"/><ellipse cx="430" cy="583.0723" fill="#222222" rx="6" ry="6" style="stroke:#111111;stroke-width:1.0;"/><ellipse cx="233" cy="753.6309" fill="none" rx="11" ry="11" style="stroke:#222222;stroke-width:1.0;"/><ellipse cx="233" cy="753.6309" fill="#222222" rx="6" ry="6" style="stroke:#111111;stroke-width:1.0;"/><line style="stroke:#181818;stroke-width:1.0;" x1="112.5" x2="112.5" y1="224.7158" y2="244.7158"/><polygon fill="#181818" points="108.5,234.7158,112.5,244.7158,116.5,234.7158,112.5,238.7158" style="stroke:#181818;stroke-width:1.0;"/><line style="stroke:#181818;stroke-width:1.0;" x1="112.5" x2="112.5" y1="279.8096" y2="299.8096"/><polygon fill="#181818" points="108.5,289.8096,112.5,299.8096,116.5,289.8096,112.5,293.8096" style="stroke:#181818;stroke-width:1.0;"/><line style="stroke:#181818;stroke-width:1.0;" x1="295.5" x2="295.5" y1="224.7158" y2="244.7158"/><polygon fill="#181818" points="291.5,234.7158,295.5,244.7158,299.5,234.7158,295.5,238.7158" style="stroke:#181818;stroke-width:1.0;"/><line style="stroke:#181818;stroke-width:1.0;" x1="295.5" x2="295.5" y1="279.8096" y2="299.8096"/><polygon fill="#181818" points="291.5,289.8096,295.5,299.8096,299.5,289.8096,295.5,293.8096" style="stroke:#181818;stroke-width:1.0;"/><line style="stroke:#181818;stroke-width:1.0;" x1="112.5" x2="112.5" y1="156.7031" y2="189.6221"/><polygon fill="#181818" points="108.5,179.6221,112.5,189.6221,116.5,179.6221,112.5,183.6221" style="stroke:#181818;stroke-width:1.0;"/><line style="stroke:#181818;stroke-width:1.0;" x1="112.5" x2="112.5" y1="334.9033" y2="354.9033"/><polygon fill="#181818" points="108.5,344.9033,112.5,354.9033,116.5,344.9033,112.5,348.9033" style="stroke:#181818;stroke-width:1.0;"/><line style="stroke:#181818;stroke-width:1.0;" x1="295.5" x2="295.5" y1="156.7031" y2="189.6221"/><polygon fill="#181818" points="291.5,179.6221,295.5,189.6221,299.5,179.6221,295.5,183.6221" style="stroke:#181818;stroke-width:1.0;"/><line style="stroke:#181818;stroke-width:1.0;" x1="295.5" x2="295.5" y1="334.9033" y2="354.9033"/><polygon fill="#181818" points="291.5,344.9033,295.5,354.9033,299.5,344.9033,295.5,348.9033" style="stroke:#181818;stroke-width:1.0;"/><line style="stroke:#181818;stroke-width:1.0;" x1="163" x2="240.5" y1="144.7031" y2="144.7031"/><polygon fill="#181818" points="230.5,140.7031,240.5,144.7031,230.5,148.7031,234.5,144.7031" style="stroke:#181818;stroke-width:1.0;"/><line style="stroke:#181818;stroke-width:1.0;" x1="233" x2="233" y1="112.7031" y2="117.7031"/><line style="stroke:#181818;stroke-width:1.0;" x1="233" x2="112.5" y1="117.7031" y2="117.7031"/><line style="stroke:#181818;stroke-width:1.0;" x1="112.5" x2="112.5" y1="117.7031" y2="132.7031"/><polygon fill="#181818" points="108.5,122.7031,112.5,132.7031,116.5,122.7031,112.5,126.7031" style="stroke:#181818;stroke-width:1.0;"/><line style="stroke:#181818;stroke-width:1.0;" x1="350.5" x2="416" y1="144.7031" y2="144.7031"/><line style="stroke:#181818;stroke-width:1.0;" x1="416" x2="416" y1="144.7031" y2="247.3447"/><polygon fill="#181818" points="412,237.3447,416,247.3447,420,237.3447,416,241.3447" style="stroke:#181818;stroke-width:1.0;"/><line style="stroke:#181818;stroke-width:1.0;" x1="112.5" x2="295.5" y1="354.9033" y2="354.9033"/><line style="stroke:#181818;stroke-width:1.0;" x1="233" x2="233" y1="30" y2="77.6094"/><polygon fill="#181818" points="229,67.6094,233,77.6094,237,67.6094,233,71.6094" style="stroke:#181818;stroke-width:1.0;"/><line style="stroke:#181818;stroke-width:1.0;" x1="106.5" x2="106.5" y1="553.5254" y2="578.4434"/><polygon fill="#181818" points="102.5,568.4434,106.5,578.4434,110.5,568.4434,106.5,572.4434" style="stroke:#181818;stroke-width:1.0;"/><line style="stroke:#181818;stroke-width:1.0;" x1="144" x2="183" y1="541.5254" y2="541.5254"/><polygon fill="#181818" points="179,582.9902,183,592.9902,187,582.9902,183,586.9902" style="stroke:#181818;stroke-width:1.0;"/><line style="stroke:#181818;stroke-width:1.0;" x1="183" x2="183" y1="541.5254" y2="635.5371"/><line style="stroke:#181818;stroke-width:1.0;" x1="183" x2="106.5" y1="635.5371" y2="635.5371"/><line style="stroke:#181818;stroke-width:1.0;" x1="106.5" x2="106.5" y1="635.5371" y2="655.5371"/><polygon fill="#181818" points="102.5,645.5371,106.5,655.5371,110.5,645.5371,106.5,649.5371" style="stroke:#181818;stroke-width:1.0;"/><line style="stroke:#181818;stroke-width:1.0;" x1="106.5" x2="106.5" y1="509.5254" y2="529.5254"/><polygon fill="#181818" points="102.5,519.5254,106.5,529.5254,110.5,519.5254,106.5,523.5254" style="stroke:#181818;stroke-width:1.0;"/><line style="stroke:#181818;stroke-width:1.0;" x1="305" x2="305" y1="553.5254" y2="578.4434"/><polygon fill="#181818" points="301,568.4434,305,578.4434,309,568.4434,305,572.4434" style="stroke:#181818;stroke-width:1.0;"/><line style="stroke:#181818;stroke-width:1.0;" x1="342.5" x2="381.5" y1="541.5254" y2="541.5254"/><polygon fill="#181818" points="377.5,582.9902,381.5,592.9902,385.5,582.9902,381.5,586.9902" style="stroke:#181818;stroke-width:1.0;"/><line style="stroke:#181818;stroke-width:1.0;" x1="381.5" x2="381.5" y1="541.5254" y2="635.5371"/><line style="stroke:#181818;stroke-width:1.0;" x1="381.5" x2="305" y1="635.5371" y2="635.5371"/><line style="stroke:#181818;stroke-width:1.0;" x1="305" x2="305" y1="635.5371" y2="655.5371"/><polygon fill="#181818" points="301,645.5371,305,655.5371,309,645.5371,305,649.5371" style="stroke:#181818;stroke-width:1.0;"/><line style="stroke:#181818;stroke-width:1.0;" x1="305" x2="305" y1="509.5254" y2="529.5254"/><polygon fill="#181818" points="301,519.5254,305,529.5254,309,519.5254,305,523.5254" style="stroke:#181818;stroke-width:1.0;"/><line style="stroke:#181818;stroke-width:1.0;" x1="106.5" x2="106.5" y1="441.5127" y2="474.4316"/><polygon fill="#181818" points="102.5,464.4316,106.5,474.4316,110.5,464.4316,106.5,468.4316" style="stroke:#181818;stroke-width:1.0;"/><line style="stroke:#181818;stroke-width:1.0;" x1="106.5" x2="106.5" y1="690.6309" y2="710.6309"/><polygon fill="#181818" points="102.5,700.6309,106.5,710.6309,110.5,700.6309,106.5,704.6309" style="stroke:#181818;stroke-width:1.0;"/><line style="stroke:#181818;stroke-width:1.0;" x1="305" x2="305" y1="441.5127" y2="474.4316"/><polygon fill="#181818" points="301,464.4316,305,474.4316,309,464.4316,305,468.4316" style="stroke:#181818;stroke-width:1.0;"/><line style="stroke:#181818;stroke-width:1.0;" x1="305" x2="305" y1="690.6309" y2="710.6309"/><polygon fill="#181818" points="301,700.6309,305,710.6309,309,700.6309,305,704.6309" style="stroke:#181818;stroke-width:1.0;"/><line style="stroke:#181818;stroke-width:1.0;" x1="192" x2="215" y1="429.5127" y2="429.5127"/><polygon fill="#181818" points="205,425.5127,215,429.5127,205,433.5127,209,429.5127" style="stroke:#181818;stroke-width:1.0;"/><line style="stroke:#181818;stroke-width:1.0;" x1="233" x2="233" y1="354.9033" y2="402.5127"/><line style="stroke:#181818;stroke-width:1.0;" x1="233" x2="106.5" y1="402.5127" y2="402.5127"/><line style="stroke:#181818;stroke-width:1.0;" x1="106.5" x2="106.5" y1="402.5127" y2="417.5127"/><polygon fill="#181818" points="102.5,407.5127,106.5,417.5127,110.5,407.5127,106.5,411.5127" style="stroke:#181818;stroke-width:1.0;"/><line style="stroke:#181818;stroke-width:1.0;" x1="395" x2="430" y1="429.5127" y2="429.5127"/><line style="stroke:#181818;stroke-width:1.0;" x1="430" x2="430" y1="429.5127" y2="572.0723"/><polygon fill="#181818" points="426,562.0723,430,572.0723,434,562.0723,430,566.0723" style="stroke:#181818;stroke-width:1.0;"/><line style="stroke:#181818;stroke-width:1.0;" x1="106.5" x2="305" y1="710.6309" y2="710.6309"/><line style="stroke:#181818;stroke-width:1.0;" x1="233" x2="233" y1="710.6309" y2="742.6309"/><polygon fill="#181818" points="229,732.6309,233,742.6309,237,732.6309,233,736.6309" style="stroke:#181818;stroke-width:1.0;"/><!--SRC=[pLBBReCm4Bpp5IjEv1VAeLBJHCgX4H8bTnUMiCBObcrILLN_lJPEUAIeKc_b069sTsRsOIpJDegKUvCbAI0k36eu28kwPYN6y1a1F9m8to7JiYQEaB4pfWwb6f8jfxA5U5UHTKMrZ1ytO1iKaBpg7ZSkorK_ar6SVS2GTMFPIzsb8NuGghTmT1AUGdVCExd6ylwjSrNRXeap6WyYDtWldJNI_gvTA2vP5HBdsZboB8Fu45lAZf0NXMJFt2SG6okLnqL5TVIrcE0JArk7Xz65CSM5gfZ5iVbXLA2n9BnWjU9xCB5Ib8vHJtjYd7pAn31pEDBapWpij9OQNj2Ow_QcfoNE5q1eTZ3ZVyTOQ7RYPPUbkSNcRaHhxOTr_RN_sNx-uG3ktFqucDdHpCx68zy0]--></g></svg>