<?xml version="1.0" encoding="UTF-8" standalone="no"?><svg xmlns="http://www.w3.org/2000/svg" xmlns:xlink="http://www.w3.org/1999/xlink" contentStyleType="text/css" height="865px" preserveAspectRatio="none" style="width:1159px;height:865px;background:#EEEEEE;" version="1.1" viewBox="0 0 1159 865" width="1159px" zoomAndPan="magnify"><defs/><g><rect fill="#EEEEEE" height="865" style="stroke:none;stroke-width:1.0;" width="1159" x="0" y="0"/><!--cluster CRC Cards--><g id="cluster_CRC Cards"><rect fill="none" height="852" rx="2.5" ry="2.5" style="stroke:#000000;stroke-width:1.5;" width="1146" x="7" y="7"/><text fill="#000000" font-family="Arial" font-size="12" font-weight="bold" lengthAdjust="spacing" textLength="61" x="549.5" y="20.4521">CRC Cards</text></g><g id="elem_Buyer"><rect fill="#F1F1F1" height="223.3848" style="stroke:#181818;stroke-width:0.5;" width="193" x="701.5" y="46"/><text fill="#000000" font-family="Arial" font-size="12" font-style="italic" lengthAdjust="spacing" textLength="47" x="774.5" y="57.4521">«Model»</text><text fill="#000000" font-family="Arial" font-size="12" lengthAdjust="spacing" textLength="31" x="782.5" y="73.251">Buyer</text><line style="stroke:#181818;stroke-width:0.5;" x1="702.5" x2="893.5" y1="77.5977" y2="77.5977"/><line style="stroke:#181818;stroke-width:1.0;" x1="702.5" x2="893.5" y1="85.5977" y2="85.5977"/><text fill="#000000" font-family="Arial" font-size="12" lengthAdjust="spacing" textLength="93" x="707.5" y="101.0498">Responsibilities:</text><line style="stroke:#181818;stroke-width:1.0;" x1="702.5" x2="893.5" y1="107.3965" y2="107.3965"/><rect fill="none" height="6" style="stroke:#C82930;stroke-width:1.0;" width="6" x="709.5" y="116.7959"/><text fill="#000000" font-family="Arial" font-size="12" lengthAdjust="spacing" textLength="147" x="720.5" y="122.8486">Initiates viewing jewelry list</text><rect fill="none" height="6" style="stroke:#C82930;stroke-width:1.0;" width="6" x="709.5" y="130.5947"/><text fill="#000000" font-family="Arial" font-size="12" lengthAdjust="spacing" textLength="168" x="720.5" y="136.6475">Initiates viewing jewelry details</text><rect fill="none" height="6" style="stroke:#C82930;stroke-width:1.0;" width="6" x="709.5" y="144.3936"/><text fill="#000000" font-family="Arial" font-size="12" lengthAdjust="spacing" textLength="136" x="720.5" y="150.4463">Provides registration info</text><rect fill="none" height="6" style="stroke:#C82930;stroke-width:1.0;" width="6" x="709.5" y="158.1924"/><text fill="#000000" font-family="Arial" font-size="12" lengthAdjust="spacing" textLength="142" x="720.5" y="164.2451">Provides login credentials</text><rect fill="none" height="6" style="stroke:#C82930;stroke-width:1.0;" width="6" x="709.5" y="171.9912"/><text fill="#000000" font-family="Arial" font-size="12" lengthAdjust="spacing" textLength="131" x="720.5" y="178.0439">Provides profile edit info</text><line style="stroke:#181818;stroke-width:1.0;" x1="702.5" x2="893.5" y1="184.3906" y2="184.3906"/><text fill="#000000" font-family="Arial" font-size="12" lengthAdjust="spacing" textLength="84" x="707.5" y="199.8428">Collaborations:</text><line style="stroke:#181818;stroke-width:1.0;" x1="702.5" x2="893.5" y1="206.1895" y2="206.1895"/><rect fill="none" height="6" style="stroke:#C82930;stroke-width:1.0;" width="6" x="709.5" y="215.5889"/><text fill="#000000" font-family="Arial" font-size="12" lengthAdjust="spacing" textLength="95" x="720.5" y="221.6416">JewelryController</text><rect fill="none" height="6" style="stroke:#C82930;stroke-width:1.0;" width="6" x="709.5" y="229.3877"/><text fill="#000000" font-family="Arial" font-size="12" lengthAdjust="spacing" textLength="121" x="720.5" y="235.4404">RegistrationController</text><rect fill="none" height="6" style="stroke:#C82930;stroke-width:1.0;" width="6" x="709.5" y="243.1865"/><text fill="#000000" font-family="Arial" font-size="12" lengthAdjust="spacing" textLength="78" x="720.5" y="249.2393">AuthController</text><rect fill="none" height="6" style="stroke:#C82930;stroke-width:1.0;" width="6" x="709.5" y="256.9854"/><text fill="#000000" font-family="Arial" font-size="12" lengthAdjust="spacing" textLength="89" x="720.5" y="263.0381">ProfileController</text></g><g id="elem_Seller"><rect fill="#F1F1F1" height="237.1836" style="stroke:#181818;stroke-width:0.5;" width="210" x="456" y="39"/><text fill="#000000" font-family="Arial" font-size="12" font-style="italic" lengthAdjust="spacing" textLength="47" x="537.5" y="50.4521">«Model»</text><text fill="#000000" font-family="Arial" font-size="12" lengthAdjust="spacing" textLength="32" x="545" y="66.251">Seller</text><line style="stroke:#181818;stroke-width:0.5;" x1="457" x2="665" y1="70.5977" y2="70.5977"/><line style="stroke:#181818;stroke-width:1.0;" x1="457" x2="665" y1="78.5977" y2="78.5977"/><text fill="#000000" font-family="Arial" font-size="12" lengthAdjust="spacing" textLength="93" x="462" y="94.0498">Responsibilities:</text><line style="stroke:#181818;stroke-width:1.0;" x1="457" x2="665" y1="100.3965" y2="100.3965"/><rect fill="none" height="6" style="stroke:#C82930;stroke-width:1.0;" width="6" x="464" y="109.7959"/><text fill="#000000" font-family="Arial" font-size="12" lengthAdjust="spacing" textLength="185" x="475" y="115.8486">Logs into the systems jewelry info</text><rect fill="none" height="6" style="stroke:#C82930;stroke-width:1.0;" width="6" x="464" y="123.5947"/><text fill="#000000" font-family="Arial" font-size="12" lengthAdjust="spacing" textLength="92" x="475" y="129.6475">Adds jewelry info</text><rect fill="none" height="6" style="stroke:#C82930;stroke-width:1.0;" width="6" x="464" y="137.3936"/><text fill="#000000" font-family="Arial" font-size="12" lengthAdjust="spacing" textLength="92" x="475" y="143.4463">Edits jewelry info</text><rect fill="none" height="6" style="stroke:#C82930;stroke-width:1.0;" width="6" x="464" y="151.1924"/><text fill="#000000" font-family="Arial" font-size="12" lengthAdjust="spacing" textLength="107" x="475" y="157.2451">Deletes jewelry info</text><rect fill="none" height="6" style="stroke:#C82930;stroke-width:1.0;" width="6" x="464" y="164.9912"/><text fill="#000000" font-family="Arial" font-size="12" lengthAdjust="spacing" textLength="96" x="475" y="171.0439">Edits shop profile</text><line style="stroke:#181818;stroke-width:1.0;" x1="457" x2="665" y1="177.3906" y2="177.3906"/><text fill="#000000" font-family="Arial" font-size="12" lengthAdjust="spacing" textLength="84" x="462" y="192.8428">Collaborations:</text><line style="stroke:#181818;stroke-width:1.0;" x1="457" x2="665" y1="199.1895" y2="199.1895"/><rect fill="none" height="6" style="stroke:#C82930;stroke-width:1.0;" width="6" x="464" y="208.5889"/><text fill="#000000" font-family="Arial" font-size="12" lengthAdjust="spacing" textLength="95" x="475" y="214.6416">JewelryController</text><rect fill="none" height="6" style="stroke:#C82930;stroke-width:1.0;" width="6" x="464" y="222.3877"/><text fill="#000000" font-family="Arial" font-size="12" lengthAdjust="spacing" textLength="121" x="475" y="228.4404">RegistrationController</text><rect fill="none" height="6" style="stroke:#C82930;stroke-width:1.0;" width="6" x="464" y="236.1865"/><text fill="#000000" font-family="Arial" font-size="12" lengthAdjust="spacing" textLength="78" x="475" y="242.2393">AuthController</text><rect fill="none" height="6" style="stroke:#C82930;stroke-width:1.0;" width="6" x="464" y="249.9854"/><text fill="#000000" font-family="Arial" font-size="12" lengthAdjust="spacing" textLength="89" x="475" y="256.0381">ProfileController</text><rect fill="none" height="6" style="stroke:#C82930;stroke-width:1.0;" width="6" x="464" y="263.7842"/><text fill="#000000" font-family="Arial" font-size="12" lengthAdjust="spacing" textLength="83" x="475" y="269.8369">StoreController</text></g><g id="elem_JewelleryController"><rect fill="#F1F1F1" height="237.1836" style="stroke:#181818;stroke-width:0.5;" width="224" x="913" y="336"/><text fill="#000000" font-family="Arial" font-size="12" lengthAdjust="spacing" textLength="95" x="977.5" y="349.4521">JewelryController</text><line style="stroke:#181818;stroke-width:0.5;" x1="914" x2="1136" y1="353.7988" y2="353.7988"/><line style="stroke:#181818;stroke-width:1.0;" x1="914" x2="1136" y1="361.7988" y2="361.7988"/><text fill="#000000" font-family="Arial" font-size="12" lengthAdjust="spacing" textLength="93" x="919" y="377.251">Responsibilities:</text><line style="stroke:#181818;stroke-width:1.0;" x1="914" x2="1136" y1="383.5977" y2="383.5977"/><rect fill="none" height="6" style="stroke:#C82930;stroke-width:1.0;" width="6" x="921" y="392.9971"/><text fill="#000000" font-family="Arial" font-size="12" lengthAdjust="spacing" textLength="145" x="932" y="399.0498">Handles view list requests</text><rect fill="none" height="6" style="stroke:#C82930;stroke-width:1.0;" width="6" x="921" y="406.7959"/><text fill="#000000" font-family="Arial" font-size="12" lengthAdjust="spacing" textLength="120" x="932" y="412.8486">Retrieves jewelry data</text><rect fill="none" height="6" style="stroke:#C82930;stroke-width:1.0;" width="6" x="921" y="420.5947"/><text fill="#000000" font-family="Arial" font-size="12" lengthAdjust="spacing" textLength="97" x="932" y="426.6475">Formats list for UI</text><rect fill="none" height="6" style="stroke:#C82930;stroke-width:1.0;" width="6" x="921" y="434.3936"/><text fill="#000000" font-family="Arial" font-size="12" lengthAdjust="spacing" textLength="166" x="932" y="440.4463">Handles view details requests</text><rect fill="none" height="6" style="stroke:#C82930;stroke-width:1.0;" width="6" x="921" y="448.1924"/><text fill="#000000" font-family="Arial" font-size="12" lengthAdjust="spacing" textLength="165" x="932" y="454.2451">Retrieves specific jewelry data</text><rect fill="none" height="6" style="stroke:#C82930;stroke-width:1.0;" width="6" x="921" y="461.9912"/><text fill="#000000" font-family="Arial" font-size="12" lengthAdjust="spacing" textLength="118" x="932" y="468.0439">Formats details for UI</text><rect fill="none" height="6" style="stroke:#C82930;stroke-width:1.0;" width="6" x="921" y="475.79"/><text fill="#000000" font-family="Arial" font-size="12" lengthAdjust="spacing" textLength="199" x="932" y="481.8428">Handles view/add/edit/delete jewelry</text><rect fill="none" height="6" style="stroke:#C82930;stroke-width:1.0;" width="6" x="921" y="489.5889"/><text fill="#000000" font-family="Arial" font-size="12" lengthAdjust="spacing" textLength="163" x="932" y="495.6416">Retrieves seller's jewelry data</text><rect fill="none" height="6" style="stroke:#C82930;stroke-width:1.0;" width="6" x="921" y="503.3877"/><text fill="#000000" font-family="Arial" font-size="12" lengthAdjust="spacing" textLength="81" x="932" y="509.4404">Validates input</text><rect fill="none" height="6" style="stroke:#C82930;stroke-width:1.0;" width="6" x="921" y="517.1865"/><text fill="#000000" font-family="Arial" font-size="12" lengthAdjust="spacing" textLength="185" x="932" y="523.2393">Creates/Updates/Deletes records</text><line style="stroke:#181818;stroke-width:1.0;" x1="914" x2="1136" y1="529.5859" y2="529.5859"/><text fill="#000000" font-family="Arial" font-size="12" lengthAdjust="spacing" textLength="84" x="919" y="545.0381">Collaborations:</text><line style="stroke:#181818;stroke-width:1.0;" x1="914" x2="1136" y1="551.3848" y2="551.3848"/><rect fill="#F24D5C" height="6" style="stroke:#C82930;stroke-width:1.0;" width="6" x="921" y="560.7842"/><text fill="#000000" font-family="Arial" font-size="12" lengthAdjust="spacing" textLength="85" x="932" y="566.8369">Jewelry (Model)</text></g><g id="elem_RegCtrl"><rect fill="#F1F1F1" height="140.5918" style="stroke:#181818;stroke-width:0.5;" width="189" x="494.5" y="384"/><text fill="#000000" font-family="Arial" font-size="12" lengthAdjust="spacing" textLength="121" x="528.5" y="397.4521">RegistrationController</text><line style="stroke:#181818;stroke-width:0.5;" x1="495.5" x2="682.5" y1="401.7988" y2="401.7988"/><line style="stroke:#181818;stroke-width:1.0;" x1="495.5" x2="682.5" y1="409.7988" y2="409.7988"/><text fill="#000000" font-family="Arial" font-size="12" lengthAdjust="spacing" textLength="93" x="500.5" y="425.251">Responsibilities:</text><line style="stroke:#181818;stroke-width:1.0;" x1="495.5" x2="682.5" y1="431.5977" y2="431.5977"/><rect fill="none" height="6" style="stroke:#C82930;stroke-width:1.0;" width="6" x="502.5" y="440.9971"/><text fill="#000000" font-family="Arial" font-size="12" lengthAdjust="spacing" textLength="164" x="513.5" y="447.0498">Handles registration requests</text><rect fill="none" height="6" style="stroke:#C82930;stroke-width:1.0;" width="6" x="502.5" y="454.7959"/><text fill="#000000" font-family="Arial" font-size="12" lengthAdjust="spacing" textLength="143" x="513.5" y="460.8486">Validates registration data</text><rect fill="none" height="6" style="stroke:#C82930;stroke-width:1.0;" width="6" x="502.5" y="468.5947"/><text fill="#000000" font-family="Arial" font-size="12" lengthAdjust="spacing" textLength="136" x="513.5" y="474.6475">Creates new user record</text><line style="stroke:#181818;stroke-width:1.0;" x1="495.5" x2="682.5" y1="480.9941" y2="480.9941"/><text fill="#000000" font-family="Arial" font-size="12" lengthAdjust="spacing" textLength="84" x="500.5" y="496.4463">Collaborations:</text><line style="stroke:#181818;stroke-width:1.0;" x1="495.5" x2="682.5" y1="502.793" y2="502.793"/><rect fill="#F24D5C" height="6" style="stroke:#C82930;stroke-width:1.0;" width="6" x="502.5" y="512.1924"/><text fill="#000000" font-family="Arial" font-size="12" lengthAdjust="spacing" textLength="71" x="513.5" y="518.2451">User (Model)</text></g><g id="elem_AuthCtrl"><rect fill="#F1F1F1" height="154.3906" style="stroke:#181818;stroke-width:0.5;" width="159" x="718.5" y="377.5"/><text fill="#000000" font-family="Arial" font-size="12" lengthAdjust="spacing" textLength="78" x="759" y="390.9521">AuthController</text><line style="stroke:#181818;stroke-width:0.5;" x1="719.5" x2="876.5" y1="395.2988" y2="395.2988"/><line style="stroke:#181818;stroke-width:1.0;" x1="719.5" x2="876.5" y1="403.2988" y2="403.2988"/><text fill="#000000" font-family="Arial" font-size="12" lengthAdjust="spacing" textLength="93" x="724.5" y="418.751">Responsibilities:</text><line style="stroke:#181818;stroke-width:1.0;" x1="719.5" x2="876.5" y1="425.0977" y2="425.0977"/><rect fill="none" height="6" style="stroke:#C82930;stroke-width:1.0;" width="6" x="726.5" y="434.4971"/><text fill="#000000" font-family="Arial" font-size="12" lengthAdjust="spacing" textLength="129" x="737.5" y="440.5498">Handles login requests</text><rect fill="none" height="6" style="stroke:#C82930;stroke-width:1.0;" width="6" x="726.5" y="448.2959"/><text fill="#000000" font-family="Arial" font-size="12" lengthAdjust="spacing" textLength="102" x="737.5" y="454.3486">Authenticates user</text><rect fill="none" height="6" style="stroke:#C82930;stroke-width:1.0;" width="6" x="726.5" y="462.0947"/><text fill="#000000" font-family="Arial" font-size="12" lengthAdjust="spacing" textLength="134" x="737.5" y="468.1475">Manages user sessions</text><line style="stroke:#181818;stroke-width:1.0;" x1="719.5" x2="876.5" y1="474.4941" y2="474.4941"/><text fill="#000000" font-family="Arial" font-size="12" lengthAdjust="spacing" textLength="84" x="724.5" y="489.9463">Collaborations:</text><line style="stroke:#181818;stroke-width:1.0;" x1="719.5" x2="876.5" y1="496.293" y2="496.293"/><rect fill="#F24D5C" height="6" style="stroke:#C82930;stroke-width:1.0;" width="6" x="726.5" y="505.6924"/><text fill="#000000" font-family="Arial" font-size="12" lengthAdjust="spacing" textLength="71" x="737.5" y="511.7451">User (Model)</text><rect fill="none" height="6" style="stroke:#C82930;stroke-width:1.0;" width="6" x="726.5" y="519.4912"/><text fill="#000000" font-family="Arial" font-size="12" lengthAdjust="spacing" textLength="46" x="737.5" y="525.5439">Session</text></g><g id="elem_ProfileCtrl"><rect fill="#F1F1F1" height="154.3906" style="stroke:#181818;stroke-width:0.5;" width="211" x="248.5" y="377.5"/><text fill="#000000" font-family="Arial" font-size="12" lengthAdjust="spacing" textLength="89" x="309.5" y="390.9521">ProfileController</text><line style="stroke:#181818;stroke-width:0.5;" x1="249.5" x2="458.5" y1="395.2988" y2="395.2988"/><line style="stroke:#181818;stroke-width:1.0;" x1="249.5" x2="458.5" y1="403.2988" y2="403.2988"/><text fill="#000000" font-family="Arial" font-size="12" lengthAdjust="spacing" textLength="93" x="254.5" y="418.751">Responsibilities:</text><line style="stroke:#181818;stroke-width:1.0;" x1="249.5" x2="458.5" y1="425.0977" y2="425.0977"/><rect fill="none" height="6" style="stroke:#C82930;stroke-width:1.0;" width="6" x="256.5" y="434.4971"/><text fill="#000000" font-family="Arial" font-size="12" lengthAdjust="spacing" textLength="186" x="267.5" y="440.5498">Handles profile view/edit requests</text><rect fill="none" height="6" style="stroke:#C82930;stroke-width:1.0;" width="6" x="256.5" y="448.2959"/><text fill="#000000" font-family="Arial" font-size="12" lengthAdjust="spacing" textLength="116" x="267.5" y="454.3486">Retrieves profile data</text><rect fill="none" height="6" style="stroke:#C82930;stroke-width:1.0;" width="6" x="256.5" y="462.0947"/><text fill="#000000" font-family="Arial" font-size="12" lengthAdjust="spacing" textLength="107" x="267.5" y="468.1475">Updates profile info</text><rect fill="none" height="6" style="stroke:#C82930;stroke-width:1.0;" width="6" x="256.5" y="475.8936"/><text fill="#000000" font-family="Arial" font-size="12" lengthAdjust="spacing" textLength="136" x="267.5" y="481.9463">Validates profile updates</text><line style="stroke:#181818;stroke-width:1.0;" x1="249.5" x2="458.5" y1="488.293" y2="488.293"/><text fill="#000000" font-family="Arial" font-size="12" lengthAdjust="spacing" textLength="84" x="254.5" y="503.7451">Collaborations:</text><line style="stroke:#181818;stroke-width:1.0;" x1="249.5" x2="458.5" y1="510.0918" y2="510.0918"/><rect fill="#F24D5C" height="6" style="stroke:#C82930;stroke-width:1.0;" width="6" x="256.5" y="519.4912"/><text fill="#000000" font-family="Arial" font-size="12" lengthAdjust="spacing" textLength="71" x="267.5" y="525.5439">User (Model)</text></g><g id="elem_StoreController"><rect fill="#F1F1F1" height="154.3906" style="stroke:#181818;stroke-width:0.5;" width="190" x="23" y="377.5"/><text fill="#000000" font-family="Arial" font-size="12" lengthAdjust="spacing" textLength="83" x="76.5" y="390.9521">StoreController</text><line style="stroke:#181818;stroke-width:0.5;" x1="24" x2="212" y1="395.2988" y2="395.2988"/><line style="stroke:#181818;stroke-width:1.0;" x1="24" x2="212" y1="403.2988" y2="403.2988"/><text fill="#000000" font-family="Arial" font-size="12" lengthAdjust="spacing" textLength="93" x="29" y="418.751">Responsibilities:</text><line style="stroke:#181818;stroke-width:1.0;" x1="24" x2="212" y1="425.0977" y2="425.0977"/><rect fill="none" height="6" style="stroke:#C82930;stroke-width:1.0;" width="6" x="31" y="434.4971"/><text fill="#000000" font-family="Arial" font-size="12" lengthAdjust="spacing" textLength="165" x="42" y="440.5498">Handles shop profile view/edit</text><rect fill="none" height="6" style="stroke:#C82930;stroke-width:1.0;" width="6" x="31" y="448.2959"/><text fill="#000000" font-family="Arial" font-size="12" lengthAdjust="spacing" textLength="110" x="42" y="454.3486">Retrieves shop data</text><rect fill="none" height="6" style="stroke:#C82930;stroke-width:1.0;" width="6" x="31" y="462.0947"/><text fill="#000000" font-family="Arial" font-size="12" lengthAdjust="spacing" textLength="101" x="42" y="468.1475">Updates shop info</text><rect fill="none" height="6" style="stroke:#C82930;stroke-width:1.0;" width="6" x="31" y="475.8936"/><text fill="#000000" font-family="Arial" font-size="12" lengthAdjust="spacing" textLength="130" x="42" y="481.9463">Validates shop updates</text><line style="stroke:#181818;stroke-width:1.0;" x1="24" x2="212" y1="488.293" y2="488.293"/><text fill="#000000" font-family="Arial" font-size="12" lengthAdjust="spacing" textLength="84" x="29" y="503.7451">Collaborations:</text><line style="stroke:#181818;stroke-width:1.0;" x1="24" x2="212" y1="510.0918" y2="510.0918"/><rect fill="#F24D5C" height="6" style="stroke:#C82930;stroke-width:1.0;" width="6" x="31" y="519.4912"/><text fill="#000000" font-family="Arial" font-size="12" lengthAdjust="spacing" textLength="73" x="42" y="525.5439">Store (Model)</text></g><g id="elem_JewelryModel"><rect fill="#F1F1F1" height="140.5918" style="stroke:#181818;stroke-width:0.5;" width="216" x="917" y="667.5"/><text fill="#000000" font-family="Arial" font-size="12" font-style="italic" lengthAdjust="spacing" textLength="47" x="1001.5" y="678.9521">«Model»</text><text fill="#000000" font-family="Arial" font-size="12" lengthAdjust="spacing" textLength="41" x="1004.5" y="694.751">Jewelry</text><line style="stroke:#181818;stroke-width:0.5;" x1="918" x2="1132" y1="699.0977" y2="699.0977"/><line style="stroke:#181818;stroke-width:1.0;" x1="918" x2="1132" y1="707.0977" y2="707.0977"/><text fill="#000000" font-family="Arial" font-size="12" lengthAdjust="spacing" textLength="93" x="923" y="722.5498">Responsibilities:</text><line style="stroke:#181818;stroke-width:1.0;" x1="918" x2="1132" y1="728.8965" y2="728.8965"/><rect fill="none" height="6" style="stroke:#C82930;stroke-width:1.0;" width="6" x="925" y="738.2959"/><text fill="#000000" font-family="Arial" font-size="12" lengthAdjust="spacing" textLength="133" x="936" y="744.3486">Represents jewelry data</text><rect fill="none" height="6" style="stroke:#C82930;stroke-width:1.0;" width="6" x="925" y="752.0947"/><text fill="#000000" font-family="Arial" font-size="12" lengthAdjust="spacing" textLength="191" x="936" y="758.1475">Access/manipulate jewelry records</text><line style="stroke:#181818;stroke-width:1.0;" x1="918" x2="1132" y1="764.4941" y2="764.4941"/><text fill="#000000" font-family="Arial" font-size="12" lengthAdjust="spacing" textLength="84" x="923" y="779.9463">Collaborations:</text><line style="stroke:#181818;stroke-width:1.0;" x1="918" x2="1132" y1="786.293" y2="786.293"/><rect fill="none" height="6" style="stroke:#C82930;stroke-width:1.0;" width="6" x="925" y="795.6924"/><text fill="#000000" font-family="Arial" font-size="12" lengthAdjust="spacing" textLength="54" x="936" y="801.7451">Database</text></g><g id="elem_UserModel"><rect fill="#F1F1F1" height="209.5859" style="stroke:#181818;stroke-width:0.5;" width="207" x="485.5" y="633"/><text fill="#000000" font-family="Arial" font-size="12" font-style="italic" lengthAdjust="spacing" textLength="47" x="565.5" y="644.4521">«Model»</text><text fill="#000000" font-family="Arial" font-size="12" lengthAdjust="spacing" textLength="27" x="575.5" y="660.251">User</text><line style="stroke:#181818;stroke-width:0.5;" x1="486.5" x2="691.5" y1="664.5977" y2="664.5977"/><line style="stroke:#181818;stroke-width:1.0;" x1="486.5" x2="691.5" y1="672.5977" y2="672.5977"/><text fill="#000000" font-family="Arial" font-size="12" lengthAdjust="spacing" textLength="93" x="491.5" y="688.0498">Responsibilities:</text><line style="stroke:#181818;stroke-width:1.0;" x1="486.5" x2="691.5" y1="694.3965" y2="694.3965"/><rect fill="none" height="6" style="stroke:#C82930;stroke-width:1.0;" width="6" x="493.5" y="703.7959"/><text fill="#000000" font-family="Arial" font-size="12" lengthAdjust="spacing" textLength="120" x="504.5" y="709.8486">Represents user data</text><rect fill="none" height="6" style="stroke:#C82930;stroke-width:1.0;" width="6" x="493.5" y="717.5947"/><text fill="#000000" font-family="Arial" font-size="12" lengthAdjust="spacing" textLength="178" x="504.5" y="723.6475">Access/manipulate user records</text><rect fill="none" height="6" style="stroke:#C82930;stroke-width:1.0;" width="6" x="493.5" y="731.3936"/><text fill="#000000" font-family="Arial" font-size="12" lengthAdjust="spacing" textLength="182" x="504.5" y="737.4463">Handles password management</text><line style="stroke:#181818;stroke-width:1.0;" x1="486.5" x2="691.5" y1="743.793" y2="743.793"/><text fill="#000000" font-family="Arial" font-size="12" lengthAdjust="spacing" textLength="84" x="491.5" y="759.2451">Collaborations:</text><line style="stroke:#181818;stroke-width:1.0;" x1="486.5" x2="691.5" y1="765.5918" y2="765.5918"/><rect fill="#F24D5C" height="6" style="stroke:#C82930;stroke-width:1.0;" width="6" x="493.5" y="774.9912"/><text fill="#000000" font-family="Arial" font-size="12" lengthAdjust="spacing" textLength="76" x="504.5" y="781.0439">Seller (Model)</text><rect fill="#F24D5C" height="6" style="stroke:#C82930;stroke-width:1.0;" width="6" x="493.5" y="788.79"/><text fill="#000000" font-family="Arial" font-size="12" lengthAdjust="spacing" textLength="75" x="504.5" y="794.8428">Buyer (Model)</text><rect fill="none" height="6" style="stroke:#C82930;stroke-width:1.0;" width="6" x="493.5" y="802.5889"/><text fill="#000000" font-family="Arial" font-size="12" lengthAdjust="spacing" textLength="89" x="504.5" y="808.6416">ProfileController</text><rect fill="none" height="6" style="stroke:#C82930;stroke-width:1.0;" width="6" x="493.5" y="816.3877"/><text fill="#000000" font-family="Arial" font-size="12" lengthAdjust="spacing" textLength="121" x="504.5" y="822.4404">RegistrationController</text><rect fill="none" height="6" style="stroke:#C82930;stroke-width:1.0;" width="6" x="493.5" y="830.1865"/><text fill="#000000" font-family="Arial" font-size="12" lengthAdjust="spacing" textLength="78" x="504.5" y="836.2393">AuthController</text></g><g id="elem_StoreModel"><rect fill="#F1F1F1" height="154.3906" style="stroke:#181818;stroke-width:0.5;" width="206" x="23" y="661"/><text fill="#000000" font-family="Arial" font-size="12" font-style="italic" lengthAdjust="spacing" textLength="47" x="102.5" y="672.4521">«Model»</text><text fill="#000000" font-family="Arial" font-size="12" lengthAdjust="spacing" textLength="29" x="111.5" y="688.251">Store</text><line style="stroke:#181818;stroke-width:0.5;" x1="24" x2="228" y1="692.5977" y2="692.5977"/><line style="stroke:#181818;stroke-width:1.0;" x1="24" x2="228" y1="700.5977" y2="700.5977"/><text fill="#000000" font-family="Arial" font-size="12" lengthAdjust="spacing" textLength="93" x="29" y="716.0498">Responsibilities:</text><line style="stroke:#181818;stroke-width:1.0;" x1="24" x2="228" y1="722.3965" y2="722.3965"/><rect fill="none" height="6" style="stroke:#C82930;stroke-width:1.0;" width="6" x="31" y="731.7959"/><text fill="#000000" font-family="Arial" font-size="12" lengthAdjust="spacing" textLength="160" x="42" y="737.8486">Represents shop profile data</text><rect fill="none" height="6" style="stroke:#C82930;stroke-width:1.0;" width="6" x="31" y="745.5947"/><text fill="#000000" font-family="Arial" font-size="12" lengthAdjust="spacing" textLength="181" x="42" y="751.6475">Access/manipulate shop records</text><line style="stroke:#181818;stroke-width:1.0;" x1="24" x2="228" y1="757.9941" y2="757.9941"/><text fill="#000000" font-family="Arial" font-size="12" lengthAdjust="spacing" textLength="84" x="29" y="773.4463">Collaborations:</text><line style="stroke:#181818;stroke-width:1.0;" x1="24" x2="228" y1="779.793" y2="779.793"/><rect fill="none" height="6" style="stroke:#C82930;stroke-width:1.0;" width="6" x="31" y="789.1924"/><text fill="#000000" font-family="Arial" font-size="12" lengthAdjust="spacing" textLength="54" x="42" y="795.2451">Database</text><rect fill="#F24D5C" height="6" style="stroke:#C82930;stroke-width:1.0;" width="6" x="31" y="802.9912"/><text fill="#000000" font-family="Arial" font-size="12" lengthAdjust="spacing" textLength="76" x="42" y="809.0439">Seller (Model)</text></g><!--class Session--><g id="elem_Session"><rect fill="#F1F1F1" height="46" id="Session" rx="2.5" ry="2.5" style="stroke:#181818;stroke-width:0.5;" width="76" x="760" y="715"/><ellipse cx="774" cy="730" fill="#ADD1B2" rx="10" ry="10" style="stroke:#181818;stroke-width:1.0;"/><path d="M775.4844,727.2031 Q775.5938,727.0469 775.7266,726.9688 Q775.8594,726.8906 776.0156,726.8906 Q776.2813,726.8906 776.4453,727.0781 Q776.6094,727.2656 776.6094,727.6875 L776.6094,728.7188 Q776.6094,729.1406 776.4453,729.3281 Q776.2813,729.5156 776.0156,729.5156 Q775.7656,729.5156 775.625,729.375 Q775.4844,729.25 775.4063,728.875 Q775.375,728.625 775.25,728.5 Q775,728.2344 774.5703,728.0781 Q774.1406,727.9219 773.7031,727.9219 Q773.1719,727.9219 772.7188,728.1563 Q772.2656,728.3906 771.9219,728.9141 Q771.5781,729.4375 771.5781,730.1719 L771.5781,730.9531 Q771.5781,731.8125 772.2109,732.3906 Q772.8438,732.9688 773.9531,732.9688 Q774.625,732.9688 775.0938,732.7969 Q775.3594,732.6875 775.6563,732.375 Q775.8438,732.1875 775.9531,732.1328 Q776.0625,732.0781 776.1875,732.0781 Q776.4375,732.0781 776.6172,732.2578 Q776.7969,732.4375 776.7969,732.6875 Q776.7969,732.9375 776.5469,733.2188 Q776.1875,733.625 775.625,733.8594 Q774.875,734.1719 773.9688,734.1719 Q772.8906,734.1719 772.0469,733.7344 Q771.3438,733.3906 770.8594,732.625 Q770.375,731.8594 770.375,730.9688 L770.375,730.1563 Q770.375,729.2188 770.8125,728.4063 Q771.25,727.5938 772.0234,727.1563 Q772.7969,726.7188 773.6563,726.7188 Q774.1875,726.7188 774.6406,726.8359 Q775.0938,726.9531 775.4844,727.2031 Z " fill="#000000"/><text fill="#000000" font-family="Arial" font-size="12" lengthAdjust="spacing" textLength="46" x="787" y="734.5527">Session</text><line style="stroke:#181818;stroke-width:0.5;" x1="761" x2="835" y1="745" y2="745"/><line style="stroke:#181818;stroke-width:0.5;" x1="761" x2="835" y1="753" y2="753"/></g><!--link Buyer to JewelleryController--><g id="link_Buyer_JewelleryController"><path codeLine="163" d="M883.17,269.19 C899.9,290.93 917.51,313.82 934.42,335.78 " fill="none" id="Buyer-JewelleryController" style="stroke:#181818;stroke-width:1.0;"/></g><!--link Buyer to RegCtrl--><g id="link_Buyer_RegCtrl"><path codeLine="164" d="M719.58,269.19 C692.36,307.61 662.62,349.59 638.4,383.77 " fill="none" id="Buyer-RegCtrl" style="stroke:#181818;stroke-width:1.0;"/></g><!--link Buyer to AuthCtrl--><g id="link_Buyer_AuthCtrl"><path codeLine="165" d="M798,269.19 C798,305.15 798,344.24 798,377.13 " fill="none" id="Buyer-AuthCtrl" style="stroke:#181818;stroke-width:1.0;"/></g><!--link Buyer to ProfileCtrl--><g id="link_Buyer_ProfileCtrl"><path codeLine="166" d="M701.22,264.44 C695.6,268.6 689.85,272.49 684,276 C601.91,325.36 560.01,288.21 477,336 C457.68,347.12 439.05,361.91 422.4,377.22 " fill="none" id="Buyer-ProfileCtrl" style="stroke:#181818;stroke-width:1.0;"/></g><!--link Seller to JewelleryController--><g id="link_Seller_JewelleryController"><path codeLine="168" d="M666.18,264.68 C672.02,268.75 677.98,272.55 684,276 C768.62,324.43 809.72,288.75 895,336 C900.99,339.32 906.93,342.96 912.78,346.84 " fill="none" id="Seller-JewelleryController" style="stroke:#181818;stroke-width:1.0;"/></g><!--link Seller to RegCtrl--><g id="link_Seller_RegCtrl"><path codeLine="169" d="M572.19,276.36 C575.64,312.79 579.34,351.74 582.39,383.81 " fill="none" id="Seller-RegCtrl" style="stroke:#181818;stroke-width:1.0;"/></g><!--link Seller to AuthCtrl--><g id="link_Seller_AuthCtrl"><path codeLine="170" d="M655.69,276.36 C683.02,310.39 712.12,346.6 736.83,377.37 " fill="none" id="Seller-AuthCtrl" style="stroke:#181818;stroke-width:1.0;"/></g><!--link Seller to ProfileCtrl--><g id="link_Seller_ProfileCtrl"><path codeLine="171" d="M478.3,276.36 C454.42,310.39 429.01,346.6 407.42,377.37 " fill="none" id="Seller-ProfileCtrl" style="stroke:#181818;stroke-width:1.0;"/></g><!--link Seller to StoreController--><g id="link_Seller_StoreController"><path codeLine="172" d="M455.66,204.75 C388.25,236.79 300.7,283.1 231,336 C214.88,348.23 198.95,362.8 184.36,377.44 " fill="none" id="Seller-StoreController" style="stroke:#181818;stroke-width:1.0;"/></g><!--link JewelleryController to JewelryModel--><g id="link_JewelleryController_JewelryModel"><path codeLine="174" d="M1025,573.25 C1025,605.19 1025,638.75 1025,667.12 " fill="none" id="JewelleryController-JewelryModel" style="stroke:#181818;stroke-width:1.0;"/></g><!--link RegCtrl to UserModel--><g id="link_RegCtrl_UserModel"><path codeLine="176" d="M589,525.08 C589,557.57 589,596.91 589,632.83 " fill="none" id="RegCtrl-UserModel" style="stroke:#181818;stroke-width:1.0;"/></g><!--link AuthCtrl to UserModel--><g id="link_AuthCtrl_UserModel"><path codeLine="178" d="M741.44,531.68 C718.35,562.78 691.27,599.25 666.4,632.75 " fill="none" id="AuthCtrl-UserModel" style="stroke:#181818;stroke-width:1.0;"/></g><!--link AuthCtrl to Session--><g id="link_AuthCtrl_Session"><path codeLine="179" d="M798,531.68 C798,593.23 798,675.81 798,714.82 " fill="none" id="AuthCtrl-Session" style="stroke:#181818;stroke-width:1.0;"/></g><!--link ProfileCtrl to UserModel--><g id="link_ProfileCtrl_UserModel"><path codeLine="181" d="M417.59,531.68 C443.56,562.78 474,599.25 501.97,632.75 " fill="none" id="ProfileCtrl-UserModel" style="stroke:#181818;stroke-width:1.0;"/></g><!--link StoreController to StoreModel--><g id="link_StoreController_StoreModel"><path codeLine="184" d="M120.16,531.68 C121.3,571.73 122.69,620.7 123.83,660.76 " fill="none" id="StoreController-StoreModel" style="stroke:#181818;stroke-width:1.0;"/></g><!--SRC=[pLRBRjim4BpxAmZtqFOW6Esn208uYeEcI8h0HdgdnRNDX1PLaahW5ldtBbUIHRtSsEcXfpYpgoLdzaNxADEC6xvbIvuyhetEKn5hfGrxDvlDHdPl5h3YkN9NEdNV-HROr4Yk-kqB-GlOfy-1qJemeDqkW_YYTSoDN6_SXSeXSC_GXwzXuNOAc874ZKObnCRnF6OnDyAEsUyHOthvW7OsliXtOCQCMqQ_sDdPhHQWpi_9Yx4eeZzpi9bEhLnA9Pq4-oKqHkmwHPGxiEn9mhDCr-m1da6P7LFIkhyw2N1SAblwtHdz90Mw6LZZruOxgLCcqvLkEoYzbYbB30X8CNGtGcRqIg8M8AGB8XJNHXqLN-eYVflHj-9gCQR5e1-O4fy7T-eOfxdRTC2xuWuD_6KKf6017gKS53zFJCADNbiawJHp6s1sXyMpjNkD0_scGlJYCrIfrt092dpU1h-n6vrLOlyd4djyuRGv87pd0fG3Gl6V03yg3LzvAbHPv5J-MCS_Sx3Exlav8-4fq5DmnqlZbJPRZehIXoliy_lhlhXbnmo7jXaaSYMJGsTKGGQFcN0X9hvt9e8ge0hMFOqKUz_Bw0TNKb3RuvZAgs4G6_3Ov3uZswGgCPnQ6eVKiKN4Fb37V6odkB-MACzeYfrH9-MsCPbQEQZvDhm2HKhkBCL4vXRBgo3zQixt_fi1mit-8A84dSgq6B4jYZwYdxW9qV0KIiCjJt7P510MXRN-zgVoeWukOhHPTXgUY5RegLohRK6bJojZiBqgro2hPINlJS6Gh4kYCkQ5ynjI7YwGvfWhDaaJEqcFSAhNedIRtxlr245uhmfaELO2OZHKzkKOg0UusP7ZYQjq3fa1YoNUEz6cIO9bETdoL6QvulLSF7fwNMBG9RVGfkFJJLpyZtz4X7ho88jW5jbsQt1hdn5dM-hmBKPyVUAAHqspiOlNPXCRMkF7FGXUEgrHDyG_ahBH60Sb9SytL4MlViIm432A-juheRbSSo5KBOGG2sQdZrwUEHY-jjVnQomue0R34qAy_KX3OzyJB8eQZUtTgWqUHNMVU7o_y1g69buj5eJ3jT4CvU_PcgFLXGkFbpy0]--></g></svg>