<?xml version="1.0" encoding="UTF-8" standalone="no"?><svg xmlns="http://www.w3.org/2000/svg" xmlns:xlink="http://www.w3.org/1999/xlink" contentStyleType="text/css" height="1137px" preserveAspectRatio="none" style="width:764px;height:1137px;background:#FFFFFF;" version="1.1" viewBox="0 0 764 1137" width="764px" zoomAndPan="magnify"><defs/><g><ellipse cx="391" cy="20" fill="#222222" rx="10" ry="10" style="stroke:#222222;stroke-width:1.0;"/><rect fill="none" height="326.9033" style="stroke:#000000;stroke-width:1.5;" width="380" x="201" y="40"/><path d="M299,40 L299,50.6094 L289,60.6094 L201,60.6094 " fill="none" style="stroke:#000000;stroke-width:1.5;"/><text fill="#000000" font-family="sans-serif" font-size="14" lengthAdjust="spacing" textLength="88" x="204" y="55.5332">User Interface</text><rect fill="#F1F1F1" height="35.0938" rx="12.5" ry="12.5" style="stroke:#181818;stroke-width:0.5;" width="115" x="333.5" y="77.6094"/><text fill="#000000" font-family="sans-serif" font-size="12" lengthAdjust="spacing" textLength="95" x="343.5" y="100.0664">View Home Page</text><polygon fill="#F1F1F1" points="242,132.7031,307,132.7031,319,144.7031,307,156.7031,242,156.7031,230,144.7031,242,132.7031" style="stroke:#181818;stroke-width:0.5;"/><text fill="#000000" font-family="sans-serif" font-size="11" lengthAdjust="spacing" textLength="22" x="278.5" y="168.1221">True</text><text fill="#000000" font-family="sans-serif" font-size="11" lengthAdjust="spacing" textLength="65" x="242" y="149.2041">Click "Login"?</text><rect fill="#F1F1F1" height="35.0938" rx="12.5" ry="12.5" style="stroke:#181818;stroke-width:0.5;" width="127" x="211" y="189.6221"/><text fill="#000000" font-family="sans-serif" font-size="12" lengthAdjust="spacing" textLength="107" x="221" y="212.0791">Display Login Form</text><rect fill="#F1F1F1" height="35.0938" rx="12.5" ry="12.5" style="stroke:#181818;stroke-width:0.5;" width="106" x="221.5" y="244.7158"/><text fill="#000000" font-family="sans-serif" font-size="12" lengthAdjust="spacing" textLength="86" x="231.5" y="267.1729">Input User Data</text><rect fill="#F1F1F1" height="35.0938" rx="12.5" ry="12.5" style="stroke:#181818;stroke-width:0.5;" width="91" x="229" y="299.8096"/><text fill="#000000" font-family="sans-serif" font-size="12" lengthAdjust="spacing" textLength="71" x="239" y="322.2666">Submit Form</text><polygon fill="#F1F1F1" points="400,132.7031,479,132.7031,491,144.7031,479,156.7031,400,156.7031,388,144.7031,400,132.7031" style="stroke:#181818;stroke-width:0.5;"/><text fill="#000000" font-family="sans-serif" font-size="11" lengthAdjust="spacing" textLength="22" x="443.5" y="168.1221">True</text><text fill="#000000" font-family="sans-serif" font-size="11" lengthAdjust="spacing" textLength="79" x="400" y="149.2041">Click "Register"?</text><text fill="#000000" font-family="sans-serif" font-size="11" lengthAdjust="spacing" textLength="26" x="491" y="142.2861">False</text><rect fill="#F1F1F1" height="35.0938" rx="12.5" ry="12.5" style="stroke:#181818;stroke-width:0.5;" width="163" x="358" y="189.6221"/><text fill="#000000" font-family="sans-serif" font-size="12" lengthAdjust="spacing" textLength="143" x="368" y="212.0791">Display Registration Form</text><rect fill="#F1F1F1" height="35.0938" rx="12.5" ry="12.5" style="stroke:#181818;stroke-width:0.5;" width="106" x="386.5" y="244.7158"/><text fill="#000000" font-family="sans-serif" font-size="12" lengthAdjust="spacing" textLength="86" x="396.5" y="267.1729">Input User Data</text><rect fill="#F1F1F1" height="35.0938" rx="12.5" ry="12.5" style="stroke:#181818;stroke-width:0.5;" width="91" x="394" y="299.8096"/><text fill="#000000" font-family="sans-serif" font-size="12" lengthAdjust="spacing" textLength="71" x="404" y="322.2666">Submit Form</text><ellipse cx="556" cy="258.3447" fill="none" rx="11" ry="11" style="stroke:#222222;stroke-width:1.0;"/><ellipse cx="556" cy="258.3447" fill="#222222" rx="6" ry="6" style="stroke:#111111;stroke-width:1.0;"/><rect fill="none" height="749.7783" style="stroke:#000000;stroke-width:1.5;" width="742" x="11" y="376.9033"/><path d="M76,376.9033 L76,387.5127 L66,397.5127 L11,397.5127 " fill="none" style="stroke:#000000;stroke-width:1.5;"/><text fill="#000000" font-family="sans-serif" font-size="14" lengthAdjust="spacing" textLength="55" x="14" y="392.4365">Backend</text><polygon fill="#F1F1F1" points="116.75,417.5127,244.75,417.5127,256.75,429.5127,244.75,441.5127,116.75,441.5127,104.75,429.5127,116.75,417.5127" style="stroke:#181818;stroke-width:0.5;"/><text fill="#000000" font-family="sans-serif" font-size="11" lengthAdjust="spacing" textLength="22" x="184.75" y="452.9316">True</text><text fill="#000000" font-family="sans-serif" font-size="11" lengthAdjust="spacing" textLength="128" x="116.75" y="434.0137">"Login Request" received?</text><rect fill="#F1F1F1" height="35.0938" rx="12.5" ry="12.5" style="stroke:#181818;stroke-width:0.5;" width="123" x="119.25" y="474.4316"/><text fill="#000000" font-family="sans-serif" font-size="12" lengthAdjust="spacing" textLength="103" x="129.25" y="496.8887">Validate User Data</text><polygon fill="#F1F1F1" points="137.25,529.5254,224.25,529.5254,236.25,541.5254,224.25,553.5254,137.25,553.5254,125.25,541.5254,137.25,529.5254" style="stroke:#181818;stroke-width:0.5;"/><text fill="#000000" font-family="sans-serif" font-size="11" lengthAdjust="spacing" textLength="87" x="137.25" y="546.0264">Validation Status?</text><text fill="#000000" font-family="sans-serif" font-size="11" lengthAdjust="spacing" textLength="22" x="103.25" y="539.1084">True</text><text fill="#000000" font-family="sans-serif" font-size="11" lengthAdjust="spacing" textLength="26" x="236.25" y="539.1084">False</text><rect fill="#F1F1F1" height="35.0938" rx="12.5" ry="12.5" style="stroke:#181818;stroke-width:0.5;" width="117" x="39.5" y="563.5254"/><text fill="#000000" font-family="sans-serif" font-size="12" lengthAdjust="spacing" textLength="97" x="49.5" y="585.9824">Authenticate User</text><rect fill="#F1F1F1" height="35.0938" rx="12.5" ry="12.5" style="stroke:#181818;stroke-width:0.5;" width="150" x="23" y="629.2012"/><text fill="#000000" font-family="sans-serif" font-size="12" lengthAdjust="spacing" textLength="130" x="33" y="651.6582">Manage Session/Token</text><rect fill="#F1F1F1" height="35.0938" rx="12.5" ry="12.5" style="stroke:#181818;stroke-width:0.5;" width="129" x="33.5" y="684.2949"/><text fill="#000000" font-family="sans-serif" font-size="12" lengthAdjust="spacing" textLength="109" x="43.5" y="706.752">Return Login Status</text><rect fill="#F1F1F1" height="35.0938" rx="12.5" ry="12.5" style="stroke:#181818;stroke-width:0.5;" width="141" x="193" y="563.5254"/><text fill="#000000" font-family="sans-serif" font-size="12" lengthAdjust="spacing" textLength="121" x="203" y="585.9824">Return Error Message</text><ellipse cx="263.5" cy="640.2012" fill="none" rx="11" ry="11" style="stroke:#222222;stroke-width:1.0;"/><ellipse cx="263.5" cy="640.2012" fill="#222222" rx="6" ry="6" style="stroke:#111111;stroke-width:1.0;"/><polygon fill="#F1F1F1" points="470.25,417.5127,629.25,417.5127,641.25,429.5127,629.25,441.5127,470.25,441.5127,458.25,429.5127,470.25,417.5127" style="stroke:#181818;stroke-width:0.5;"/><text fill="#000000" font-family="sans-serif" font-size="11" lengthAdjust="spacing" textLength="22" x="553.75" y="452.9316">True</text><text fill="#000000" font-family="sans-serif" font-size="11" lengthAdjust="spacing" textLength="159" x="470.25" y="434.0137">"Registration Request" received?</text><text fill="#000000" font-family="sans-serif" font-size="11" lengthAdjust="spacing" textLength="26" x="641.25" y="427.0957">False</text><rect fill="#F1F1F1" height="35.0938" rx="12.5" ry="12.5" style="stroke:#181818;stroke-width:0.5;" width="123" x="488.25" y="474.4316"/><text fill="#000000" font-family="sans-serif" font-size="12" lengthAdjust="spacing" textLength="103" x="498.25" y="496.8887">Validate User Data</text><polygon fill="#F1F1F1" points="506.25,529.5254,593.25,529.5254,605.25,541.5254,593.25,553.5254,506.25,553.5254,494.25,541.5254,506.25,529.5254" style="stroke:#181818;stroke-width:0.5;"/><text fill="#000000" font-family="sans-serif" font-size="11" lengthAdjust="spacing" textLength="87" x="506.25" y="546.0264">Validation Status?</text><text fill="#000000" font-family="sans-serif" font-size="11" lengthAdjust="spacing" textLength="22" x="472.25" y="539.1084">True</text><text fill="#000000" font-family="sans-serif" font-size="11" lengthAdjust="spacing" textLength="26" x="605.25" y="539.1084">False</text><rect fill="#F1F1F1" height="35.0938" rx="12.5" ry="12.5" style="stroke:#181818;stroke-width:0.5;" width="174" x="374" y="563.5254"/><text fill="#000000" font-family="sans-serif" font-size="12" lengthAdjust="spacing" textLength="154" x="384" y="585.9824">Validate Data &amp; Create User</text><rect fill="#F1F1F1" height="35.0938" rx="12.5" ry="12.5" style="stroke:#181818;stroke-width:0.5;" width="147" x="387.5" y="629.2012"/><text fill="#000000" font-family="sans-serif" font-size="12" lengthAdjust="spacing" textLength="127" x="397.5" y="651.6582">Save User to Database</text><rect fill="#F1F1F1" height="35.0938" rx="12.5" ry="12.5" style="stroke:#181818;stroke-width:0.5;" width="165" x="378.5" y="684.2949"/><text fill="#000000" font-family="sans-serif" font-size="12" lengthAdjust="spacing" textLength="145" x="388.5" y="706.752">Return Registration Status</text><rect fill="#F1F1F1" height="35.0938" rx="12.5" ry="12.5" style="stroke:#181818;stroke-width:0.5;" width="141" x="568" y="563.5254"/><text fill="#000000" font-family="sans-serif" font-size="12" lengthAdjust="spacing" textLength="121" x="578" y="585.9824">Return Error Message</text><ellipse cx="638.5" cy="640.2012" fill="none" rx="11" ry="11" style="stroke:#222222;stroke-width:1.0;"/><ellipse cx="638.5" cy="640.2012" fill="#222222" rx="6" ry="6" style="stroke:#111111;stroke-width:1.0;"/><ellipse cx="730" cy="598.2012" fill="none" rx="11" ry="11" style="stroke:#222222;stroke-width:1.0;"/><ellipse cx="730" cy="598.2012" fill="#222222" rx="6" ry="6" style="stroke:#111111;stroke-width:1.0;"/><polygon fill="#F1F1F1" points="333,759.3887,449,759.3887,461,771.3887,449,783.3887,333,783.3887,321,771.3887,333,759.3887" style="stroke:#181818;stroke-width:0.5;"/><text fill="#000000" font-family="sans-serif" font-size="11" lengthAdjust="spacing" textLength="116" x="333" y="775.8896">"User Has Admin Role?"</text><text fill="#000000" font-family="sans-serif" font-size="11" lengthAdjust="spacing" textLength="22" x="299" y="768.9717">True</text><text fill="#000000" font-family="sans-serif" font-size="11" lengthAdjust="spacing" textLength="26" x="461" y="768.9717">False</text><rect fill="#F1F1F1" height="35.0938" rx="12.5" ry="12.5" style="stroke:#181818;stroke-width:0.5;" width="167" x="214.5" y="793.3887"/><text fill="#000000" font-family="sans-serif" font-size="12" lengthAdjust="spacing" textLength="147" x="224.5" y="815.8457">Redirect to Admin Interface</text><rect fill="#F1F1F1" height="35.0938" rx="12.5" ry="12.5" style="stroke:#181818;stroke-width:0.5;" width="165" x="401.5" y="793.3887"/><text fill="#000000" font-family="sans-serif" font-size="12" lengthAdjust="spacing" textLength="145" x="411.5" y="815.8457">Redirect to Guest Interface</text><polygon fill="#F1F1F1" points="391,834.4824,403,846.4824,391,858.4824,379,846.4824,391,834.4824" style="stroke:#181818;stroke-width:0.5;"/><rect fill="#F1F1F1" height="35.0938" rx="12.5" ry="12.5" style="stroke:#181818;stroke-width:0.5;" width="148" x="317" y="927.4004"/><text fill="#000000" font-family="sans-serif" font-size="12" lengthAdjust="spacing" textLength="128" x="327" y="949.8574">Destroy Session/Token</text><rect fill="#F1F1F1" height="35.0938" rx="12.5" ry="12.5" style="stroke:#181818;stroke-width:0.5;" width="136" x="323" y="982.4941"/><text fill="#000000" font-family="sans-serif" font-size="12" lengthAdjust="spacing" textLength="116" x="333" y="1004.9512">Return Logout Status</text><rect fill="#F1F1F1" height="35.0938" rx="12.5" ry="12.5" style="stroke:#181818;stroke-width:0.5;" width="148" x="317" y="1037.5879"/><text fill="#000000" font-family="sans-serif" font-size="12" lengthAdjust="spacing" textLength="128" x="327" y="1060.0449">Redirect to Home Page</text><ellipse cx="391" cy="1103.6816" fill="none" rx="11" ry="11" style="stroke:#222222;stroke-width:1.0;"/><ellipse cx="391" cy="1103.6816" fill="#222222" rx="6" ry="6" style="stroke:#111111;stroke-width:1.0;"/><polygon fill="#F1F1F1" points="323.5,878.4824,458.5,878.4824,470.5,890.4824,458.5,902.4824,323.5,902.4824,311.5,890.4824,323.5,878.4824" style="stroke:#181818;stroke-width:0.5;"/><text fill="#000000" font-family="sans-serif" font-size="11" lengthAdjust="spacing" textLength="22" x="395" y="913.9014">True</text><text fill="#000000" font-family="sans-serif" font-size="11" lengthAdjust="spacing" textLength="135" x="323.5" y="894.9834">"Logout Request" received?</text><text fill="#000000" font-family="sans-serif" font-size="11" lengthAdjust="spacing" textLength="26" x="470.5" y="888.0654">False</text><ellipse cx="518.5" cy="890.4824" fill="none" rx="11" ry="11" style="stroke:#222222;stroke-width:1.0;"/><ellipse cx="518.5" cy="890.4824" fill="#222222" rx="6" ry="6" style="stroke:#111111;stroke-width:1.0;"/><line style="stroke:#181818;stroke-width:1.0;" x1="274.5" x2="274.5" y1="224.7158" y2="244.7158"/><polygon fill="#181818" points="270.5,234.7158,274.5,244.7158,278.5,234.7158,274.5,238.7158" style="stroke:#181818;stroke-width:1.0;"/><line style="stroke:#181818;stroke-width:1.0;" x1="274.5" x2="274.5" y1="279.8096" y2="299.8096"/><polygon fill="#181818" points="270.5,289.8096,274.5,299.8096,278.5,289.8096,274.5,293.8096" style="stroke:#181818;stroke-width:1.0;"/><line style="stroke:#181818;stroke-width:1.0;" x1="439.5" x2="439.5" y1="224.7158" y2="244.7158"/><polygon fill="#181818" points="435.5,234.7158,439.5,244.7158,443.5,234.7158,439.5,238.7158" style="stroke:#181818;stroke-width:1.0;"/><line style="stroke:#181818;stroke-width:1.0;" x1="439.5" x2="439.5" y1="279.8096" y2="299.8096"/><polygon fill="#181818" points="435.5,289.8096,439.5,299.8096,443.5,289.8096,439.5,293.8096" style="stroke:#181818;stroke-width:1.0;"/><line style="stroke:#181818;stroke-width:1.0;" x1="274.5" x2="274.5" y1="156.7031" y2="189.6221"/><polygon fill="#181818" points="270.5,179.6221,274.5,189.6221,278.5,179.6221,274.5,183.6221" style="stroke:#181818;stroke-width:1.0;"/><line style="stroke:#181818;stroke-width:1.0;" x1="274.5" x2="274.5" y1="334.9033" y2="354.9033"/><polygon fill="#181818" points="270.5,344.9033,274.5,354.9033,278.5,344.9033,274.5,348.9033" style="stroke:#181818;stroke-width:1.0;"/><line style="stroke:#181818;stroke-width:1.0;" x1="439.5" x2="439.5" y1="156.7031" y2="189.6221"/><polygon fill="#181818" points="435.5,179.6221,439.5,189.6221,443.5,179.6221,439.5,183.6221" style="stroke:#181818;stroke-width:1.0;"/><line style="stroke:#181818;stroke-width:1.0;" x1="439.5" x2="439.5" y1="334.9033" y2="354.9033"/><polygon fill="#181818" points="435.5,344.9033,439.5,354.9033,443.5,344.9033,439.5,348.9033" style="stroke:#181818;stroke-width:1.0;"/><line style="stroke:#181818;stroke-width:1.0;" x1="319" x2="388" y1="144.7031" y2="144.7031"/><polygon fill="#181818" points="378,140.7031,388,144.7031,378,148.7031,382,144.7031" style="stroke:#181818;stroke-width:1.0;"/><line style="stroke:#181818;stroke-width:1.0;" x1="391" x2="391" y1="112.7031" y2="117.7031"/><line style="stroke:#181818;stroke-width:1.0;" x1="391" x2="274.5" y1="117.7031" y2="117.7031"/><line style="stroke:#181818;stroke-width:1.0;" x1="274.5" x2="274.5" y1="117.7031" y2="132.7031"/><polygon fill="#181818" points="270.5,122.7031,274.5,132.7031,278.5,122.7031,274.5,126.7031" style="stroke:#181818;stroke-width:1.0;"/><line style="stroke:#181818;stroke-width:1.0;" x1="491" x2="556" y1="144.7031" y2="144.7031"/><line style="stroke:#181818;stroke-width:1.0;" x1="556" x2="556" y1="144.7031" y2="247.3447"/><polygon fill="#181818" points="552,237.3447,556,247.3447,560,237.3447,556,241.3447" style="stroke:#181818;stroke-width:1.0;"/><line style="stroke:#181818;stroke-width:1.0;" x1="274.5" x2="439.5" y1="354.9033" y2="354.9033"/><line style="stroke:#181818;stroke-width:1.0;" x1="391" x2="391" y1="30" y2="77.6094"/><polygon fill="#181818" points="387,67.6094,391,77.6094,395,67.6094,391,71.6094" style="stroke:#181818;stroke-width:1.0;"/><line style="stroke:#181818;stroke-width:1.0;" x1="98" x2="98" y1="598.6191" y2="629.2012"/><polygon fill="#181818" points="94,619.2012,98,629.2012,102,619.2012,98,623.2012" style="stroke:#181818;stroke-width:1.0;"/><line style="stroke:#181818;stroke-width:1.0;" x1="98" x2="98" y1="664.2949" y2="684.2949"/><polygon fill="#181818" points="94,674.2949,98,684.2949,102,674.2949,98,678.2949" style="stroke:#181818;stroke-width:1.0;"/><line style="stroke:#181818;stroke-width:1.0;" x1="263.5" x2="263.5" y1="598.6191" y2="629.2012"/><polygon fill="#181818" points="259.5,619.2012,263.5,629.2012,267.5,619.2012,263.5,623.2012" style="stroke:#181818;stroke-width:1.0;"/><line style="stroke:#181818;stroke-width:1.0;" x1="125.25" x2="98" y1="541.5254" y2="541.5254"/><line style="stroke:#181818;stroke-width:1.0;" x1="98" x2="98" y1="541.5254" y2="563.5254"/><polygon fill="#181818" points="94,553.5254,98,563.5254,102,553.5254,98,557.5254" style="stroke:#181818;stroke-width:1.0;"/><line style="stroke:#181818;stroke-width:1.0;" x1="236.25" x2="263.5" y1="541.5254" y2="541.5254"/><line style="stroke:#181818;stroke-width:1.0;" x1="263.5" x2="263.5" y1="541.5254" y2="563.5254"/><polygon fill="#181818" points="259.5,553.5254,263.5,563.5254,267.5,553.5254,263.5,557.5254" style="stroke:#181818;stroke-width:1.0;"/><line style="stroke:#181818;stroke-width:1.0;" x1="98" x2="98" y1="719.3887" y2="724.3887"/><line style="stroke:#181818;stroke-width:1.0;" x1="98" x2="180.75" y1="724.3887" y2="724.3887"/><line style="stroke:#181818;stroke-width:1.0;" x1="180.75" x2="180.75" y1="724.3887" y2="739.3887"/><polygon fill="#181818" points="176.75,729.3887,180.75,739.3887,184.75,729.3887,180.75,733.3887" style="stroke:#181818;stroke-width:1.0;"/><line style="stroke:#181818;stroke-width:1.0;" x1="180.75" x2="180.75" y1="509.5254" y2="529.5254"/><polygon fill="#181818" points="176.75,519.5254,180.75,529.5254,184.75,519.5254,180.75,523.5254" style="stroke:#181818;stroke-width:1.0;"/><line style="stroke:#181818;stroke-width:1.0;" x1="461" x2="461" y1="598.6191" y2="629.2012"/><polygon fill="#181818" points="457,619.2012,461,629.2012,465,619.2012,461,623.2012" style="stroke:#181818;stroke-width:1.0;"/><line style="stroke:#181818;stroke-width:1.0;" x1="461" x2="461" y1="664.2949" y2="684.2949"/><polygon fill="#181818" points="457,674.2949,461,684.2949,465,674.2949,461,678.2949" style="stroke:#181818;stroke-width:1.0;"/><line style="stroke:#181818;stroke-width:1.0;" x1="638.5" x2="638.5" y1="598.6191" y2="629.2012"/><polygon fill="#181818" points="634.5,619.2012,638.5,629.2012,642.5,619.2012,638.5,623.2012" style="stroke:#181818;stroke-width:1.0;"/><line style="stroke:#181818;stroke-width:1.0;" x1="494.25" x2="461" y1="541.5254" y2="541.5254"/><line style="stroke:#181818;stroke-width:1.0;" x1="461" x2="461" y1="541.5254" y2="563.5254"/><polygon fill="#181818" points="457,553.5254,461,563.5254,465,553.5254,461,557.5254" style="stroke:#181818;stroke-width:1.0;"/><line style="stroke:#181818;stroke-width:1.0;" x1="605.25" x2="638.5" y1="541.5254" y2="541.5254"/><line style="stroke:#181818;stroke-width:1.0;" x1="638.5" x2="638.5" y1="541.5254" y2="563.5254"/><polygon fill="#181818" points="634.5,553.5254,638.5,563.5254,642.5,553.5254,638.5,557.5254" style="stroke:#181818;stroke-width:1.0;"/><line style="stroke:#181818;stroke-width:1.0;" x1="461" x2="461" y1="719.3887" y2="724.3887"/><line style="stroke:#181818;stroke-width:1.0;" x1="461" x2="549.75" y1="724.3887" y2="724.3887"/><line style="stroke:#181818;stroke-width:1.0;" x1="549.75" x2="549.75" y1="724.3887" y2="739.3887"/><polygon fill="#181818" points="545.75,729.3887,549.75,739.3887,553.75,729.3887,549.75,733.3887" style="stroke:#181818;stroke-width:1.0;"/><line style="stroke:#181818;stroke-width:1.0;" x1="549.75" x2="549.75" y1="509.5254" y2="529.5254"/><polygon fill="#181818" points="545.75,519.5254,549.75,529.5254,553.75,519.5254,549.75,523.5254" style="stroke:#181818;stroke-width:1.0;"/><line style="stroke:#181818;stroke-width:1.0;" x1="180.75" x2="180.75" y1="441.5127" y2="474.4316"/><polygon fill="#181818" points="176.75,464.4316,180.75,474.4316,184.75,464.4316,180.75,468.4316" style="stroke:#181818;stroke-width:1.0;"/><line style="stroke:#181818;stroke-width:1.0;" x1="549.75" x2="549.75" y1="441.5127" y2="474.4316"/><polygon fill="#181818" points="545.75,464.4316,549.75,474.4316,553.75,464.4316,549.75,468.4316" style="stroke:#181818;stroke-width:1.0;"/><line style="stroke:#181818;stroke-width:1.0;" x1="256.75" x2="458.25" y1="429.5127" y2="429.5127"/><polygon fill="#181818" points="448.25,425.5127,458.25,429.5127,448.25,433.5127,452.25,429.5127" style="stroke:#181818;stroke-width:1.0;"/><line style="stroke:#181818;stroke-width:1.0;" x1="391" x2="391" y1="354.9033" y2="402.5127"/><line style="stroke:#181818;stroke-width:1.0;" x1="391" x2="180.75" y1="402.5127" y2="402.5127"/><line style="stroke:#181818;stroke-width:1.0;" x1="180.75" x2="180.75" y1="402.5127" y2="417.5127"/><polygon fill="#181818" points="176.75,407.5127,180.75,417.5127,184.75,407.5127,180.75,411.5127" style="stroke:#181818;stroke-width:1.0;"/><line style="stroke:#181818;stroke-width:1.0;" x1="641.25" x2="730" y1="429.5127" y2="429.5127"/><line style="stroke:#181818;stroke-width:1.0;" x1="730" x2="730" y1="429.5127" y2="587.2012"/><polygon fill="#181818" points="726,577.2012,730,587.2012,734,577.2012,730,581.2012" style="stroke:#181818;stroke-width:1.0;"/><line style="stroke:#181818;stroke-width:1.0;" x1="180.75" x2="549.75" y1="739.3887" y2="739.3887"/><line style="stroke:#181818;stroke-width:1.0;" x1="321" x2="298" y1="771.3887" y2="771.3887"/><line style="stroke:#181818;stroke-width:1.0;" x1="298" x2="298" y1="771.3887" y2="793.3887"/><polygon fill="#181818" points="294,783.3887,298,793.3887,302,783.3887,298,787.3887" style="stroke:#181818;stroke-width:1.0;"/><line style="stroke:#181818;stroke-width:1.0;" x1="461" x2="484" y1="771.3887" y2="771.3887"/><line style="stroke:#181818;stroke-width:1.0;" x1="484" x2="484" y1="771.3887" y2="793.3887"/><polygon fill="#181818" points="480,783.3887,484,793.3887,488,783.3887,484,787.3887" style="stroke:#181818;stroke-width:1.0;"/><line style="stroke:#181818;stroke-width:1.0;" x1="298" x2="298" y1="828.4824" y2="846.4824"/><line style="stroke:#181818;stroke-width:1.0;" x1="298" x2="379" y1="846.4824" y2="846.4824"/><polygon fill="#181818" points="369,842.4824,379,846.4824,369,850.4824,373,846.4824" style="stroke:#181818;stroke-width:1.0;"/><line style="stroke:#181818;stroke-width:1.0;" x1="484" x2="484" y1="828.4824" y2="846.4824"/><line style="stroke:#181818;stroke-width:1.0;" x1="484" x2="403" y1="846.4824" y2="846.4824"/><polygon fill="#181818" points="413,842.4824,403,846.4824,413,850.4824,409,846.4824" style="stroke:#181818;stroke-width:1.0;"/><line style="stroke:#181818;stroke-width:1.0;" x1="391" x2="391" y1="739.3887" y2="759.3887"/><polygon fill="#181818" points="387,749.3887,391,759.3887,395,749.3887,391,753.3887" style="stroke:#181818;stroke-width:1.0;"/><line style="stroke:#181818;stroke-width:1.0;" x1="391" x2="391" y1="962.4941" y2="982.4941"/><polygon fill="#181818" points="387,972.4941,391,982.4941,395,972.4941,391,976.4941" style="stroke:#181818;stroke-width:1.0;"/><line style="stroke:#181818;stroke-width:1.0;" x1="391" x2="391" y1="1017.5879" y2="1037.5879"/><polygon fill="#181818" points="387,1027.5879,391,1037.5879,395,1027.5879,391,1031.5879" style="stroke:#181818;stroke-width:1.0;"/><line style="stroke:#181818;stroke-width:1.0;" x1="391" x2="391" y1="1072.6816" y2="1092.6816"/><polygon fill="#181818" points="387,1082.6816,391,1092.6816,395,1082.6816,391,1086.6816" style="stroke:#181818;stroke-width:1.0;"/><line style="stroke:#181818;stroke-width:1.0;" x1="391" x2="391" y1="902.4824" y2="927.4004"/><polygon fill="#181818" points="387,917.4004,391,927.4004,395,917.4004,391,921.4004" style="stroke:#181818;stroke-width:1.0;"/><line style="stroke:#181818;stroke-width:1.0;" x1="470.5" x2="507.5" y1="890.4824" y2="890.4824"/><polygon fill="#181818" points="497.5,886.4824,507.5,890.4824,497.5,894.4824,501.5,890.4824" style="stroke:#181818;stroke-width:1.0;"/><line style="stroke:#181818;stroke-width:1.0;" x1="391" x2="391" y1="858.4824" y2="878.4824"/><polygon fill="#181818" points="387,868.4824,391,878.4824,395,868.4824,391,872.4824" style="stroke:#181818;stroke-width:1.0;"/><!--SRC=[lLHDJy904BttLqnwCENaNGu4GOH44aEH-z0EkA7jrjqfXXZ_kxlTGbken1ZZXIRpyURjcpTeHiMUbvjVmK9cuBzeKZ3BcDG68_BXmmEuMmbwXwbC2PvnItqJ4Xi8Hec8Tk0_oQt8_44F-9Ko29Qge9wfC6rZeVC43r1Mm4IgjEyIioml6CfHOsIiec6nJWMVwYZHr1YpeAtGXjRLIQv8OVcMtmo4O8Bcus0rozp6irXilC-MJFSOxKpSwMDPEXaCWRU2DFkWA2AnfxYBxGeJ4IFJEI6BK-Nia92H2zq1K88C2njc4Hs1-dLkZfdP4uIajG6wNKh3jP5U41SggzRYfhZiXG9ryODIKi7S85OEQ0XqbAZUcTzQnF-9SWAn_N038qKTyeIuhyQmB2lNgEbIdzOR_bocxvrMEYfmbpX53SCujSwI2Gty3k4M50iZBDl7kDBJ-NQwkjNmQ1Tprb2JSBQMvdH-jCAngL3oqEMxXkSiN5FD5f_Mdqojo_NB_080]--></g></svg>