<?xml version="1.0" encoding="UTF-8" standalone="no"?><svg xmlns="http://www.w3.org/2000/svg" xmlns:xlink="http://www.w3.org/1999/xlink" contentStyleType="text/css" height="738px" preserveAspectRatio="none" style="width:903px;height:738px;background:#FFFFFF;" version="1.1" viewBox="0 0 903 738" width="903px" zoomAndPan="magnify"><defs/><g><ellipse cx="467.5" cy="20" fill="#222222" rx="10" ry="10" style="stroke:#222222;stroke-width:1.0;"/><rect fill="none" height="326.9033" style="stroke:#000000;stroke-width:1.5;" width="447" x="244" y="40"/><path d="M352,40 L352,50.6094 L342,60.6094 L244,60.6094 " fill="none" style="stroke:#000000;stroke-width:1.5;"/><text fill="#000000" font-family="sans-serif" font-size="14" lengthAdjust="spacing" textLength="98" x="247" y="55.5332">Admin Interface</text><rect fill="#F1F1F1" height="35.0938" rx="12.5" ry="12.5" style="stroke:#181818;stroke-width:0.5;" width="158" x="388.5" y="77.6094"/><text fill="#000000" font-family="sans-serif" font-size="12" lengthAdjust="spacing" textLength="138" x="398.5" y="100.0664">View Store Settings Page</text><polygon fill="#F1F1F1" points="292,132.7031,392,132.7031,404,144.7031,392,156.7031,292,156.7031,280,144.7031,292,132.7031" style="stroke:#181818;stroke-width:0.5;"/><text fill="#000000" font-family="sans-serif" font-size="11" lengthAdjust="spacing" textLength="20" x="346" y="168.1221">Yes</text><text fill="#000000" font-family="sans-serif" font-size="11" lengthAdjust="spacing" textLength="100" x="292" y="149.2041">Click "Edit Store Info"</text><rect fill="#F1F1F1" height="35.0938" rx="12.5" ry="12.5" style="stroke:#181818;stroke-width:0.5;" width="172" x="256" y="189.6221"/><text fill="#000000" font-family="sans-serif" font-size="12" lengthAdjust="spacing" textLength="152" x="266" y="212.0791">Display Edit Store Info Form</text><rect fill="#F1F1F1" height="35.0938" rx="12.5" ry="12.5" style="stroke:#181818;stroke-width:0.5;" width="128" x="278" y="244.7158"/><text fill="#000000" font-family="sans-serif" font-size="12" lengthAdjust="spacing" textLength="108" x="288" y="267.1729">Modify Store Details</text><rect fill="#F1F1F1" height="35.0938" rx="12.5" ry="12.5" style="stroke:#181818;stroke-width:0.5;" width="176" x="254" y="299.8096"/><text fill="#000000" font-family="sans-serif" font-size="12" lengthAdjust="spacing" textLength="156" x="264" y="322.2666">Submit Changes (Store Info)</text><polygon fill="#F1F1F1" points="462,132.7031,619,132.7031,631,144.7031,619,156.7031,462,156.7031,450,144.7031,462,132.7031" style="stroke:#181818;stroke-width:0.5;"/><text fill="#000000" font-family="sans-serif" font-size="11" lengthAdjust="spacing" textLength="20" x="544.5" y="168.1221">Yes</text><text fill="#000000" font-family="sans-serif" font-size="11" lengthAdjust="spacing" textLength="157" x="462" y="149.2041">Input New Buy-Back Percentage</text><text fill="#000000" font-family="sans-serif" font-size="11" lengthAdjust="spacing" textLength="47" x="631" y="142.2861">No Action</text><rect fill="#F1F1F1" height="35.0938" rx="12.5" ry="12.5" style="stroke:#181818;stroke-width:0.5;" width="153" x="464" y="189.6221"/><text fill="#000000" font-family="sans-serif" font-size="12" lengthAdjust="spacing" textLength="133" x="474" y="212.0791">Submit New Percentage</text><ellipse cx="666" cy="258.3447" fill="none" rx="11" ry="11" style="stroke:#222222;stroke-width:1.0;"/><ellipse cx="666" cy="258.3447" fill="#222222" rx="6" ry="6" style="stroke:#111111;stroke-width:1.0;"/><rect fill="none" height="308.8096" style="stroke:#000000;stroke-width:1.5;" width="881" x="11" y="376.9033"/><path d="M76,376.9033 L76,387.5127 L66,397.5127 L11,397.5127 " fill="none" style="stroke:#000000;stroke-width:1.5;"/><text fill="#000000" font-family="sans-serif" font-size="14" lengthAdjust="spacing" textLength="55" x="14" y="392.4365">Backend</text><polygon fill="#F1F1F1" points="116.5,417.5127,302.5,417.5127,314.5,429.5127,302.5,441.5127,116.5,441.5127,104.5,429.5127,116.5,417.5127" style="stroke:#181818;stroke-width:0.5;"/><text fill="#000000" font-family="sans-serif" font-size="11" lengthAdjust="spacing" textLength="20" x="213.5" y="452.9316">Yes</text><text fill="#000000" font-family="sans-serif" font-size="11" lengthAdjust="spacing" textLength="186" x="116.5" y="434.0137">"Update Store Info Request" received?</text><rect fill="#F1F1F1" height="35.0938" rx="12.5" ry="12.5" style="stroke:#181818;stroke-width:0.5;" width="149" x="135" y="474.4316"/><text fill="#000000" font-family="sans-serif" font-size="12" lengthAdjust="spacing" textLength="129" x="145" y="496.8887">Validate Store Info Input</text><polygon fill="#F1F1F1" points="166,529.5254,253,529.5254,265,541.5254,253,553.5254,166,553.5254,154,541.5254,166,529.5254" style="stroke:#181818;stroke-width:0.5;"/><text fill="#000000" font-family="sans-serif" font-size="11" lengthAdjust="spacing" textLength="87" x="166" y="546.0264">Validation Status?</text><text fill="#000000" font-family="sans-serif" font-size="11" lengthAdjust="spacing" textLength="26" x="128" y="539.1084">False</text><text fill="#000000" font-family="sans-serif" font-size="11" lengthAdjust="spacing" textLength="22" x="265" y="539.1084">True</text><rect fill="#F1F1F1" height="35.0938" rx="12.5" ry="12.5" style="stroke:#181818;stroke-width:0.5;" width="195" x="23" y="563.5254"/><text fill="#000000" font-family="sans-serif" font-size="12" lengthAdjust="spacing" textLength="175" x="33" y="585.9824">Return Errors to Admin Interface</text><rect fill="#F1F1F1" height="35.0938" rx="12.5" ry="12.5" style="stroke:#181818;stroke-width:0.5;" width="121" x="238" y="563.5254"/><text fill="#000000" font-family="sans-serif" font-size="12" lengthAdjust="spacing" textLength="101" x="248" y="585.9824">Update Store Data</text><polygon fill="#F1F1F1" points="495.25,417.5127,739.25,417.5127,751.25,429.5127,739.25,441.5127,495.25,441.5127,483.25,429.5127,495.25,417.5127" style="stroke:#181818;stroke-width:0.5;"/><text fill="#000000" font-family="sans-serif" font-size="11" lengthAdjust="spacing" textLength="20" x="621.25" y="452.9316">Yes</text><text fill="#000000" font-family="sans-serif" font-size="11" lengthAdjust="spacing" textLength="244" x="495.25" y="434.0137">"Update Buy-Back Percentage Request" received?</text><rect fill="#F1F1F1" height="35.0938" rx="12.5" ry="12.5" style="stroke:#181818;stroke-width:0.5;" width="214" x="510.25" y="474.4316"/><text fill="#000000" font-family="sans-serif" font-size="12" lengthAdjust="spacing" textLength="194" x="520.25" y="496.8887">Validate Buy-Back Percentage Input</text><polygon fill="#F1F1F1" points="573.75,529.5254,660.75,529.5254,672.75,541.5254,660.75,553.5254,573.75,553.5254,561.75,541.5254,573.75,529.5254" style="stroke:#181818;stroke-width:0.5;"/><text fill="#000000" font-family="sans-serif" font-size="11" lengthAdjust="spacing" textLength="87" x="573.75" y="546.0264">Validation Status?</text><text fill="#000000" font-family="sans-serif" font-size="11" lengthAdjust="spacing" textLength="26" x="535.75" y="539.1084">False</text><text fill="#000000" font-family="sans-serif" font-size="11" lengthAdjust="spacing" textLength="22" x="672.75" y="539.1084">True</text><rect fill="#F1F1F1" height="35.0938" rx="12.5" ry="12.5" style="stroke:#181818;stroke-width:0.5;" width="195" x="399" y="563.5254"/><text fill="#000000" font-family="sans-serif" font-size="12" lengthAdjust="spacing" textLength="175" x="409" y="585.9824">Return Errors to Admin Interface</text><rect fill="#F1F1F1" height="35.0938" rx="12.5" ry="12.5" style="stroke:#181818;stroke-width:0.5;" width="248" x="614" y="563.5254"/><text fill="#000000" font-family="sans-serif" font-size="12" lengthAdjust="spacing" textLength="228" x="624" y="585.9824">Create New Buy-Back Percentage Record</text><rect fill="#F1F1F1" height="35.0938" rx="12.5" ry="12.5" style="stroke:#181818;stroke-width:0.5;" width="191" x="372" y="638.6191"/><text fill="#000000" font-family="sans-serif" font-size="12" lengthAdjust="spacing" textLength="171" x="382" y="661.0762">Redirect to Store Settings Page</text><ellipse cx="467.5" cy="716.7129" fill="none" rx="11" ry="11" style="stroke:#222222;stroke-width:1.0;"/><ellipse cx="467.5" cy="716.7129" fill="#222222" rx="6" ry="6" style="stroke:#111111;stroke-width:1.0;"/><line style="stroke:#181818;stroke-width:1.0;" x1="342" x2="342" y1="224.7158" y2="244.7158"/><polygon fill="#181818" points="338,234.7158,342,244.7158,346,234.7158,342,238.7158" style="stroke:#181818;stroke-width:1.0;"/><line style="stroke:#181818;stroke-width:1.0;" x1="342" x2="342" y1="279.8096" y2="299.8096"/><polygon fill="#181818" points="338,289.8096,342,299.8096,346,289.8096,342,293.8096" style="stroke:#181818;stroke-width:1.0;"/><line style="stroke:#181818;stroke-width:1.0;" x1="342" x2="342" y1="156.7031" y2="189.6221"/><polygon fill="#181818" points="338,179.6221,342,189.6221,346,179.6221,342,183.6221" style="stroke:#181818;stroke-width:1.0;"/><line style="stroke:#181818;stroke-width:1.0;" x1="342" x2="342" y1="334.9033" y2="354.9033"/><polygon fill="#181818" points="338,344.9033,342,354.9033,346,344.9033,342,348.9033" style="stroke:#181818;stroke-width:1.0;"/><line style="stroke:#181818;stroke-width:1.0;" x1="540.5" x2="540.5" y1="156.7031" y2="189.6221"/><polygon fill="#181818" points="536.5,179.6221,540.5,189.6221,544.5,179.6221,540.5,183.6221" style="stroke:#181818;stroke-width:1.0;"/><line style="stroke:#181818;stroke-width:1.0;" x1="540.5" x2="540.5" y1="224.7158" y2="354.9033"/><polygon fill="#181818" points="536.5,344.9033,540.5,354.9033,544.5,344.9033,540.5,348.9033" style="stroke:#181818;stroke-width:1.0;"/><line style="stroke:#181818;stroke-width:1.0;" x1="404" x2="450" y1="144.7031" y2="144.7031"/><polygon fill="#181818" points="440,140.7031,450,144.7031,440,148.7031,444,144.7031" style="stroke:#181818;stroke-width:1.0;"/><line style="stroke:#181818;stroke-width:1.0;" x1="467.5" x2="467.5" y1="112.7031" y2="117.7031"/><line style="stroke:#181818;stroke-width:1.0;" x1="467.5" x2="342" y1="117.7031" y2="117.7031"/><line style="stroke:#181818;stroke-width:1.0;" x1="342" x2="342" y1="117.7031" y2="132.7031"/><polygon fill="#181818" points="338,122.7031,342,132.7031,346,122.7031,342,126.7031" style="stroke:#181818;stroke-width:1.0;"/><line style="stroke:#181818;stroke-width:1.0;" x1="631" x2="666" y1="144.7031" y2="144.7031"/><line style="stroke:#181818;stroke-width:1.0;" x1="666" x2="666" y1="144.7031" y2="247.3447"/><polygon fill="#181818" points="662,237.3447,666,247.3447,670,237.3447,666,241.3447" style="stroke:#181818;stroke-width:1.0;"/><line style="stroke:#181818;stroke-width:1.0;" x1="342" x2="540.5" y1="354.9033" y2="354.9033"/><line style="stroke:#181818;stroke-width:1.0;" x1="467.5" x2="467.5" y1="30" y2="77.6094"/><polygon fill="#181818" points="463.5,67.6094,467.5,77.6094,471.5,67.6094,467.5,71.6094" style="stroke:#181818;stroke-width:1.0;"/><line style="stroke:#181818;stroke-width:1.0;" x1="154" x2="120.5" y1="541.5254" y2="541.5254"/><line style="stroke:#181818;stroke-width:1.0;" x1="120.5" x2="120.5" y1="541.5254" y2="563.5254"/><polygon fill="#181818" points="116.5,553.5254,120.5,563.5254,124.5,553.5254,120.5,557.5254" style="stroke:#181818;stroke-width:1.0;"/><line style="stroke:#181818;stroke-width:1.0;" x1="265" x2="298.5" y1="541.5254" y2="541.5254"/><line style="stroke:#181818;stroke-width:1.0;" x1="298.5" x2="298.5" y1="541.5254" y2="563.5254"/><polygon fill="#181818" points="294.5,553.5254,298.5,563.5254,302.5,553.5254,298.5,557.5254" style="stroke:#181818;stroke-width:1.0;"/><line style="stroke:#181818;stroke-width:1.0;" x1="298.5" x2="298.5" y1="598.6191" y2="603.6191"/><line style="stroke:#181818;stroke-width:1.0;" x1="298.5" x2="209.5" y1="603.6191" y2="603.6191"/><line style="stroke:#181818;stroke-width:1.0;" x1="209.5" x2="209.5" y1="603.6191" y2="618.6191"/><polygon fill="#181818" points="205.5,608.6191,209.5,618.6191,213.5,608.6191,209.5,612.6191" style="stroke:#181818;stroke-width:1.0;"/><line style="stroke:#181818;stroke-width:1.0;" x1="209.5" x2="209.5" y1="509.5254" y2="529.5254"/><polygon fill="#181818" points="205.5,519.5254,209.5,529.5254,213.5,519.5254,209.5,523.5254" style="stroke:#181818;stroke-width:1.0;"/><line style="stroke:#181818;stroke-width:1.0;" x1="561.75" x2="496.5" y1="541.5254" y2="541.5254"/><line style="stroke:#181818;stroke-width:1.0;" x1="496.5" x2="496.5" y1="541.5254" y2="563.5254"/><polygon fill="#181818" points="492.5,553.5254,496.5,563.5254,500.5,553.5254,496.5,557.5254" style="stroke:#181818;stroke-width:1.0;"/><line style="stroke:#181818;stroke-width:1.0;" x1="672.75" x2="738" y1="541.5254" y2="541.5254"/><line style="stroke:#181818;stroke-width:1.0;" x1="738" x2="738" y1="541.5254" y2="563.5254"/><polygon fill="#181818" points="734,553.5254,738,563.5254,742,553.5254,738,557.5254" style="stroke:#181818;stroke-width:1.0;"/><line style="stroke:#181818;stroke-width:1.0;" x1="738" x2="738" y1="598.6191" y2="603.6191"/><line style="stroke:#181818;stroke-width:1.0;" x1="738" x2="617.25" y1="603.6191" y2="603.6191"/><line style="stroke:#181818;stroke-width:1.0;" x1="617.25" x2="617.25" y1="603.6191" y2="618.6191"/><polygon fill="#181818" points="613.25,608.6191,617.25,618.6191,621.25,608.6191,617.25,612.6191" style="stroke:#181818;stroke-width:1.0;"/><line style="stroke:#181818;stroke-width:1.0;" x1="617.25" x2="617.25" y1="509.5254" y2="529.5254"/><polygon fill="#181818" points="613.25,519.5254,617.25,529.5254,621.25,519.5254,617.25,523.5254" style="stroke:#181818;stroke-width:1.0;"/><line style="stroke:#181818;stroke-width:1.0;" x1="209.5" x2="209.5" y1="441.5127" y2="474.4316"/><polygon fill="#181818" points="205.5,464.4316,209.5,474.4316,213.5,464.4316,209.5,468.4316" style="stroke:#181818;stroke-width:1.0;"/><line style="stroke:#181818;stroke-width:1.0;" x1="617.25" x2="617.25" y1="441.5127" y2="474.4316"/><polygon fill="#181818" points="613.25,464.4316,617.25,474.4316,621.25,464.4316,617.25,468.4316" style="stroke:#181818;stroke-width:1.0;"/><line style="stroke:#181818;stroke-width:1.0;" x1="314.5" x2="483.25" y1="429.5127" y2="429.5127"/><polygon fill="#181818" points="473.25,425.5127,483.25,429.5127,473.25,433.5127,477.25,429.5127" style="stroke:#181818;stroke-width:1.0;"/><line style="stroke:#181818;stroke-width:1.0;" x1="467.5" x2="467.5" y1="354.9033" y2="402.5127"/><line style="stroke:#181818;stroke-width:1.0;" x1="467.5" x2="209.5" y1="402.5127" y2="402.5127"/><line style="stroke:#181818;stroke-width:1.0;" x1="209.5" x2="209.5" y1="402.5127" y2="417.5127"/><polygon fill="#181818" points="205.5,407.5127,209.5,417.5127,213.5,407.5127,209.5,411.5127" style="stroke:#181818;stroke-width:1.0;"/><line style="stroke:#181818;stroke-width:1.0;" x1="751.25" x2="876" y1="429.5127" y2="429.5127"/><line style="stroke:#181818;stroke-width:1.0;" x1="876" x2="876" y1="429.5127" y2="618.6191"/><polygon fill="#181818" points="872,608.6191,876,618.6191,880,608.6191,876,612.6191" style="stroke:#181818;stroke-width:1.0;"/><line style="stroke:#181818;stroke-width:1.0;" x1="209.5" x2="876" y1="618.6191" y2="618.6191"/><line style="stroke:#181818;stroke-width:1.0;" x1="467.5" x2="467.5" y1="618.6191" y2="638.6191"/><polygon fill="#181818" points="463.5,628.6191,467.5,638.6191,471.5,628.6191,467.5,632.6191" style="stroke:#181818;stroke-width:1.0;"/><line style="stroke:#181818;stroke-width:1.0;" x1="467.5" x2="467.5" y1="673.7129" y2="705.7129"/><polygon fill="#181818" points="463.5,695.7129,467.5,705.7129,471.5,695.7129,467.5,699.7129" style="stroke:#181818;stroke-width:1.0;"/><!--SRC=[nLExRiCm3Dpz5OGdP-WFD4EH9v2XGH2t0JggDfqGKIHNebi4HV-zLEJKpMlerCKspEFnxaHvLewJf9OdCLa3wQ3SaO6PONILAZ25pmJWVaNu0JbRXv0ZCvcrXuLQOr-AL44sqbHi8PsKn2riPYgRze0tQ21xGTyJf12DoTTQxU4C2LFhTlq8URGbLVksE4PMf7rRoflNdVIDDigiqKFM4VG20hN7e6PcwePXBfA7pVvkg4JQ0bs1XaNofQQMDU0xs94Fihc5GH72YN3FjWur8ogJhvFimYJv7pCBGjBdkbICluqkyQr1poauB93UiNou5BHIcixx3fvY386vXOInEIjk_0_DL8dgI2HKI-J66PWuPvq75YkdvzjlWLlI-l0PFJ-vfkCuCJ5Mh69JJA1B_MZsIkP_StsDu1_jZnm6LJVMIQmLrfLdaRHlcL-IMEOm-khraGKA2_KD]--></g></svg>