<?xml version="1.0" encoding="UTF-8" standalone="no"?><svg xmlns="http://www.w3.org/2000/svg" xmlns:xlink="http://www.w3.org/1999/xlink" contentStyleType="text/css" height="487px" preserveAspectRatio="none" style="width:629px;height:487px;background:#FFFFFF;" version="1.1" viewBox="0 0 629 487" width="629px" zoomAndPan="magnify"><defs/><g><!--class Users--><g id="elem_Users"><rect codeLine="1" fill="#F1F1F1" height="241.7031" id="Users" rx="2.5" ry="2.5" style="stroke:#181818;stroke-width:0.5;" width="205" x="7" y="7"/><ellipse cx="87.25" cy="23" fill="#ADD1B2" rx="11" ry="11" style="stroke:#181818;stroke-width:1.0;"/><path d="M90.0156,18.875 Q90.1719,18.6563 90.3594,18.5469 Q90.5469,18.4375 90.7656,18.4375 Q91.1406,18.4375 91.375,18.6953 Q91.6094,18.9531 91.6094,19.5625 L91.6094,21.0156 Q91.6094,21.625 91.375,21.8906 Q91.1406,22.1563 90.7656,22.1563 Q90.4219,22.1563 90.2188,21.9531 Q90.0156,21.7656 89.9063,21.25 Q89.8594,20.8906 89.6719,20.7031 Q89.3438,20.3281 88.7344,20.1094 Q88.125,19.8906 87.5,19.8906 Q86.7344,19.8906 86.1016,20.2188 Q85.4688,20.5469 84.9766,21.2969 Q84.4844,22.0469 84.4844,23.0781 L84.4844,24.1719 Q84.4844,25.4063 85.375,26.2266 Q86.2656,27.0469 87.8594,27.0469 Q88.7969,27.0469 89.4531,26.7969 Q89.8438,26.6406 90.2656,26.2031 Q90.5313,25.9375 90.6797,25.8594 Q90.8281,25.7813 91.0313,25.7813 Q91.3594,25.7813 91.6172,26.0391 Q91.875,26.2969 91.875,26.6406 Q91.875,26.9844 91.5313,27.3906 Q91.0313,27.9688 90.2344,28.2969 Q89.1563,28.75 87.8594,28.75 Q86.3438,28.75 85.1406,28.125 Q84.1563,27.625 83.4688,26.5547 Q82.7813,25.4844 82.7813,24.2031 L82.7813,23.0469 Q82.7813,21.7188 83.3984,20.5703 Q84.0156,19.4219 85.1094,18.8047 Q86.2031,18.1875 87.4375,18.1875 Q88.1719,18.1875 88.8203,18.3516 Q89.4688,18.5156 90.0156,18.875 Z " fill="#000000"/><text fill="#000000" font-family="sans-serif" font-size="14" lengthAdjust="spacing" textLength="36" x="107.75" y="28.7285">Users</text><line style="stroke:#181818;stroke-width:0.5;" x1="8" x2="211" y1="39" y2="39"/><ellipse cx="18" cy="53.3047" fill="none" rx="3" ry="3" style="stroke:#038048;stroke-width:1.0;"/><text fill="#000000" font-family="sans-serif" font-size="14" lengthAdjust="spacing" textLength="53" x="27" y="57.5332">id: bigint</text><ellipse cx="18" cy="70.9141" fill="none" rx="3" ry="3" style="stroke:#038048;stroke-width:1.0;"/><text fill="#000000" font-family="sans-serif" font-size="14" lengthAdjust="spacing" textLength="78" x="27" y="75.1426">name: string</text><ellipse cx="18" cy="88.5234" fill="none" rx="3" ry="3" style="stroke:#038048;stroke-width:1.0;"/><text fill="#000000" font-family="sans-serif" font-size="14" lengthAdjust="spacing" textLength="76" x="27" y="92.752">email: string</text><ellipse cx="18" cy="106.1328" fill="none" rx="3" ry="3" style="stroke:#038048;stroke-width:1.0;"/><text fill="#000000" font-family="sans-serif" font-size="14" lengthAdjust="spacing" textLength="179" x="27" y="110.3613">email_verified_at: timestamp</text><ellipse cx="18" cy="123.7422" fill="none" rx="3" ry="3" style="stroke:#038048;stroke-width:1.0;"/><text fill="#000000" font-family="sans-serif" font-size="14" lengthAdjust="spacing" textLength="103" x="27" y="127.9707">password: string</text><ellipse cx="18" cy="141.3516" fill="none" rx="3" ry="3" style="stroke:#038048;stroke-width:1.0;"/><text fill="#000000" font-family="sans-serif" font-size="14" lengthAdjust="spacing" textLength="94" x="27" y="145.5801">address: string</text><ellipse cx="18" cy="158.9609" fill="none" rx="3" ry="3" style="stroke:#038048;stroke-width:1.0;"/><text fill="#000000" font-family="sans-serif" font-size="14" lengthAdjust="spacing" textLength="83" x="27" y="163.1895">phone: string</text><ellipse cx="18" cy="176.5703" fill="none" rx="3" ry="3" style="stroke:#038048;stroke-width:1.0;"/><text fill="#000000" font-family="sans-serif" font-size="14" lengthAdjust="spacing" textLength="115" x="27" y="180.7988">is_admin: boolean</text><ellipse cx="18" cy="194.1797" fill="none" rx="3" ry="3" style="stroke:#038048;stroke-width:1.0;"/><text fill="#000000" font-family="sans-serif" font-size="14" lengthAdjust="spacing" textLength="150" x="27" y="198.4082">remember_token: string</text><ellipse cx="18" cy="211.7891" fill="none" rx="3" ry="3" style="stroke:#038048;stroke-width:1.0;"/><text fill="#000000" font-family="sans-serif" font-size="14" lengthAdjust="spacing" textLength="140" x="27" y="216.0176">created_at: timestamp</text><ellipse cx="18" cy="229.3984" fill="none" rx="3" ry="3" style="stroke:#038048;stroke-width:1.0;"/><text fill="#000000" font-family="sans-serif" font-size="14" lengthAdjust="spacing" textLength="144" x="27" y="233.627">updated_at: timestamp</text><line style="stroke:#181818;stroke-width:0.5;" x1="8" x2="211" y1="240.7031" y2="240.7031"/></g><!--class Sessions--><g id="elem_Sessions"><rect codeLine="15" fill="#F1F1F1" height="153.6563" id="Sessions" rx="2.5" ry="2.5" style="stroke:#181818;stroke-width:0.5;" width="151" x="34" y="327"/><ellipse cx="76.9" cy="343" fill="#ADD1B2" rx="11" ry="11" style="stroke:#181818;stroke-width:1.0;"/><path d="M79.6656,338.875 Q79.8219,338.6563 80.0094,338.5469 Q80.1969,338.4375 80.4156,338.4375 Q80.7906,338.4375 81.025,338.6953 Q81.2594,338.9531 81.2594,339.5625 L81.2594,341.0156 Q81.2594,341.625 81.025,341.8906 Q80.7906,342.1563 80.4156,342.1563 Q80.0719,342.1563 79.8688,341.9531 Q79.6656,341.7656 79.5563,341.25 Q79.5094,340.8906 79.3219,340.7031 Q78.9938,340.3281 78.3844,340.1094 Q77.775,339.8906 77.15,339.8906 Q76.3844,339.8906 75.7516,340.2188 Q75.1188,340.5469 74.6266,341.2969 Q74.1344,342.0469 74.1344,343.0781 L74.1344,344.1719 Q74.1344,345.4063 75.025,346.2266 Q75.9156,347.0469 77.5094,347.0469 Q78.4469,347.0469 79.1031,346.7969 Q79.4938,346.6406 79.9156,346.2031 Q80.1813,345.9375 80.3297,345.8594 Q80.4781,345.7813 80.6813,345.7813 Q81.0094,345.7813 81.2672,346.0391 Q81.525,346.2969 81.525,346.6406 Q81.525,346.9844 81.1813,347.3906 Q80.6813,347.9688 79.8844,348.2969 Q78.8063,348.75 77.5094,348.75 Q75.9938,348.75 74.7906,348.125 Q73.8063,347.625 73.1188,346.5547 Q72.4313,345.4844 72.4313,344.2031 L72.4313,343.0469 Q72.4313,341.7188 73.0484,340.5703 Q73.6656,339.4219 74.7594,338.8047 Q75.8531,338.1875 77.0875,338.1875 Q77.8219,338.1875 78.4703,338.3516 Q79.1188,338.5156 79.6656,338.875 Z " fill="#000000"/><text fill="#000000" font-family="sans-serif" font-size="14" lengthAdjust="spacing" textLength="57" x="97.1" y="348.7285">Sessions</text><line style="stroke:#181818;stroke-width:0.5;" x1="35" x2="184" y1="359" y2="359"/><ellipse cx="45" cy="373.3047" fill="none" rx="3" ry="3" style="stroke:#038048;stroke-width:1.0;"/><text fill="#000000" font-family="sans-serif" font-size="14" lengthAdjust="spacing" textLength="113" x="54" y="377.5332">ip_address: string</text><ellipse cx="45" cy="390.9141" fill="none" rx="3" ry="3" style="stroke:#038048;stroke-width:1.0;"/><text fill="#000000" font-family="sans-serif" font-size="14" lengthAdjust="spacing" textLength="102" x="54" y="395.1426">user_agent: text</text><ellipse cx="45" cy="408.5234" fill="none" rx="3" ry="3" style="stroke:#038048;stroke-width:1.0;"/><text fill="#000000" font-family="sans-serif" font-size="14" lengthAdjust="spacing" textLength="112" x="54" y="412.752">payload: longText</text><ellipse cx="45" cy="426.1328" fill="none" rx="3" ry="3" style="stroke:#038048;stroke-width:1.0;"/><text fill="#000000" font-family="sans-serif" font-size="14" lengthAdjust="spacing" textLength="125" x="54" y="430.3613">last_activity: integer</text><line style="stroke:#181818;stroke-width:0.5;" x1="35" x2="184" y1="437.4375" y2="437.4375"/><ellipse cx="45" cy="451.7422" fill="#84BE84" rx="3" ry="3" style="stroke:#038048;stroke-width:1.0;"/><text fill="#000000" font-family="sans-serif" font-size="14" lengthAdjust="spacing" textLength="86" x="54" y="455.9707">id: string (PK)</text><ellipse cx="45" cy="469.3516" fill="#84BE84" rx="3" ry="3" style="stroke:#038048;stroke-width:1.0;"/><text fill="#000000" font-family="sans-serif" font-size="14" lengthAdjust="spacing" textLength="121" x="54" y="473.5801">user_id: bigint (FK)</text></g><!--class Jewelleries--><g id="elem_Jewelleries"><rect codeLine="24" fill="#F1F1F1" height="171.2656" id="Jewelleries" rx="2.5" ry="2.5" style="stroke:#181818;stroke-width:0.5;" width="170" x="247.5" y="42.5"/><ellipse cx="294.25" cy="58.5" fill="#ADD1B2" rx="11" ry="11" style="stroke:#181818;stroke-width:1.0;"/><path d="M297.0156,54.375 Q297.1719,54.1563 297.3594,54.0469 Q297.5469,53.9375 297.7656,53.9375 Q298.1406,53.9375 298.375,54.1953 Q298.6094,54.4531 298.6094,55.0625 L298.6094,56.5156 Q298.6094,57.125 298.375,57.3906 Q298.1406,57.6563 297.7656,57.6563 Q297.4219,57.6563 297.2188,57.4531 Q297.0156,57.2656 296.9063,56.75 Q296.8594,56.3906 296.6719,56.2031 Q296.3438,55.8281 295.7344,55.6094 Q295.125,55.3906 294.5,55.3906 Q293.7344,55.3906 293.1016,55.7188 Q292.4688,56.0469 291.9766,56.7969 Q291.4844,57.5469 291.4844,58.5781 L291.4844,59.6719 Q291.4844,60.9063 292.375,61.7266 Q293.2656,62.5469 294.8594,62.5469 Q295.7969,62.5469 296.4531,62.2969 Q296.8438,62.1406 297.2656,61.7031 Q297.5313,61.4375 297.6797,61.3594 Q297.8281,61.2813 298.0313,61.2813 Q298.3594,61.2813 298.6172,61.5391 Q298.875,61.7969 298.875,62.1406 Q298.875,62.4844 298.5313,62.8906 Q298.0313,63.4688 297.2344,63.7969 Q296.1563,64.25 294.8594,64.25 Q293.3438,64.25 292.1406,63.625 Q291.1563,63.125 290.4688,62.0547 Q289.7813,60.9844 289.7813,59.7031 L289.7813,58.5469 Q289.7813,57.2188 290.3984,56.0703 Q291.0156,54.9219 292.1094,54.3047 Q293.2031,53.6875 294.4375,53.6875 Q295.1719,53.6875 295.8203,53.8516 Q296.4688,54.0156 297.0156,54.375 Z " fill="#000000"/><text fill="#000000" font-family="sans-serif" font-size="14" lengthAdjust="spacing" textLength="68" x="314.75" y="64.2285">Jewelleries</text><line style="stroke:#181818;stroke-width:0.5;" x1="248.5" x2="416.5" y1="74.5" y2="74.5"/><ellipse cx="258.5" cy="88.8047" fill="none" rx="3" ry="3" style="stroke:#038048;stroke-width:1.0;"/><text fill="#000000" font-family="sans-serif" font-size="14" lengthAdjust="spacing" textLength="53" x="267.5" y="93.0332">id: bigint</text><ellipse cx="258.5" cy="106.4141" fill="none" rx="3" ry="3" style="stroke:#038048;stroke-width:1.0;"/><text fill="#000000" font-family="sans-serif" font-size="14" lengthAdjust="spacing" textLength="78" x="267.5" y="110.6426">name: string</text><ellipse cx="258.5" cy="124.0234" fill="none" rx="3" ry="3" style="stroke:#038048;stroke-width:1.0;"/><text fill="#000000" font-family="sans-serif" font-size="14" lengthAdjust="spacing" textLength="99" x="267.5" y="128.252">description: text</text><ellipse cx="258.5" cy="141.6328" fill="none" rx="3" ry="3" style="stroke:#038048;stroke-width:1.0;"/><text fill="#000000" font-family="sans-serif" font-size="14" lengthAdjust="spacing" textLength="83" x="267.5" y="145.8613">price: integer</text><ellipse cx="258.5" cy="159.2422" fill="none" rx="3" ry="3" style="stroke:#038048;stroke-width:1.0;"/><text fill="#000000" font-family="sans-serif" font-size="14" lengthAdjust="spacing" textLength="102" x="267.5" y="163.4707">quantity: integer</text><ellipse cx="258.5" cy="176.8516" fill="none" rx="3" ry="3" style="stroke:#038048;stroke-width:1.0;"/><text fill="#000000" font-family="sans-serif" font-size="14" lengthAdjust="spacing" textLength="140" x="267.5" y="181.0801">created_at: timestamp</text><ellipse cx="258.5" cy="194.4609" fill="none" rx="3" ry="3" style="stroke:#038048;stroke-width:1.0;"/><text fill="#000000" font-family="sans-serif" font-size="14" lengthAdjust="spacing" textLength="144" x="267.5" y="198.6895">updated_at: timestamp</text><line style="stroke:#181818;stroke-width:0.5;" x1="248.5" x2="416.5" y1="205.7656" y2="205.7656"/></g><!--class Stores--><g id="elem_Stores"><rect codeLine="34" fill="#F1F1F1" height="171.2656" id="Stores" rx="2.5" ry="2.5" style="stroke:#181818;stroke-width:0.5;" width="170" x="452.5" y="42.5"/><ellipse cx="512.75" cy="58.5" fill="#ADD1B2" rx="11" ry="11" style="stroke:#181818;stroke-width:1.0;"/><path d="M515.5156,54.375 Q515.6719,54.1563 515.8594,54.0469 Q516.0469,53.9375 516.2656,53.9375 Q516.6406,53.9375 516.875,54.1953 Q517.1094,54.4531 517.1094,55.0625 L517.1094,56.5156 Q517.1094,57.125 516.875,57.3906 Q516.6406,57.6563 516.2656,57.6563 Q515.9219,57.6563 515.7188,57.4531 Q515.5156,57.2656 515.4063,56.75 Q515.3594,56.3906 515.1719,56.2031 Q514.8438,55.8281 514.2344,55.6094 Q513.625,55.3906 513,55.3906 Q512.2344,55.3906 511.6016,55.7188 Q510.9688,56.0469 510.4766,56.7969 Q509.9844,57.5469 509.9844,58.5781 L509.9844,59.6719 Q509.9844,60.9063 510.875,61.7266 Q511.7656,62.5469 513.3594,62.5469 Q514.2969,62.5469 514.9531,62.2969 Q515.3438,62.1406 515.7656,61.7031 Q516.0313,61.4375 516.1797,61.3594 Q516.3281,61.2813 516.5313,61.2813 Q516.8594,61.2813 517.1172,61.5391 Q517.375,61.7969 517.375,62.1406 Q517.375,62.4844 517.0313,62.8906 Q516.5313,63.4688 515.7344,63.7969 Q514.6563,64.25 513.3594,64.25 Q511.8438,64.25 510.6406,63.625 Q509.6563,63.125 508.9688,62.0547 Q508.2813,60.9844 508.2813,59.7031 L508.2813,58.5469 Q508.2813,57.2188 508.8984,56.0703 Q509.5156,54.9219 510.6094,54.3047 Q511.7031,53.6875 512.9375,53.6875 Q513.6719,53.6875 514.3203,53.8516 Q514.9688,54.0156 515.5156,54.375 Z " fill="#000000"/><text fill="#000000" font-family="sans-serif" font-size="14" lengthAdjust="spacing" textLength="41" x="533.25" y="64.2285">Stores</text><line style="stroke:#181818;stroke-width:0.5;" x1="453.5" x2="621.5" y1="74.5" y2="74.5"/><ellipse cx="463.5" cy="88.8047" fill="none" rx="3" ry="3" style="stroke:#038048;stroke-width:1.0;"/><text fill="#000000" font-family="sans-serif" font-size="14" lengthAdjust="spacing" textLength="53" x="472.5" y="93.0332">id: bigint</text><ellipse cx="463.5" cy="106.4141" fill="none" rx="3" ry="3" style="stroke:#038048;stroke-width:1.0;"/><text fill="#000000" font-family="sans-serif" font-size="14" lengthAdjust="spacing" textLength="78" x="472.5" y="110.6426">name: string</text><ellipse cx="463.5" cy="124.0234" fill="none" rx="3" ry="3" style="stroke:#038048;stroke-width:1.0;"/><text fill="#000000" font-family="sans-serif" font-size="14" lengthAdjust="spacing" textLength="94" x="472.5" y="128.252">address: string</text><ellipse cx="463.5" cy="141.6328" fill="none" rx="3" ry="3" style="stroke:#038048;stroke-width:1.0;"/><text fill="#000000" font-family="sans-serif" font-size="14" lengthAdjust="spacing" textLength="83" x="472.5" y="145.8613">phone: string</text><ellipse cx="463.5" cy="159.2422" fill="none" rx="3" ry="3" style="stroke:#038048;stroke-width:1.0;"/><text fill="#000000" font-family="sans-serif" font-size="14" lengthAdjust="spacing" textLength="76" x="472.5" y="163.4707">email: string</text><ellipse cx="463.5" cy="176.8516" fill="none" rx="3" ry="3" style="stroke:#038048;stroke-width:1.0;"/><text fill="#000000" font-family="sans-serif" font-size="14" lengthAdjust="spacing" textLength="140" x="472.5" y="181.0801">created_at: timestamp</text><ellipse cx="463.5" cy="194.4609" fill="none" rx="3" ry="3" style="stroke:#038048;stroke-width:1.0;"/><text fill="#000000" font-family="sans-serif" font-size="14" lengthAdjust="spacing" textLength="144" x="472.5" y="198.6895">updated_at: timestamp</text><line style="stroke:#181818;stroke-width:0.5;" x1="453.5" x2="621.5" y1="205.7656" y2="205.7656"/></g><!--link Users to Sessions--><g id="link_Users_Sessions"><path codeLine="44" d="M42.03,249.17 C39.08,265.1 39.02,281.33 43.5,297 C46.39,307.11 50.55,317.19 55.41,326.9 " fill="none" id="Users-Sessions" style="stroke:#181818;stroke-width:1.0;"/><text fill="#000000" font-family="sans-serif" font-size="13" lengthAdjust="spacing" textLength="84" x="44.5" y="293.4951">user_sessions</text><text fill="#000000" font-family="sans-serif" font-size="13" lengthAdjust="spacing" textLength="7" x="30.927" y="270.1515">1</text><text fill="#000000" font-family="sans-serif" font-size="13" lengthAdjust="spacing" textLength="20" x="29.1011" y="316.0523">0..*</text></g><!--link Sessions to Users--><g id="link_Sessions_Users"><path codeLine="45" d="M128.85,326.92 C130.77,316.91 132.41,306.75 133.5,297 C135.23,281.48 135.22,265.19 134.11,249.1 " fill="none" id="Sessions-Users" style="stroke:#181818;stroke-width:1.0;"/><text fill="#000000" font-family="sans-serif" font-size="13" lengthAdjust="spacing" textLength="60" x="135.5" y="293.4951">references</text><text fill="#000000" font-family="sans-serif" font-size="13" lengthAdjust="spacing" textLength="42" x="86.6876" y="316.0743">user_id</text></g><!--SRC=[fLBBJiD03BpdAwoS2gWLNFC17E2219nNsrqtMEmZUDsM2l7lR1uYgPf344UFrpDZpngdKuBNX9pWgm2u8Ll1bceAqbP1UwmW2LEesngz9dS1g0CoxGYjqbA1aCSasZTjlydqnyXsEgEjPKnf2ZLlCPm9KLBQUWhPJ8mETMX1Hez-YwmalcEOFZUCMkRqzusTQNmNXUaMVyu-A8R9xZqdh9uUhxhvV1artWHMzprEZPfPetkjQmoj6dvAVu6JYpepk1Zgbm7CugAq4JgGd2h8p5WZZxuUy8ZEvQlYebWi9iFKI5vb8inaSEJEoCTU1paJ_C_f9F8oTqlollXOVxVLV-BoheJr6ihRpUQw7FEjeCic3NNnsoY7XBkfdg82nXqo1eFf1m00]--></g></svg>