<?xml version="1.0" encoding="us-ascii" standalone="no"?><svg xmlns="http://www.w3.org/2000/svg" xmlns:xlink="http://www.w3.org/1999/xlink" contentStyleType="text/css" height="1342px" preserveAspectRatio="none" style="width:1125px;height:1342px;background:#FFFFFF;" version="1.1" viewBox="0 0 1125 1342" width="1125px" zoomAndPan="magnify"><defs/><g><!--cluster User & Shop Management--><g id="cluster_User &amp; Shop Management"><rect fill="none" height="418" rx="2.5" ry="2.5" style="stroke:#181818;stroke-width:1.0;" width="262" x="413" y="450"/><text fill="#000000" font-family="sans-serif" font-size="14" font-weight="bold" lengthAdjust="spacing" textLength="182" x="453" y="466.5332">User &amp; Shop Management</text></g><!--cluster Authentication--><g id="cluster_Authentication"><path d="M452.5,494 L555.5,494 A3.75,3.75 0 0 1 558,496.5 L565,517.6094 L634.5,517.6094 A2.5,2.5 0 0 1 637,520.1094 L637,663.5 A2.5,2.5 0 0 1 634.5,666 L452.5,666 A2.5,2.5 0 0 1 450,663.5 L450,496.5 A2.5,2.5 0 0 1 452.5,494 " fill="none" style="stroke:#000000;stroke-width:1.5;"/><line style="stroke:#000000;stroke-width:1.5;" x1="450" x2="565" y1="517.6094" y2="517.6094"/><text fill="#000000" font-family="sans-serif" font-size="14" font-weight="bold" lengthAdjust="spacing" textLength="102" x="454" y="510.5332">Authentication</text></g><!--cluster User and Shop Management--><g id="cluster_User and Shop Management"><path d="M439.5,690 L638.5,690 A3.75,3.75 0 0 1 641,692.5 L648,713.6094 L648.5,713.6094 A2.5,2.5 0 0 1 651,716.1094 L651,841.5 A2.5,2.5 0 0 1 648.5,844 L439.5,844 A2.5,2.5 0 0 1 437,841.5 L437,692.5 A2.5,2.5 0 0 1 439.5,690 " fill="none" style="stroke:#000000;stroke-width:1.5;"/><line style="stroke:#000000;stroke-width:1.5;" x1="437" x2="648" y1="713.6094" y2="713.6094"/><text fill="#000000" font-family="sans-serif" font-size="14" font-weight="bold" lengthAdjust="spacing" textLength="198" x="441" y="706.5332">User and Shop Management</text></g><!--cluster Buyer Section--><g id="cluster_Buyer Section"><rect fill="none" height="539" rx="2.5" ry="2.5" style="stroke:#181818;stroke-width:1.0;" width="275" x="7" y="346"/><text fill="#000000" font-family="sans-serif" font-size="14" font-weight="bold" lengthAdjust="spacing" textLength="98" x="95.5" y="362.5332">Buyer Section</text></g><!--cluster Jewellery Buyer--><g id="cluster_Jewellery Buyer"><path d="M46,390 L159,390 A3.75,3.75 0 0 1 161.5,392.5 L168.5,413.6094 L243,413.6094 A2.5,2.5 0 0 1 245.5,416.1094 L245.5,549.5 A2.5,2.5 0 0 1 243,552 L46,552 A2.5,2.5 0 0 1 43.5,549.5 L43.5,392.5 A2.5,2.5 0 0 1 46,390 " fill="none" style="stroke:#000000;stroke-width:1.5;"/><line style="stroke:#000000;stroke-width:1.5;" x1="43.5" x2="168.5" y1="413.6094" y2="413.6094"/><text fill="#000000" font-family="sans-serif" font-size="14" font-weight="bold" lengthAdjust="spacing" textLength="112" x="47.5" y="406.5332">Jewellery Buyer</text></g><!--cluster Transaction Buyer--><g id="cluster_Transaction Buyer"><path d="M33.5,576 L161.5,576 A3.75,3.75 0 0 1 164,578.5 L171,599.6094 L255.5,599.6094 A2.5,2.5 0 0 1 258,602.1094 L258,669.5 A2.5,2.5 0 0 1 255.5,672 L33.5,672 A2.5,2.5 0 0 1 31,669.5 L31,578.5 A2.5,2.5 0 0 1 33.5,576 " fill="none" style="stroke:#000000;stroke-width:1.5;"/><line style="stroke:#000000;stroke-width:1.5;" x1="31" x2="171" y1="599.6094" y2="599.6094"/><text fill="#000000" font-family="sans-serif" font-size="14" font-weight="bold" lengthAdjust="spacing" textLength="127" x="35" y="592.5332">Transaction Buyer</text></g><!--cluster Buyback Buyer--><g id="cluster_Buyback Buyer"><path d="M43,696 L148,696 A3.75,3.75 0 0 1 150.5,698.5 L157.5,719.6094 L246,719.6094 A2.5,2.5 0 0 1 248.5,722.1094 L248.5,858.5 A2.5,2.5 0 0 1 246,861 L43,861 A2.5,2.5 0 0 1 40.5,858.5 L40.5,698.5 A2.5,2.5 0 0 1 43,696 " fill="none" style="stroke:#000000;stroke-width:1.5;"/><line style="stroke:#000000;stroke-width:1.5;" x1="40.5" x2="157.5" y1="719.6094" y2="719.6094"/><text fill="#000000" font-family="sans-serif" font-size="14" font-weight="bold" lengthAdjust="spacing" textLength="104" x="44.5" y="712.5332">Buyback Buyer</text></g><!--cluster Seller Section--><g id="cluster_Seller Section"><rect fill="none" height="1329" rx="2.5" ry="2.5" style="stroke:#181818;stroke-width:1.0;" width="314" x="805" y="7"/><text fill="#000000" font-family="sans-serif" font-size="14" font-weight="bold" lengthAdjust="spacing" textLength="98" x="913" y="23.5332">Seller Section</text></g><!--cluster Jewellery Seller--><g id="cluster_Jewellery Seller"><path d="M846.5,51 L959.5,51 A3.75,3.75 0 0 1 962,53.5 L969,74.6094 L1077.5,74.6094 A2.5,2.5 0 0 1 1080,77.1094 L1080,381.5 A2.5,2.5 0 0 1 1077.5,384 L846.5,384 A2.5,2.5 0 0 1 844,381.5 L844,53.5 A2.5,2.5 0 0 1 846.5,51 " fill="none" style="stroke:#000000;stroke-width:1.5;"/><line style="stroke:#000000;stroke-width:1.5;" x1="844" x2="969" y1="74.6094" y2="74.6094"/><text fill="#000000" font-family="sans-serif" font-size="14" font-weight="bold" lengthAdjust="spacing" textLength="112" x="848" y="67.5332">Jewellery Seller</text></g><!--cluster Transaction Seller--><g id="cluster_Transaction Seller"><path d="M855.5,408 L983.5,408 A3.75,3.75 0 0 1 986,410.5 L993,431.6094 L1068.5,431.6094 A2.5,2.5 0 0 1 1071,434.1094 L1071,950.5 A2.5,2.5 0 0 1 1068.5,953 L855.5,953 A2.5,2.5 0 0 1 853,950.5 L853,410.5 A2.5,2.5 0 0 1 855.5,408 " fill="none" style="stroke:#000000;stroke-width:1.5;"/><line style="stroke:#000000;stroke-width:1.5;" x1="853" x2="993" y1="431.6094" y2="431.6094"/><text fill="#000000" font-family="sans-serif" font-size="14" font-weight="bold" lengthAdjust="spacing" textLength="127" x="857" y="424.5332">Transaction Seller</text></g><!--cluster Buyback Seller--><g id="cluster_Buyback Seller"><path d="M831.5,977 L936.5,977 A3.75,3.75 0 0 1 939,979.5 L946,1000.6094 L1092.5,1000.6094 A2.5,2.5 0 0 1 1095,1003.1094 L1095,1309.5 A2.5,2.5 0 0 1 1092.5,1312 L831.5,1312 A2.5,2.5 0 0 1 829,1309.5 L829,979.5 A2.5,2.5 0 0 1 831.5,977 " fill="none" style="stroke:#000000;stroke-width:1.5;"/><line style="stroke:#000000;stroke-width:1.5;" x1="829" x2="946" y1="1000.6094" y2="1000.6094"/><text fill="#000000" font-family="sans-serif" font-size="14" font-weight="bold" lengthAdjust="spacing" textLength="104" x="833" y="993.5332">Buyback Seller</text></g><g id="elem_UC_Register"><ellipse cx="543.5069" cy="547.9014" fill="#F1F1F1" rx="77.5069" ry="17.9014" style="stroke:#181818;stroke-width:0.5;"/><text fill="#000000" font-family="sans-serif" font-size="14" lengthAdjust="spacing" textLength="108" x="487.3567" y="552.216">Register Account</text></g><g id="elem_UC_Login"><ellipse cx="543.734" cy="633.9517" fill="#F1F1F1" rx="36.234" ry="15.4517" style="stroke:#181818;stroke-width:0.5;"/><text fill="#000000" font-family="sans-serif" font-size="14" lengthAdjust="spacing" textLength="35" x="526.234" y="637.6802">Login</text></g><g id="elem_UC_EditProfile"><ellipse cx="543.6685" cy="742.0838" fill="#F1F1F1" rx="60.1685" ry="15.5838" style="stroke:#181818;stroke-width:0.5;"/><text fill="#000000" font-family="sans-serif" font-size="14" lengthAdjust="spacing" textLength="68" x="506.6685" y="746.6004">Edit Profile</text></g><g id="elem_UC_EditShopProfile"><ellipse cx="543.355" cy="810.171" fill="#F1F1F1" rx="76.355" ry="17.671" style="stroke:#181818;stroke-width:0.5;"/><text fill="#000000" font-family="sans-serif" font-size="14" lengthAdjust="spacing" textLength="105" x="488.1233" y="814.6255">Edit Shop Profile</text></g><g id="elem_UC_ViewList"><ellipse cx="144.355" cy="444.171" fill="#F1F1F1" rx="76.355" ry="17.671" style="stroke:#181818;stroke-width:0.5;"/><text fill="#000000" font-family="sans-serif" font-size="14" lengthAdjust="spacing" textLength="105" x="89.1233" y="448.6255">View Jewelry List</text></g><g id="elem_UC_ViewDetails"><ellipse cx="144.3478" cy="515.8696" fill="#F1F1F1" rx="84.8478" ry="19.3696" style="stroke:#181818;stroke-width:0.5;"/><text fill="#000000" font-family="sans-serif" font-size="14" lengthAdjust="spacing" textLength="126" x="81.3478" y="519.5981">View Jewelry Details</text></g><g id="elem_UC_TransactionHistory"><ellipse cx="144.3945" cy="633.8789" fill="#F1F1F1" rx="97.3945" ry="21.8789" style="stroke:#181818;stroke-width:0.5;"/><text fill="#000000" font-family="sans-serif" font-size="14" lengthAdjust="spacing" textLength="155" x="66.8945" y="637.6074">View Transaction History</text></g><g id="elem_UC_ViewBuybackListForBuyer"><ellipse cx="144.4775" cy="750.7955" fill="#F1F1F1" rx="79.4775" ry="18.2955" style="stroke:#181818;stroke-width:0.5;"/><text fill="#000000" font-family="sans-serif" font-size="14" lengthAdjust="spacing" textLength="113" x="86.756" y="754.8709">View Buyback List</text></g><g id="elem_UC_ViewBuybackDetailsForBuyer"><ellipse cx="144.7471" cy="825.0494" fill="#F1F1F1" rx="88.2471" ry="20.0494" style="stroke:#181818;stroke-width:0.5;"/><text fill="#000000" font-family="sans-serif" font-size="14" lengthAdjust="spacing" textLength="134" x="77.7471" y="828.7779">View Buyback Details</text></g><g id="elem_UC_ViewInfo"><ellipse cx="962.011" cy="109.2022" fill="#F1F1F1" rx="96.511" ry="21.7022" style="stroke:#181818;stroke-width:0.5;"/><text fill="#000000" font-family="sans-serif" font-size="14" lengthAdjust="spacing" textLength="153" x="885.511" y="112.9307">View Jewelry Information</text></g><g id="elem_UC_AddInfo"><ellipse cx="961.7514" cy="186.8503" fill="#F1F1F1" rx="94.7514" ry="21.3503" style="stroke:#181818;stroke-width:0.5;"/><text fill="#000000" font-family="sans-serif" font-size="14" lengthAdjust="spacing" textLength="149" x="887.2514" y="190.5788">Add Jewelry Information</text></g><g id="elem_UC_EditInfo"><ellipse cx="961.813" cy="264.7626" fill="#F1F1F1" rx="94.313" ry="21.2626" style="stroke:#181818;stroke-width:0.5;"/><text fill="#000000" font-family="sans-serif" font-size="14" lengthAdjust="spacing" textLength="148" x="887.813" y="268.4911">Edit Jewelry Information</text></g><g id="elem_UC_DeleteInfo"><ellipse cx="961.8449" cy="344.769" fill="#F1F1F1" rx="101.8449" ry="22.769" style="stroke:#181818;stroke-width:0.5;"/><text fill="#000000" font-family="sans-serif" font-size="14" lengthAdjust="spacing" textLength="165" x="879.3449" y="348.4975">Delete Jewelry Information</text></g><g id="elem_UC_BuyerHistory"><ellipse cx="962.097" cy="628.1194" fill="#F1F1F1" rx="81.097" ry="18.6194" style="stroke:#181818;stroke-width:0.5;"/><text fill="#000000" font-family="sans-serif" font-size="14" lengthAdjust="spacing" textLength="117" x="903.0843" y="631.9982">View Order History</text></g><g id="elem_UC_SellerAddItem"><ellipse cx="962.2256" cy="698.9451" fill="#F1F1F1" rx="75.2256" ry="17.4451" style="stroke:#181818;stroke-width:0.5;"/><text fill="#000000" font-family="sans-serif" font-size="14" lengthAdjust="spacing" textLength="102" x="908.2256" y="703.4617">Add Item to Cart</text></g><g id="elem_UC_SellerEditItem"><ellipse cx="961.981" cy="768.7962" fill="#F1F1F1" rx="74.481" ry="17.2962" style="stroke:#181818;stroke-width:0.5;"/><text fill="#000000" font-family="sans-serif" font-size="14" lengthAdjust="spacing" textLength="100" x="908.981" y="773.3128">Edit Item in Cart</text></g><g id="elem_UC_SellerDeleteItem"><ellipse cx="962.0017" cy="843.0003" fill="#F1F1F1" rx="93.0017" ry="21.0003" style="stroke:#181818;stroke-width:0.5;"/><text fill="#000000" font-family="sans-serif" font-size="14" lengthAdjust="spacing" textLength="145" x="889.5017" y="846.7289">Remove Item from Cart</text></g><g id="elem_UC_SellerViewCart"><ellipse cx="961.7516" cy="554.9503" fill="#F1F1F1" rx="82.7516" ry="18.9503" style="stroke:#181818;stroke-width:0.5;"/><text fill="#000000" font-family="sans-serif" font-size="14" lengthAdjust="spacing" textLength="121" x="901.2516" y="558.6788">View Cart Contents</text></g><g id="elem_UC_SellerConfirm"><ellipse cx="962.1926" cy="464.0385" fill="#F1F1F1" rx="85.6926" ry="19.5385" style="stroke:#181818;stroke-width:0.5;"/><text fill="#000000" font-family="sans-serif" font-size="14" lengthAdjust="spacing" textLength="128" x="898.1926" y="467.767">Confirm Transaction</text></g><g id="elem_UC_SellerViewOrders"><ellipse cx="962.0075" cy="918.2015" fill="#F1F1F1" rx="81.5075" ry="18.7015" style="stroke:#181818;stroke-width:0.5;"/><text fill="#000000" font-family="sans-serif" font-size="14" lengthAdjust="spacing" textLength="118" x="902.6675" y="922.0304">View Buyer Orders</text></g><g id="elem_UC_ViewBuybackListForSeller"><ellipse cx="961.9775" cy="1031.7955" fill="#F1F1F1" rx="79.4775" ry="18.2955" style="stroke:#181818;stroke-width:0.5;"/><text fill="#000000" font-family="sans-serif" font-size="14" lengthAdjust="spacing" textLength="113" x="904.256" y="1035.8709">View Buyback List</text></g><g id="elem_UC_ViewEditBuybackItem"><ellipse cx="961.8554" cy="1111.7711" fill="#F1F1F1" rx="116.8554" ry="25.7711" style="stroke:#181818;stroke-width:0.5;"/><text fill="#000000" font-family="sans-serif" font-size="14" lengthAdjust="spacing" textLength="198" x="862.8554" y="1115.4996">View Add or Edit Buyback Items</text></g><g id="elem_UC_ViewBuybackConfirmation"><ellipse cx="962.0397" cy="1196.8079" fill="#F1F1F1" rx="104.5397" ry="23.3079" style="stroke:#181818;stroke-width:0.5;"/><text fill="#000000" font-family="sans-serif" font-size="14" lengthAdjust="spacing" textLength="171" x="876.5397" y="1200.5365">View Buyback Confirmation</text></g><g id="elem_UC_ViewBuybackDetailsForSeller"><ellipse cx="962.2471" cy="1276.0494" fill="#F1F1F1" rx="88.2471" ry="20.0494" style="stroke:#181818;stroke-width:0.5;"/><text fill="#000000" font-family="sans-serif" font-size="14" lengthAdjust="spacing" textLength="134" x="895.2471" y="1279.7779">View Buyback Details</text></g><!--entity Buyer--><g id="elem_Buyer"><ellipse cx="347.5" cy="603.5" fill="#F1F1F1" rx="8" ry="8" style="stroke:#181818;stroke-width:0.5;"/><path d="M347.5,611.5 L347.5,638.5 M334.5,619.5 L360.5,619.5 M347.5,638.5 L334.5,653.5 M347.5,638.5 L360.5,653.5 " fill="none" style="stroke:#181818;stroke-width:0.5;"/><text fill="#000000" font-family="sans-serif" font-size="14" lengthAdjust="spacing" textLength="37" x="329" y="669.5332">Buyer</text></g><!--entity Seller--><g id="elem_Seller"><ellipse cx="740" cy="711.5" fill="#F1F1F1" rx="8" ry="8" style="stroke:#181818;stroke-width:0.5;"/><path d="M740,719.5 L740,746.5 M727,727.5 L753,727.5 M740,746.5 L727,761.5 M740,746.5 L753,761.5 " fill="none" style="stroke:#181818;stroke-width:0.5;"/><text fill="#000000" font-family="sans-serif" font-size="14" lengthAdjust="spacing" textLength="36" x="722" y="777.5332">Seller</text></g><!--link Buyer to UC_Register--><g id="link_Buyer_UC_Register"><path d="M366.16,622.69 C377.11,615.94 391.59,607.45 405,601 C435.55,586.31 471.31,572.63 498.7,562.85 " fill="none" id="Buyer-UC_Register" style="stroke:#181818;stroke-width:1.0;"/></g><!--link Buyer to UC_Login--><g id="link_Buyer_UC_Login"><path d="M366.06,634 C397.86,634 465.57,634 507.25,634 " fill="none" id="Buyer-UC_Login" style="stroke:#181818;stroke-width:1.0;"/></g><!--link Buyer to UC_EditProfile--><g id="link_Buyer_UC_EditProfile"><path d="M366.03,643.99 C377.18,650.33 391.92,658.68 405,666 C444.04,687.84 489.49,712.89 517.11,728.07 " fill="none" id="Buyer-UC_EditProfile" style="stroke:#181818;stroke-width:1.0;"/></g><!--link UC_ViewList to Buyer--><g id="link_UC_ViewList_Buyer"><path d="M219.27,447.92 C244.23,452.6 270.66,461.71 290,479 C323.21,508.68 336.92,559.49 342.57,594.82 " fill="none" id="UC_ViewList-Buyer" style="stroke:#181818;stroke-width:1.0;"/></g><!--link UC_ViewDetails to Buyer--><g id="link_UC_ViewDetails_Buyer"><path d="M179.55,533.78 C209.14,549.48 252.94,573.34 290,596 C303.31,604.14 317.92,613.99 328.94,621.62 " fill="none" id="UC_ViewDetails-Buyer" style="stroke:#181818;stroke-width:1.0;"/></g><!--link UC_TransactionHistory to Buyer--><g id="link_UC_TransactionHistory_Buyer"><path d="M242.17,634 C275.36,634 309.11,634 328.91,634 " fill="none" id="UC_TransactionHistory-Buyer" style="stroke:#181818;stroke-width:1.0;"/></g><!--link UC_ViewBuybackListForBuyer to Buyer--><g id="link_UC_ViewBuybackListForBuyer_Buyer"><path d="M178.41,734.11 C208.02,718.66 252.5,694.8 290,672 C303.33,663.89 317.94,654.04 328.96,646.4 " fill="none" id="UC_ViewBuybackListForBuyer-Buyer" style="stroke:#181818;stroke-width:1.0;"/></g><!--link UC_ViewBuybackDetailsForBuyer to Buyer--><g id="link_UC_ViewBuybackDetailsForBuyer_Buyer"><path d="M226.8,817.67 C249.47,812.15 272.62,802.78 290,787 C322.39,757.6 336.26,707.96 342.17,673.22 " fill="none" id="UC_ViewBuybackDetailsForBuyer-Buyer" style="stroke:#181818;stroke-width:1.0;"/></g><!--link UC_Login to Seller--><g id="link_UC_Login_Seller"><path d="M566.63,645.99 C594.03,660.87 642.08,687.08 683,710 C696.09,717.33 710.82,725.76 721.89,732.12 " fill="none" id="UC_Login-Seller" style="stroke:#181818;stroke-width:1.0;"/></g><!--link UC_EditProfile to Seller--><g id="link_UC_EditProfile_Seller"><path d="M603.65,742 C644.33,742 695.58,742 721.81,742 " fill="none" id="UC_EditProfile-Seller" style="stroke:#181818;stroke-width:1.0;"/></g><!--link UC_EditShopProfile to Seller--><g id="link_UC_EditShopProfile_Seller"><path d="M603.3,799.03 C628.38,793.37 657.65,785.42 683,775 C696.57,769.42 710.8,761 721.52,754.06 " fill="none" id="UC_EditShopProfile-Seller" style="stroke:#181818;stroke-width:1.0;"/></g><!--link Seller to UC_AddInfo--><g id="link_Seller_UC_AddInfo"><path d="M742.63,702.63 C747.75,588.12 765.04,261.11 797,226 C815.13,206.09 841.4,195.45 867.63,190 " fill="none" id="Seller-UC_AddInfo" style="stroke:#181818;stroke-width:1.0;"/></g><!--link Seller to UC_EditInfo--><g id="link_Seller_UC_EditInfo"><path d="M740.52,702.68 C740.19,606.36 744.66,362.22 797,304 C815.1,283.87 841.53,273.19 867.91,267.77 " fill="none" id="Seller-UC_EditInfo" style="stroke:#181818;stroke-width:1.0;"/></g><!--link Seller to UC_DeleteInfo--><g id="link_Seller_UC_DeleteInfo"><path d="M743.65,702.97 C749.36,628.79 764.99,471.05 797,428 C820.99,395.73 861.1,375.12 895.64,362.51 " fill="none" id="Seller-UC_DeleteInfo" style="stroke:#181818;stroke-width:1.0;"/></g><!--link Seller to UC_SellerAddItem--><g id="link_Seller_UC_SellerAddItem"><path d="M758.31,736.78 C767.14,734.22 778.09,731.22 788,729 C824.29,720.86 865.28,713.66 898.25,708.36 " fill="none" id="Seller-UC_SellerAddItem" style="stroke:#181818;stroke-width:1.0;"/></g><!--link Seller to UC_ViewInfo--><g id="link_Seller_UC_ViewInfo"><path d="M742.04,702.61 C745.72,576.61 759.97,189.23 797,148 C814.7,128.29 840.38,117.65 866.18,112.12 " fill="none" id="Seller-UC_ViewInfo" style="stroke:#181818;stroke-width:1.0;"/></g><!--link Seller to UC_SellerEditItem--><g id="link_Seller_UC_SellerEditItem"><path d="M758.26,744.12 C787.44,747.7 847.94,755.12 895.29,760.94 " fill="none" id="Seller-UC_SellerEditItem" style="stroke:#181818;stroke-width:1.0;"/></g><!--link Seller to UC_SellerDeleteItem--><g id="link_Seller_UC_SellerDeleteItem"><path d="M758.21,767.45 C768.12,780.24 781.65,794.91 797,804 C821.68,818.62 851.49,827.76 878.9,833.48 " fill="none" id="Seller-UC_SellerDeleteItem" style="stroke:#181818;stroke-width:1.0;"/></g><!--link Seller to UC_SellerViewCart--><g id="link_Seller_UC_SellerViewCart"><path d="M745.23,702.95 C751.04,668.72 764.75,620.15 797,592 C819.65,572.23 850.62,562.38 879.55,557.66 " fill="none" id="Seller-UC_SellerViewCart" style="stroke:#181818;stroke-width:1.0;"/></g><!--link Seller to UC_SellerConfirm--><g id="link_Seller_UC_SellerConfirm"><path d="M746.18,702.9 C754.44,646.1 772.23,544.65 797,518 C819.86,493.41 854.1,480 885.4,472.69 " fill="none" id="Seller-UC_SellerConfirm" style="stroke:#181818;stroke-width:1.0;"/></g><!--link Seller to UC_SellerViewOrders--><g id="link_Seller_UC_SellerViewOrders"><path d="M746.63,781.07 C753.25,812.63 767.37,855.8 797,881 C820.23,900.76 851.83,910.56 881.08,915.23 " fill="none" id="Seller-UC_SellerViewOrders" style="stroke:#181818;stroke-width:1.0;"/></g><!--link Seller to UC_ViewEditBuybackItem--><g id="link_Seller_UC_ViewEditBuybackItem"><path d="M742.57,781.07 C746.46,858.27 759.17,1026.52 797,1068 C812.1,1084.55 832.68,1095.16 854.17,1101.88 " fill="none" id="Seller-UC_ViewEditBuybackItem" style="stroke:#181818;stroke-width:1.0;"/></g><!--link Seller to UC_ViewBuybackConfirmation--><g id="link_Seller_UC_ViewBuybackConfirmation"><path d="M740.93,781.06 C741.58,873.15 748.22,1100.21 797,1155 C813.51,1173.55 836.99,1184.43 861.04,1190.68 " fill="none" id="Seller-UC_ViewBuybackConfirmation" style="stroke:#181818;stroke-width:1.0;"/></g><!--link Seller to UC_ViewBuybackListForSeller--><g id="link_Seller_UC_ViewBuybackListForSeller"><path d="M741.84,781.03 C744.79,827.04 756.08,903.48 797,953 C824.88,986.74 870.6,1007.1 906.69,1018.67 " fill="none" id="Seller-UC_ViewBuybackListForSeller" style="stroke:#181818;stroke-width:1.0;"/></g><!--link Seller to UC_ViewBuybackDetailsForSeller--><g id="link_Seller_UC_ViewBuybackDetailsForSeller"><path d="M742.86,781.4 C748.48,892.77 766.77,1204.07 797,1238 C816.34,1259.71 845.43,1270.29 873.75,1275.1 " fill="none" id="Seller-UC_ViewBuybackDetailsForSeller" style="stroke:#181818;stroke-width:1.0;"/></g><!--link UC_Register to UC_Login--><g id="link_UC_Register_UC_Login"><path d="M543.5,566.05 C543.5,581.49 543.5,597.48 543.5,612.23 " fill="none" id="UC_Register-to-UC_Login" style="stroke:#181818;stroke-width:1.0;stroke-dasharray:7.0,7.0;"/><polygon fill="#181818" points="543.5,618.23,547.5,609.23,543.5,613.23,539.5,609.23,543.5,618.23" style="stroke:#181818;stroke-width:1.0;"/><text fill="#000000" font-family="sans-serif" font-size="13" lengthAdjust="spacing" textLength="46" x="508.5" y="597.7451">extends</text></g><!--link UC_SellerConfirm to UC_SellerViewCart--><g id="link_UC_SellerConfirm_UC_SellerViewCart"><path d="M962,483.58 C962,499 962,514.36 962,529.7 " fill="none" id="UC_SellerConfirm-to-UC_SellerViewCart" style="stroke:#181818;stroke-width:1.0;stroke-dasharray:7.0,7.0;"/><polygon fill="#181818" points="962,535.7,966,526.7,962,530.7,958,526.7,962,535.7" style="stroke:#181818;stroke-width:1.0;"/><text fill="#000000" font-family="sans-serif" font-size="13" lengthAdjust="spacing" textLength="41" x="929.5" y="515.2451">include</text></g><!--SRC=[hLXBSzis4BxhL-puK4i7DuVUScZ6bjEnEkxK4pUvTY1o9Q7cGmDGTZGT__Vkua4294X9RNDnX7rzkzWNU0tFs40knLQ9alugp1fPLx1HTGa5RXfeQb1oksjcqQ-ETJQxXdlSo0f1P4sjDCWAcXs2Fke6ovavXAkxmn7LbV_rZ4N1FplPJWBMzQ7AXJh2XbY_QbJm0pplwZty9YgnnHAhPiR6HRKj4AxI75VmzmpetpKyYUo53esssmFPgHgP2UEbma8qcCD18sH2epOYUoTm5NDxZLRhLoTYr1uOWiAjr8qol2qZKGpNrHT39RRRB2F_29_Gy7Nvfp-VL5tKMvdG-SZ7Nj5Zo_C-ItXkeYIgtCPfh-gDfE2LRRp6OX3B3UERW8ovR6IrjT2TfI7upyG5JvRgVU2pfvx0Y78TkZ4lv0iMDc5iQYr631el4bRvFBJyFdi_8pbDKeFUOoOtCkFyfxlNON9QZcTRAkcS_1NV3EGZl4fySu6pLz4PYI-b4x5bDNuNNYLxK52YGRs1lrXQ7OSH-aRC5WvfVYHk7o4cyEzJLd9iX2mq6n5TM9mzaDmEfetUMmMXNNSqdjac1DSQgFGgRQy0TWIs9dqZIVr7m7f91DVZfaOS2oqzM4xlN41w27HC-aW0rdGCypKM4bwmN8j2BeA4cQ-ebzZczjCYTlhEoVwRbDahV9NreGCGHC1cQHkUaK1uw_sqSkTy_4kjxY8D5sLP0jb5m1AfvqYE4i4xhp_ONZJP81pBcHqYrQy3IsDTmetRqtSkA_fLslmHv4hJ5k-SV9GAwhSAA5UpbyM9IbvrciAGyl4O297dZA4YBMtB2F3CQVUm8CO0tERvb7qYJvdtamM_KoxoVn8WHgRAX56cJrdDiS3phTqpDqxPinojnMGtiUdGwsCdTg6maPsTJbmNlXLJjTOgHzeFIv5JIHvjLUgHFFgTUVijqzJVGw_XfhD8L6RUyC8gOAuDuXjRFlcd1R6h1cvWNpUyu8d2BG-PGc5kGvWqD80_155AvzpA6LgIKW_LneXJBfnw8oddmRhDEGrt9FTMJd1etAJUX7M5PVqQcZTB_oK0lh06j12Cy124oyS9666oP7N55s9w-oL0JCgmSLWw3J4AfYz3oHu6ihkHghGt7rR5V4qiETJsOjXuekyihNGux6FpZk5K15nzx0kHaSssGYWAifI5K9nZm-Buj1YVRCHbU1FXiETdD8d_O-SOTemOAhyojDqssBOpERud1EDkg8nBafIOwl00E06ZsSvKHroDxwLUt5tWO9mvUaZ-J_lFf5-NR2g1edXLCMsUbv2TtDFTOlE6MFcNEx_pklvFGZQ58fcPUyh3pKtqVesFxMiqFWjVTy6ZWgd-yq2yy_SemuKv8PhO9yUvUfjTo4ZEkzKizjxxPdZzPupOkHGfU5z6PFyV5oA_elIEsoMYTnuC-nub7ZyzOhk89ONQiP6a1lqyIMyxRPBg6-6egEjANVHzqlToSEXGlw0JBAbg7MUBItASRr1q9wijAh7FtsbUvJfY_GZjvo9qP9jqyn95nQCY_DW4fVaYfv3rcaz5i3bKfaweKpT7ReO5Yfp7Xo4lPa7Xmey_jmKB7xqz0hQgikAGOmzOOjRHzc4uDGp7CCpzS3CRbwJfndzfl7SZry29yiDXYZEAm3b3e-1kimorXkM1kaFfPv_lbntC99lcWVkqg-dMvXMYZPPv_beguT8q_AzDcHe5Njw8UoCMUO91du4_cbOdyBPkMRG6PViq9knkXZh4GMN462Fmfn7oPNo89kkJaXbsM6CNvdjBrOmC-RO9QdvGd10nm5u9MwqMQ8IzWsYAXmQMMnNRRzXSUP8H_mC0]--></g></svg>