<?xml version="1.0" encoding="UTF-8" standalone="no"?><svg xmlns="http://www.w3.org/2000/svg" xmlns:xlink="http://www.w3.org/1999/xlink" contentStyleType="text/css" height="1026px" preserveAspectRatio="none" style="width:1140px;height:1026px;background:#FFFFFF;" version="1.1" viewBox="0 0 1140 1026" width="1140px" zoomAndPan="magnify"><defs/><g><ellipse cx="562" cy="20" fill="#222222" rx="10" ry="10" style="stroke:#222222;stroke-width:1.0;"/><rect fill="none" height="396.9971" style="stroke:#000000;stroke-width:1.5;" width="661" x="236.5" y="40"/><path d="M344.5,40 L344.5,50.6094 L334.5,60.6094 L236.5,60.6094 " fill="none" style="stroke:#000000;stroke-width:1.5;"/><text fill="#000000" font-family="sans-serif" font-size="14" lengthAdjust="spacing" textLength="98" x="239.5" y="55.5332">Admin Interface</text><rect fill="#F1F1F1" height="35.0938" rx="12.5" ry="12.5" style="stroke:#181818;stroke-width:0.5;" width="123" x="500.5" y="77.6094"/><text fill="#000000" font-family="sans-serif" font-size="12" lengthAdjust="spacing" textLength="103" x="510.5" y="100.0664">View Jewellery List</text><polygon fill="#F1F1F1" points="294.5,132.7031,385.5,132.7031,397.5,144.7031,385.5,156.7031,294.5,156.7031,282.5,144.7031,294.5,132.7031" style="stroke:#181818;stroke-width:0.5;"/><text fill="#000000" font-family="sans-serif" font-size="11" lengthAdjust="spacing" textLength="20" x="344" y="168.1221">Yes</text><text fill="#000000" font-family="sans-serif" font-size="11" lengthAdjust="spacing" textLength="91" x="294.5" y="149.2041">Click "Create New"</text><rect fill="#F1F1F1" height="35.0938" rx="12.5" ry="12.5" style="stroke:#181818;stroke-width:0.5;" width="187" x="246.5" y="189.6221"/><text fill="#000000" font-family="sans-serif" font-size="12" lengthAdjust="spacing" textLength="167" x="256.5" y="212.0791">Display Create Jewellery Form</text><rect fill="#F1F1F1" height="35.0938" rx="12.5" ry="12.5" style="stroke:#181818;stroke-width:0.5;" width="143" x="268.5" y="244.7158"/><text fill="#000000" font-family="sans-serif" font-size="12" lengthAdjust="spacing" textLength="123" x="278.5" y="267.1729">Input Jewellery Details</text><rect fill="#F1F1F1" height="35.0938" rx="12.5" ry="12.5" style="stroke:#181818;stroke-width:0.5;" width="155" x="262.5" y="314.8096"/><text fill="#000000" font-family="sans-serif" font-size="12" lengthAdjust="spacing" textLength="135" x="272.5" y="337.2666">Upload Image (Optional)</text><rect fill="#F1F1F1" height="35.0938" rx="12.5" ry="12.5" style="stroke:#181818;stroke-width:0.5;" width="139" x="270.5" y="369.9033"/><text fill="#000000" font-family="sans-serif" font-size="12" lengthAdjust="spacing" textLength="119" x="280.5" y="392.3604">Submit Form (Create)</text><polygon fill="#F1F1F1" points="500,132.7031,612,132.7031,624,144.7031,612,156.7031,500,156.7031,488,144.7031,500,132.7031" style="stroke:#181818;stroke-width:0.5;"/><text fill="#000000" font-family="sans-serif" font-size="11" lengthAdjust="spacing" textLength="20" x="560" y="168.1221">Yes</text><text fill="#000000" font-family="sans-serif" font-size="11" lengthAdjust="spacing" textLength="112" x="500" y="149.2041">Select Jewellery to Edit</text><rect fill="#F1F1F1" height="35.0938" rx="12.5" ry="12.5" style="stroke:#181818;stroke-width:0.5;" width="225" x="443.5" y="189.6221"/><text fill="#000000" font-family="sans-serif" font-size="12" lengthAdjust="spacing" textLength="205" x="453.5" y="212.0791">Display Edit Jewellery Form with Data</text><rect fill="#F1F1F1" height="35.0938" rx="12.5" ry="12.5" style="stroke:#181818;stroke-width:0.5;" width="150" x="481" y="244.7158"/><text fill="#000000" font-family="sans-serif" font-size="12" lengthAdjust="spacing" textLength="130" x="491" y="267.1729">Modify Jewellery Details</text><rect fill="#F1F1F1" height="35.0938" rx="12.5" ry="12.5" style="stroke:#181818;stroke-width:0.5;" width="183" x="464.5" y="314.8096"/><text fill="#000000" font-family="sans-serif" font-size="12" lengthAdjust="spacing" textLength="163" x="474.5" y="337.2666">Upload New Image (Optional)</text><rect fill="#F1F1F1" height="35.0938" rx="12.5" ry="12.5" style="stroke:#181818;stroke-width:0.5;" width="142" x="485" y="369.9033"/><text fill="#000000" font-family="sans-serif" font-size="12" lengthAdjust="spacing" textLength="122" x="495" y="392.3604">Submit Form (Update)</text><polygon fill="#F1F1F1" points="700.5,132.7031,825.5,132.7031,837.5,144.7031,825.5,156.7031,700.5,156.7031,688.5,144.7031,700.5,132.7031" style="stroke:#181818;stroke-width:0.5;"/><text fill="#000000" font-family="sans-serif" font-size="11" lengthAdjust="spacing" textLength="20" x="767" y="168.1221">Yes</text><text fill="#000000" font-family="sans-serif" font-size="11" lengthAdjust="spacing" textLength="125" x="700.5" y="149.2041">Select Jewellery to Delete</text><text fill="#000000" font-family="sans-serif" font-size="11" lengthAdjust="spacing" textLength="47" x="837.5" y="142.2861">No Action</text><rect fill="#F1F1F1" height="35.0938" rx="12.5" ry="12.5" style="stroke:#181818;stroke-width:0.5;" width="113" x="706.5" y="189.6221"/><text fill="#000000" font-family="sans-serif" font-size="12" lengthAdjust="spacing" textLength="93" x="716.5" y="212.0791">Confirm Deletion</text><rect fill="#F1F1F1" height="35.0938" rx="12.5" ry="12.5" style="stroke:#181818;stroke-width:0.5;" width="108" x="709" y="244.7158"/><text fill="#000000" font-family="sans-serif" font-size="12" lengthAdjust="spacing" textLength="88" x="719" y="267.1729">Submit Deletion</text><ellipse cx="872.5" cy="293.3916" fill="none" rx="11" ry="11" style="stroke:#222222;stroke-width:1.0;"/><ellipse cx="872.5" cy="293.3916" fill="#222222" rx="6" ry="6" style="stroke:#111111;stroke-width:1.0;"/><rect fill="none" height="526.915" style="stroke:#000000;stroke-width:1.5;" width="1118" x="11" y="446.9971"/><path d="M76,446.9971 L76,457.6064 L66,467.6064 L11,467.6064 " fill="none" style="stroke:#000000;stroke-width:1.5;"/><text fill="#000000" font-family="sans-serif" font-size="14" lengthAdjust="spacing" textLength="55" x="14" y="462.5303">Backend</text><polygon fill="#F1F1F1" points="135.75,487.6064,313.75,487.6064,325.75,499.6064,313.75,511.6064,135.75,511.6064,123.75,499.6064,135.75,487.6064" style="stroke:#181818;stroke-width:0.5;"/><text fill="#000000" font-family="sans-serif" font-size="11" lengthAdjust="spacing" textLength="20" x="228.75" y="523.0254">Yes</text><text fill="#000000" font-family="sans-serif" font-size="11" lengthAdjust="spacing" textLength="178" x="135.75" y="504.1074">"Store Jewellery Request" received?</text><rect fill="#F1F1F1" height="35.0938" rx="12.5" ry="12.5" style="stroke:#181818;stroke-width:0.5;" width="123" x="163.25" y="544.5254"/><text fill="#000000" font-family="sans-serif" font-size="12" lengthAdjust="spacing" textLength="103" x="173.25" y="566.9824">Validate Input Data</text><polygon fill="#F1F1F1" points="199.25,599.6191,250.25,599.6191,262.25,611.6191,250.25,623.6191,199.25,623.6191,187.25,611.6191,199.25,599.6191" style="stroke:#181818;stroke-width:0.5;"/><text fill="#000000" font-family="sans-serif" font-size="11" lengthAdjust="spacing" textLength="51" x="199.25" y="616.1201">Validated?</text><text fill="#000000" font-family="sans-serif" font-size="11" lengthAdjust="spacing" textLength="26" x="161.25" y="609.2021">False</text><text fill="#000000" font-family="sans-serif" font-size="11" lengthAdjust="spacing" textLength="22" x="262.25" y="609.2021">True</text><rect fill="#F1F1F1" height="35.0938" rx="12.5" ry="12.5" style="stroke:#181818;stroke-width:0.5;" width="195" x="23" y="633.6191"/><text fill="#000000" font-family="sans-serif" font-size="12" lengthAdjust="spacing" textLength="175" x="33" y="656.0762">Return Errors to Admin Interface</text><rect fill="#F1F1F1" height="35.0938" rx="12.5" ry="12.5" style="stroke:#181818;stroke-width:0.5;" width="182" x="238" y="633.6191"/><text fill="#000000" font-family="sans-serif" font-size="12" lengthAdjust="spacing" textLength="162" x="248" y="656.0762">Create New Jewellery Record</text><rect fill="#F1F1F1" height="35.0938" rx="12.5" ry="12.5" style="stroke:#181818;stroke-width:0.5;" width="110" x="274" y="688.7129"/><text fill="#000000" font-family="sans-serif" font-size="12" lengthAdjust="spacing" textLength="90" x="284" y="711.1699">Store Image File</text><polygon fill="#F1F1F1" points="552.75,487.6064,738.75,487.6064,750.75,499.6064,738.75,511.6064,552.75,511.6064,540.75,499.6064,552.75,487.6064" style="stroke:#181818;stroke-width:0.5;"/><text fill="#000000" font-family="sans-serif" font-size="11" lengthAdjust="spacing" textLength="20" x="649.75" y="523.0254">Yes</text><text fill="#000000" font-family="sans-serif" font-size="11" lengthAdjust="spacing" textLength="186" x="552.75" y="504.1074">"Update Jewellery Request" received?</text><rect fill="#F1F1F1" height="35.0938" rx="12.5" ry="12.5" style="stroke:#181818;stroke-width:0.5;" width="123" x="584.25" y="544.5254"/><text fill="#000000" font-family="sans-serif" font-size="12" lengthAdjust="spacing" textLength="103" x="594.25" y="566.9824">Validate Input Data</text><polygon fill="#F1F1F1" points="620.25,599.6191,671.25,599.6191,683.25,611.6191,671.25,623.6191,620.25,623.6191,608.25,611.6191,620.25,599.6191" style="stroke:#181818;stroke-width:0.5;"/><text fill="#000000" font-family="sans-serif" font-size="11" lengthAdjust="spacing" textLength="51" x="620.25" y="616.1201">Validated?</text><text fill="#000000" font-family="sans-serif" font-size="11" lengthAdjust="spacing" textLength="26" x="582.25" y="609.2021">False</text><text fill="#000000" font-family="sans-serif" font-size="11" lengthAdjust="spacing" textLength="22" x="683.25" y="609.2021">True</text><rect fill="#F1F1F1" height="35.0938" rx="12.5" ry="12.5" style="stroke:#181818;stroke-width:0.5;" width="195" x="450" y="633.6191"/><text fill="#000000" font-family="sans-serif" font-size="12" lengthAdjust="spacing" textLength="175" x="460" y="656.0762">Return Errors to Admin Interface</text><rect fill="#F1F1F1" height="35.0938" rx="12.5" ry="12.5" style="stroke:#181818;stroke-width:0.5;" width="157" x="665.5" y="633.6191"/><text fill="#000000" font-family="sans-serif" font-size="12" lengthAdjust="spacing" textLength="137" x="675.5" y="656.0762">Update Jewellery Record</text><rect fill="#F1F1F1" height="35.0938" rx="12.5" ry="12.5" style="stroke:#181818;stroke-width:0.5;" width="126" x="681" y="737.6309"/><text fill="#000000" font-family="sans-serif" font-size="12" lengthAdjust="spacing" textLength="106" x="691" y="760.0879">Remove Old Image</text><rect fill="#F1F1F1" height="35.0938" rx="12.5" ry="12.5" style="stroke:#181818;stroke-width:0.5;" width="138" x="675" y="807.7246"/><text fill="#000000" font-family="sans-serif" font-size="12" lengthAdjust="spacing" textLength="118" x="685" y="830.1816">Store New Image File</text><polygon fill="#F1F1F1" points="682,688.7129,806,688.7129,818,700.7129,806,712.7129,682,712.7129,670,700.7129,682,688.7129" style="stroke:#181818;stroke-width:0.5;"/><text fill="#000000" font-family="sans-serif" font-size="11" lengthAdjust="spacing" textLength="20" x="748" y="724.1318">Yes</text><text fill="#000000" font-family="sans-serif" font-size="11" lengthAdjust="spacing" textLength="124" x="682" y="705.2139">Request has New Image?</text><polygon fill="#F1F1F1" points="744,862.8184,756,874.8184,744,886.8184,732,874.8184,744,862.8184" style="stroke:#181818;stroke-width:0.5;"/><polygon fill="#F1F1F1" points="877,487.6064,1059,487.6064,1071,499.6064,1059,511.6064,877,511.6064,865,499.6064,877,487.6064" style="stroke:#181818;stroke-width:0.5;"/><text fill="#000000" font-family="sans-serif" font-size="11" lengthAdjust="spacing" textLength="20" x="972" y="523.0254">Yes</text><text fill="#000000" font-family="sans-serif" font-size="11" lengthAdjust="spacing" textLength="182" x="877" y="504.1074">"Delete Jewellery Request" received?</text><text fill="#000000" font-family="sans-serif" font-size="11" lengthAdjust="spacing" textLength="26" x="1071" y="497.1895">False</text><rect fill="#F1F1F1" height="35.0938" rx="12.5" ry="12.5" style="stroke:#181818;stroke-width:0.5;" width="153" x="891.5" y="544.5254"/><text fill="#000000" font-family="sans-serif" font-size="12" lengthAdjust="spacing" textLength="133" x="901.5" y="566.9824">Delete Jewellery Record</text><rect fill="#F1F1F1" height="35.0938" rx="12.5" ry="12.5" style="stroke:#181818;stroke-width:0.5;" width="191" x="872.5" y="599.6191"/><text fill="#000000" font-family="sans-serif" font-size="12" lengthAdjust="spacing" textLength="171" x="882.5" y="622.0762">Remove Associated Image File</text><ellipse cx="1106" cy="702.2129" fill="none" rx="11" ry="11" style="stroke:#222222;stroke-width:1.0;"/><ellipse cx="1106" cy="702.2129" fill="#222222" rx="6" ry="6" style="stroke:#111111;stroke-width:1.0;"/><rect fill="#F1F1F1" height="35.0938" rx="12.5" ry="12.5" style="stroke:#181818;stroke-width:0.5;" width="156" x="484" y="926.8184"/><text fill="#000000" font-family="sans-serif" font-size="12" lengthAdjust="spacing" textLength="136" x="494" y="949.2754">Redirect to Jewellery List</text><ellipse cx="562" cy="1004.9121" fill="none" rx="11" ry="11" style="stroke:#222222;stroke-width:1.0;"/><ellipse cx="562" cy="1004.9121" fill="#222222" rx="6" ry="6" style="stroke:#111111;stroke-width:1.0;"/><line style="stroke:#181818;stroke-width:1.0;" x1="340" x2="340" y1="224.7158" y2="244.7158"/><polygon fill="#181818" points="336,234.7158,340,244.7158,344,234.7158,340,238.7158" style="stroke:#181818;stroke-width:1.0;"/><line style="stroke:#181818;stroke-width:1.0;" x1="340" x2="340" y1="279.8096" y2="314.8096"/><polygon fill="#181818" points="336,304.8096,340,314.8096,344,304.8096,340,308.8096" style="stroke:#181818;stroke-width:1.0;"/><line style="stroke:#181818;stroke-width:1.0;" x1="340" x2="340" y1="349.9033" y2="369.9033"/><polygon fill="#181818" points="336,359.9033,340,369.9033,344,359.9033,340,363.9033" style="stroke:#181818;stroke-width:1.0;"/><line style="stroke:#181818;stroke-width:1.0;" x1="556" x2="556" y1="224.7158" y2="244.7158"/><polygon fill="#181818" points="552,234.7158,556,244.7158,560,234.7158,556,238.7158" style="stroke:#181818;stroke-width:1.0;"/><line style="stroke:#181818;stroke-width:1.0;" x1="556" x2="556" y1="279.8096" y2="314.8096"/><polygon fill="#181818" points="552,304.8096,556,314.8096,560,304.8096,556,308.8096" style="stroke:#181818;stroke-width:1.0;"/><line style="stroke:#181818;stroke-width:1.0;" x1="556" x2="556" y1="349.9033" y2="369.9033"/><polygon fill="#181818" points="552,359.9033,556,369.9033,560,359.9033,556,363.9033" style="stroke:#181818;stroke-width:1.0;"/><line style="stroke:#181818;stroke-width:1.0;" x1="763" x2="763" y1="224.7158" y2="244.7158"/><polygon fill="#181818" points="759,234.7158,763,244.7158,767,234.7158,763,238.7158" style="stroke:#181818;stroke-width:1.0;"/><line style="stroke:#181818;stroke-width:1.0;" x1="340" x2="340" y1="156.7031" y2="189.6221"/><polygon fill="#181818" points="336,179.6221,340,189.6221,344,179.6221,340,183.6221" style="stroke:#181818;stroke-width:1.0;"/><line style="stroke:#181818;stroke-width:1.0;" x1="340" x2="340" y1="404.9971" y2="424.9971"/><polygon fill="#181818" points="336,414.9971,340,424.9971,344,414.9971,340,418.9971" style="stroke:#181818;stroke-width:1.0;"/><line style="stroke:#181818;stroke-width:1.0;" x1="556" x2="556" y1="156.7031" y2="189.6221"/><polygon fill="#181818" points="552,179.6221,556,189.6221,560,179.6221,556,183.6221" style="stroke:#181818;stroke-width:1.0;"/><line style="stroke:#181818;stroke-width:1.0;" x1="556" x2="556" y1="404.9971" y2="424.9971"/><polygon fill="#181818" points="552,414.9971,556,424.9971,560,414.9971,556,418.9971" style="stroke:#181818;stroke-width:1.0;"/><line style="stroke:#181818;stroke-width:1.0;" x1="763" x2="763" y1="156.7031" y2="189.6221"/><polygon fill="#181818" points="759,179.6221,763,189.6221,767,179.6221,763,183.6221" style="stroke:#181818;stroke-width:1.0;"/><line style="stroke:#181818;stroke-width:1.0;" x1="763" x2="763" y1="279.8096" y2="424.9971"/><polygon fill="#181818" points="759,414.9971,763,424.9971,767,414.9971,763,418.9971" style="stroke:#181818;stroke-width:1.0;"/><line style="stroke:#181818;stroke-width:1.0;" x1="397.5" x2="488" y1="144.7031" y2="144.7031"/><polygon fill="#181818" points="478,140.7031,488,144.7031,478,148.7031,482,144.7031" style="stroke:#181818;stroke-width:1.0;"/><line style="stroke:#181818;stroke-width:1.0;" x1="624" x2="688.5" y1="144.7031" y2="144.7031"/><polygon fill="#181818" points="678.5,140.7031,688.5,144.7031,678.5,148.7031,682.5,144.7031" style="stroke:#181818;stroke-width:1.0;"/><line style="stroke:#181818;stroke-width:1.0;" x1="562" x2="562" y1="112.7031" y2="117.7031"/><line style="stroke:#181818;stroke-width:1.0;" x1="562" x2="340" y1="117.7031" y2="117.7031"/><line style="stroke:#181818;stroke-width:1.0;" x1="340" x2="340" y1="117.7031" y2="132.7031"/><polygon fill="#181818" points="336,122.7031,340,132.7031,344,122.7031,340,126.7031" style="stroke:#181818;stroke-width:1.0;"/><line style="stroke:#181818;stroke-width:1.0;" x1="837.5" x2="872.5" y1="144.7031" y2="144.7031"/><line style="stroke:#181818;stroke-width:1.0;" x1="872.5" x2="872.5" y1="144.7031" y2="282.3916"/><polygon fill="#181818" points="868.5,272.3916,872.5,282.3916,876.5,272.3916,872.5,276.3916" style="stroke:#181818;stroke-width:1.0;"/><line style="stroke:#181818;stroke-width:1.0;" x1="340" x2="763" y1="424.9971" y2="424.9971"/><line style="stroke:#181818;stroke-width:1.0;" x1="562" x2="562" y1="30" y2="77.6094"/><polygon fill="#181818" points="558,67.6094,562,77.6094,566,67.6094,562,71.6094" style="stroke:#181818;stroke-width:1.0;"/><line style="stroke:#181818;stroke-width:1.0;" x1="329" x2="329" y1="668.7129" y2="688.7129"/><polygon fill="#181818" points="325,678.7129,329,688.7129,333,678.7129,329,682.7129" style="stroke:#181818;stroke-width:1.0;"/><line style="stroke:#181818;stroke-width:1.0;" x1="187.25" x2="120.5" y1="611.6191" y2="611.6191"/><line style="stroke:#181818;stroke-width:1.0;" x1="120.5" x2="120.5" y1="611.6191" y2="633.6191"/><polygon fill="#181818" points="116.5,623.6191,120.5,633.6191,124.5,623.6191,120.5,627.6191" style="stroke:#181818;stroke-width:1.0;"/><line style="stroke:#181818;stroke-width:1.0;" x1="262.25" x2="329" y1="611.6191" y2="611.6191"/><line style="stroke:#181818;stroke-width:1.0;" x1="329" x2="329" y1="611.6191" y2="633.6191"/><polygon fill="#181818" points="325,623.6191,329,633.6191,333,623.6191,329,627.6191" style="stroke:#181818;stroke-width:1.0;"/><line style="stroke:#181818;stroke-width:1.0;" x1="329" x2="329" y1="723.8066" y2="729.8066"/><line style="stroke:#181818;stroke-width:1.0;" x1="329" x2="224.75" y1="729.8066" y2="729.8066"/><line style="stroke:#181818;stroke-width:1.0;" x1="224.75" x2="224.75" y1="729.8066" y2="906.8184"/><polygon fill="#181818" points="220.75,896.8184,224.75,906.8184,228.75,896.8184,224.75,900.8184" style="stroke:#181818;stroke-width:1.0;"/><line style="stroke:#181818;stroke-width:1.0;" x1="224.75" x2="224.75" y1="579.6191" y2="599.6191"/><polygon fill="#181818" points="220.75,589.6191,224.75,599.6191,228.75,589.6191,224.75,593.6191" style="stroke:#181818;stroke-width:1.0;"/><line style="stroke:#181818;stroke-width:1.0;" x1="744" x2="744" y1="772.7246" y2="807.7246"/><polygon fill="#181818" points="740,797.7246,744,807.7246,748,797.7246,744,801.7246" style="stroke:#181818;stroke-width:1.0;"/><line style="stroke:#181818;stroke-width:1.0;" x1="744" x2="744" y1="712.7129" y2="737.6309"/><polygon fill="#181818" points="740,727.6309,744,737.6309,748,727.6309,744,731.6309" style="stroke:#181818;stroke-width:1.0;"/><line style="stroke:#181818;stroke-width:1.0;" x1="818" x2="830" y1="700.7129" y2="700.7129"/><polygon fill="#181818" points="826,780.2246,830,790.2246,834,780.2246,830,784.2246" style="stroke:#181818;stroke-width:1.0;"/><line style="stroke:#181818;stroke-width:1.0;" x1="830" x2="830" y1="700.7129" y2="874.8184"/><line style="stroke:#181818;stroke-width:1.0;" x1="830" x2="756" y1="874.8184" y2="874.8184"/><polygon fill="#181818" points="766,870.8184,756,874.8184,766,878.8184,762,874.8184" style="stroke:#181818;stroke-width:1.0;"/><line style="stroke:#181818;stroke-width:1.0;" x1="744" x2="744" y1="842.8184" y2="862.8184"/><polygon fill="#181818" points="740,852.8184,744,862.8184,748,852.8184,744,856.8184" style="stroke:#181818;stroke-width:1.0;"/><line style="stroke:#181818;stroke-width:1.0;" x1="744" x2="744" y1="668.7129" y2="688.7129"/><polygon fill="#181818" points="740,678.7129,744,688.7129,748,678.7129,744,682.7129" style="stroke:#181818;stroke-width:1.0;"/><line style="stroke:#181818;stroke-width:1.0;" x1="608.25" x2="547.5" y1="611.6191" y2="611.6191"/><line style="stroke:#181818;stroke-width:1.0;" x1="547.5" x2="547.5" y1="611.6191" y2="633.6191"/><polygon fill="#181818" points="543.5,623.6191,547.5,633.6191,551.5,623.6191,547.5,627.6191" style="stroke:#181818;stroke-width:1.0;"/><line style="stroke:#181818;stroke-width:1.0;" x1="683.25" x2="744" y1="611.6191" y2="611.6191"/><line style="stroke:#181818;stroke-width:1.0;" x1="744" x2="744" y1="611.6191" y2="633.6191"/><polygon fill="#181818" points="740,623.6191,744,633.6191,748,623.6191,744,627.6191" style="stroke:#181818;stroke-width:1.0;"/><line style="stroke:#181818;stroke-width:1.0;" x1="744" x2="744" y1="886.8184" y2="891.8184"/><line style="stroke:#181818;stroke-width:1.0;" x1="744" x2="645.75" y1="891.8184" y2="891.8184"/><line style="stroke:#181818;stroke-width:1.0;" x1="645.75" x2="645.75" y1="891.8184" y2="906.8184"/><polygon fill="#181818" points="641.75,896.8184,645.75,906.8184,649.75,896.8184,645.75,900.8184" style="stroke:#181818;stroke-width:1.0;"/><line style="stroke:#181818;stroke-width:1.0;" x1="645.75" x2="645.75" y1="579.6191" y2="599.6191"/><polygon fill="#181818" points="641.75,589.6191,645.75,599.6191,649.75,589.6191,645.75,593.6191" style="stroke:#181818;stroke-width:1.0;"/><line style="stroke:#181818;stroke-width:1.0;" x1="968" x2="968" y1="579.6191" y2="599.6191"/><polygon fill="#181818" points="964,589.6191,968,599.6191,972,589.6191,968,593.6191" style="stroke:#181818;stroke-width:1.0;"/><line style="stroke:#181818;stroke-width:1.0;" x1="224.75" x2="224.75" y1="511.6064" y2="544.5254"/><polygon fill="#181818" points="220.75,534.5254,224.75,544.5254,228.75,534.5254,224.75,538.5254" style="stroke:#181818;stroke-width:1.0;"/><line style="stroke:#181818;stroke-width:1.0;" x1="645.75" x2="645.75" y1="511.6064" y2="544.5254"/><polygon fill="#181818" points="641.75,534.5254,645.75,544.5254,649.75,534.5254,645.75,538.5254" style="stroke:#181818;stroke-width:1.0;"/><line style="stroke:#181818;stroke-width:1.0;" x1="968" x2="968" y1="511.6064" y2="544.5254"/><polygon fill="#181818" points="964,534.5254,968,544.5254,972,534.5254,968,538.5254" style="stroke:#181818;stroke-width:1.0;"/><line style="stroke:#181818;stroke-width:1.0;" x1="968" x2="968" y1="634.7129" y2="906.8184"/><polygon fill="#181818" points="964,896.8184,968,906.8184,972,896.8184,968,900.8184" style="stroke:#181818;stroke-width:1.0;"/><line style="stroke:#181818;stroke-width:1.0;" x1="325.75" x2="540.75" y1="499.6064" y2="499.6064"/><polygon fill="#181818" points="530.75,495.6064,540.75,499.6064,530.75,503.6064,534.75,499.6064" style="stroke:#181818;stroke-width:1.0;"/><line style="stroke:#181818;stroke-width:1.0;" x1="750.75" x2="865" y1="499.6064" y2="499.6064"/><polygon fill="#181818" points="855,495.6064,865,499.6064,855,503.6064,859,499.6064" style="stroke:#181818;stroke-width:1.0;"/><line style="stroke:#181818;stroke-width:1.0;" x1="562" x2="562" y1="424.9971" y2="472.6064"/><line style="stroke:#181818;stroke-width:1.0;" x1="562" x2="224.75" y1="472.6064" y2="472.6064"/><line style="stroke:#181818;stroke-width:1.0;" x1="224.75" x2="224.75" y1="472.6064" y2="487.6064"/><polygon fill="#181818" points="220.75,477.6064,224.75,487.6064,228.75,477.6064,224.75,481.6064" style="stroke:#181818;stroke-width:1.0;"/><line style="stroke:#181818;stroke-width:1.0;" x1="1071" x2="1106" y1="499.6064" y2="499.6064"/><line style="stroke:#181818;stroke-width:1.0;" x1="1106" x2="1106" y1="499.6064" y2="691.2129"/><polygon fill="#181818" points="1102,681.2129,1106,691.2129,1110,681.2129,1106,685.2129" style="stroke:#181818;stroke-width:1.0;"/><line style="stroke:#181818;stroke-width:1.0;" x1="224.75" x2="968" y1="906.8184" y2="906.8184"/><line style="stroke:#181818;stroke-width:1.0;" x1="562" x2="562" y1="906.8184" y2="926.8184"/><polygon fill="#181818" points="558,916.8184,562,926.8184,566,916.8184,562,920.8184" style="stroke:#181818;stroke-width:1.0;"/><line style="stroke:#181818;stroke-width:1.0;" x1="562" x2="562" y1="961.9121" y2="993.9121"/><polygon fill="#181818" points="558,983.9121,562,993.9121,566,983.9121,562,987.9121" style="stroke:#181818;stroke-width:1.0;"/><!--SRC=[rPHBJyCm3CVl_HHMJzjNO0SqDYODyP0O874ChSUifKr9NAO9yTrncapf7WWuSgaYl_BptquTAyjPriYNc4mD-RYig8PvpMYNgi0SFZA0ioV23LpX1hL6kuLhSZmIEorXCD5Kh26VM5ICS8kRV0YymXe6p-Y64YJfKtADLbk8GQdGpDXg56BcTTDoppL5LgHTz3ussgWIvfLwHHZSDHvMwM7qBjgNYhYh9a3T9PqBjKFFk42DHRyu6xWiYRydzTu3JjWGhs2gMCLRRqn9o-rFoAB8hx0Vc_8ts5EnITWH-CJKIv8wdLzksR-YR_NLON1hO5nuKyXtR1hlgwMbx7Dl8ovKiHPxs0IFbI_OsFuKx_6jHSSvM2oGth4yF-PxKffyWn3cd6Jq5NVEb3XJGXbI9VaUkRKrN5fhhFCg76pfA0QkIUlk67fyi6sgaHPqZxmmjjobduN6mhHcf6FT84eQInv6zTy4E47TRzvZn3vWfLpQs-DU8b9btX7kT7oLe-GACgR5Jr8cCVTEEs73SlzHs1D9gQyTvjWvKv1N-90fADMJEpw57fyKASdwfoZA7_u5vR5acS_v0W00]--></g></svg>