<?xml version="1.0" encoding="UTF-8" standalone="no"?><svg xmlns="http://www.w3.org/2000/svg" xmlns:xlink="http://www.w3.org/1999/xlink" contentStyleType="text/css" height="754px" preserveAspectRatio="none" style="width:939px;height:754px;background:#FFFFFF;" version="1.1" viewBox="0 0 939 754" width="939px" zoomAndPan="magnify"><defs/><g><ellipse cx="467" cy="20" fill="#222222" rx="10" ry="10" style="stroke:#222222;stroke-width:1.0;"/><rect fill="none" height="271.8096" style="stroke:#000000;stroke-width:1.5;" width="379" x="277.5" y="40"/><path d="M384.5,40 L384.5,50.6094 L374.5,60.6094 L277.5,60.6094 " fill="none" style="stroke:#000000;stroke-width:1.5;"/><text fill="#000000" font-family="sans-serif" font-size="14" lengthAdjust="spacing" textLength="97" x="280.5" y="55.5332">Guest Interface</text><rect fill="#F1F1F1" height="35.0938" rx="12.5" ry="12.5" style="stroke:#181818;stroke-width:0.5;" width="178" x="378" y="77.6094"/><text fill="#000000" font-family="sans-serif" font-size="12" lengthAdjust="spacing" textLength="158" x="388" y="100.0664">View Jewellery Catalog Page</text><polygon fill="#F1F1F1" points="299.5,132.7031,401.5,132.7031,413.5,144.7031,401.5,156.7031,299.5,156.7031,287.5,144.7031,299.5,132.7031" style="stroke:#181818;stroke-width:0.5;"/><text fill="#000000" font-family="sans-serif" font-size="11" lengthAdjust="spacing" textLength="20" x="354.5" y="168.1221">Yes</text><text fill="#000000" font-family="sans-serif" font-size="11" lengthAdjust="spacing" textLength="102" x="299.5" y="149.2041">Search for Jewellery</text><rect fill="#F1F1F1" height="35.0938" rx="12.5" ry="12.5" style="stroke:#181818;stroke-width:0.5;" width="121" x="290" y="189.6221"/><text fill="#000000" font-family="sans-serif" font-size="12" lengthAdjust="spacing" textLength="101" x="300" y="212.0791">Input Search Term</text><rect fill="#F1F1F1" height="35.0938" rx="12.5" ry="12.5" style="stroke:#181818;stroke-width:0.5;" width="101" x="300" y="244.7158"/><text fill="#000000" font-family="sans-serif" font-size="12" lengthAdjust="spacing" textLength="81" x="310" y="267.1729">Submit Search</text><polygon fill="#F1F1F1" points="460.5,132.7031,569.5,132.7031,581.5,144.7031,569.5,156.7031,460.5,156.7031,448.5,144.7031,460.5,132.7031" style="stroke:#181818;stroke-width:0.5;"/><text fill="#000000" font-family="sans-serif" font-size="11" lengthAdjust="spacing" textLength="20" x="519" y="168.1221">Yes</text><text fill="#000000" font-family="sans-serif" font-size="11" lengthAdjust="spacing" textLength="109" x="460.5" y="149.2041">Click on Jewellery Item</text><text fill="#000000" font-family="sans-serif" font-size="11" lengthAdjust="spacing" textLength="47" x="581.5" y="142.2861">No Action</text><rect fill="#F1F1F1" height="35.0938" rx="12.5" ry="12.5" style="stroke:#181818;stroke-width:0.5;" width="163" x="433.5" y="189.6221"/><text fill="#000000" font-family="sans-serif" font-size="12" lengthAdjust="spacing" textLength="143" x="443.5" y="212.0791">Request Jewellery Details</text><rect fill="none" height="421.9971" style="stroke:#000000;stroke-width:1.5;" width="917" x="11" y="321.8096"/><path d="M76,321.8096 L76,332.4189 L66,342.4189 L11,342.4189 " fill="none" style="stroke:#000000;stroke-width:1.5;"/><text fill="#000000" font-family="sans-serif" font-size="14" lengthAdjust="spacing" textLength="55" x="14" y="337.3428">Backend</text><polygon fill="#F1F1F1" points="55.5,362.4189,230.5,362.4189,242.5,374.4189,230.5,386.4189,55.5,386.4189,43.5,374.4189,55.5,362.4189" style="stroke:#181818;stroke-width:0.5;"/><text fill="#000000" font-family="sans-serif" font-size="11" lengthAdjust="spacing" textLength="20" x="147" y="397.8379">Yes</text><text fill="#000000" font-family="sans-serif" font-size="11" lengthAdjust="spacing" textLength="175" x="55.5" y="378.9199">"Request without search" received?</text><rect fill="#F1F1F1" height="35.0938" rx="12.5" ry="12.5" style="stroke:#181818;stroke-width:0.5;" width="244" x="21" y="419.3379"/><text fill="#000000" font-family="sans-serif" font-size="12" lengthAdjust="spacing" textLength="224" x="31" y="441.7949">Query Database for Available Jewelleries</text><rect fill="#F1F1F1" height="35.0938" rx="12.5" ry="12.5" style="stroke:#181818;stroke-width:0.5;" width="115" x="85.5" y="474.4316"/><text fill="#000000" font-family="sans-serif" font-size="12" lengthAdjust="spacing" textLength="95" x="95.5" y="496.8887">Paginate Results</text><rect fill="#F1F1F1" height="35.0938" rx="12.5" ry="12.5" style="stroke:#181818;stroke-width:0.5;" width="139" x="73.5" y="529.5254"/><text fill="#000000" font-family="sans-serif" font-size="12" lengthAdjust="spacing" textLength="119" x="83.5" y="551.9824">Prepare Data for View</text><rect fill="#F1F1F1" height="35.0938" rx="12.5" ry="12.5" style="stroke:#181818;stroke-width:0.5;" width="233" x="26.5" y="599.6191"/><text fill="#000000" font-family="sans-serif" font-size="12" lengthAdjust="spacing" textLength="213" x="36.5" y="622.0762">Return Jewellery List to Guest Interface</text><ellipse cx="143" cy="665.7129" fill="none" rx="11" ry="11" style="stroke:#222222;stroke-width:1.0;"/><ellipse cx="143" cy="665.7129" fill="#222222" rx="6" ry="6" style="stroke:#111111;stroke-width:1.0;"/><polygon fill="#F1F1F1" points="344.5,362.4189,504.5,362.4189,516.5,374.4189,504.5,386.4189,344.5,386.4189,332.5,374.4189,344.5,362.4189" style="stroke:#181818;stroke-width:0.5;"/><text fill="#000000" font-family="sans-serif" font-size="11" lengthAdjust="spacing" textLength="20" x="428.5" y="397.8379">Yes</text><text fill="#000000" font-family="sans-serif" font-size="11" lengthAdjust="spacing" textLength="160" x="344.5" y="378.9199">"Request with search" received?</text><rect fill="#F1F1F1" height="35.0938" rx="12.5" ry="12.5" style="stroke:#181818;stroke-width:0.5;" width="191" x="329" y="419.3379"/><text fill="#000000" font-family="sans-serif" font-size="12" lengthAdjust="spacing" textLength="171" x="339" y="441.7949">Get Search Term from Request</text><rect fill="#F1F1F1" height="35.0938" rx="12.5" ry="12.5" style="stroke:#181818;stroke-width:0.5;" width="299" x="275" y="474.4316"/><text fill="#000000" font-family="sans-serif" font-size="12" lengthAdjust="spacing" textLength="279" x="285" y="496.8887">Query Database for Available Jewelleries with Filter</text><rect fill="#F1F1F1" height="35.0938" rx="12.5" ry="12.5" style="stroke:#181818;stroke-width:0.5;" width="159" x="345" y="529.5254"/><text fill="#000000" font-family="sans-serif" font-size="12" lengthAdjust="spacing" textLength="139" x="355" y="551.9824">Paginate Filtered Results</text><rect fill="#F1F1F1" height="35.0938" rx="12.5" ry="12.5" style="stroke:#181818;stroke-width:0.5;" width="139" x="355" y="599.6191"/><text fill="#000000" font-family="sans-serif" font-size="12" lengthAdjust="spacing" textLength="119" x="365" y="622.0762">Prepare Data for View</text><rect fill="#F1F1F1" height="35.0938" rx="12.5" ry="12.5" style="stroke:#181818;stroke-width:0.5;" width="277" x="286" y="654.7129"/><text fill="#000000" font-family="sans-serif" font-size="12" lengthAdjust="spacing" textLength="257" x="296" y="677.1699">Return Filtered Jewellery List to Guest Interface</text><ellipse cx="424.5" cy="720.8066" fill="none" rx="11" ry="11" style="stroke:#222222;stroke-width:1.0;"/><ellipse cx="424.5" cy="720.8066" fill="#222222" rx="6" ry="6" style="stroke:#111111;stroke-width:1.0;"/><polygon fill="#F1F1F1" points="642,362.4189,825,362.4189,837,374.4189,825,386.4189,642,386.4189,630,374.4189,642,362.4189" style="stroke:#181818;stroke-width:0.5;"/><text fill="#000000" font-family="sans-serif" font-size="11" lengthAdjust="spacing" textLength="20" x="737.5" y="397.8379">Yes</text><text fill="#000000" font-family="sans-serif" font-size="11" lengthAdjust="spacing" textLength="183" x="642" y="378.9199">"Request Jewellery details" received?</text><text fill="#000000" font-family="sans-serif" font-size="11" lengthAdjust="spacing" textLength="47" x="837" y="372.002">No Action</text><rect fill="#F1F1F1" height="35.0938" rx="12.5" ry="12.5" style="stroke:#181818;stroke-width:0.5;" width="186" x="640.5" y="419.3379"/><text fill="#000000" font-family="sans-serif" font-size="12" lengthAdjust="spacing" textLength="166" x="650.5" y="441.7949">Get Jewellery ID from Request</text><rect fill="#F1F1F1" height="35.0938" rx="12.5" ry="12.5" style="stroke:#181818;stroke-width:0.5;" width="279" x="594" y="474.4316"/><text fill="#000000" font-family="sans-serif" font-size="12" lengthAdjust="spacing" textLength="259" x="604" y="496.8887">Retrieve Specific Jewellery Data from Database</text><rect fill="#F1F1F1" height="35.0938" rx="12.5" ry="12.5" style="stroke:#181818;stroke-width:0.5;" width="139" x="664" y="529.5254"/><text fill="#000000" font-family="sans-serif" font-size="12" lengthAdjust="spacing" textLength="119" x="674" y="551.9824">Prepare Data for View</text><rect fill="#F1F1F1" height="35.0938" rx="12.5" ry="12.5" style="stroke:#181818;stroke-width:0.5;" width="252" x="607.5" y="599.6191"/><text fill="#000000" font-family="sans-serif" font-size="12" lengthAdjust="spacing" textLength="232" x="617.5" y="622.0762">Return Jewellery Details to Guest Interface</text><ellipse cx="733.5" cy="665.7129" fill="none" rx="11" ry="11" style="stroke:#222222;stroke-width:1.0;"/><ellipse cx="733.5" cy="665.7129" fill="#222222" rx="6" ry="6" style="stroke:#111111;stroke-width:1.0;"/><ellipse cx="905" cy="571.6543" fill="none" rx="11" ry="11" style="stroke:#222222;stroke-width:1.0;"/><ellipse cx="905" cy="571.6543" fill="#222222" rx="6" ry="6" style="stroke:#111111;stroke-width:1.0;"/><line style="stroke:#181818;stroke-width:1.0;" x1="350.5" x2="350.5" y1="224.7158" y2="244.7158"/><polygon fill="#181818" points="346.5,234.7158,350.5,244.7158,354.5,234.7158,350.5,238.7158" style="stroke:#181818;stroke-width:1.0;"/><line style="stroke:#181818;stroke-width:1.0;" x1="350.5" x2="350.5" y1="156.7031" y2="189.6221"/><polygon fill="#181818" points="346.5,179.6221,350.5,189.6221,354.5,179.6221,350.5,183.6221" style="stroke:#181818;stroke-width:1.0;"/><line style="stroke:#181818;stroke-width:1.0;" x1="350.5" x2="350.5" y1="279.8096" y2="299.8096"/><polygon fill="#181818" points="346.5,289.8096,350.5,299.8096,354.5,289.8096,350.5,293.8096" style="stroke:#181818;stroke-width:1.0;"/><line style="stroke:#181818;stroke-width:1.0;" x1="515" x2="515" y1="156.7031" y2="189.6221"/><polygon fill="#181818" points="511,179.6221,515,189.6221,519,179.6221,515,183.6221" style="stroke:#181818;stroke-width:1.0;"/><line style="stroke:#181818;stroke-width:1.0;" x1="515" x2="515" y1="224.7158" y2="299.8096"/><polygon fill="#181818" points="511,289.8096,515,299.8096,519,289.8096,515,293.8096" style="stroke:#181818;stroke-width:1.0;"/><line style="stroke:#181818;stroke-width:1.0;" x1="413.5" x2="448.5" y1="144.7031" y2="144.7031"/><polygon fill="#181818" points="438.5,140.7031,448.5,144.7031,438.5,148.7031,442.5,144.7031" style="stroke:#181818;stroke-width:1.0;"/><line style="stroke:#181818;stroke-width:1.0;" x1="467" x2="467" y1="112.7031" y2="117.7031"/><line style="stroke:#181818;stroke-width:1.0;" x1="467" x2="350.5" y1="117.7031" y2="117.7031"/><line style="stroke:#181818;stroke-width:1.0;" x1="350.5" x2="350.5" y1="117.7031" y2="132.7031"/><polygon fill="#181818" points="346.5,122.7031,350.5,132.7031,354.5,122.7031,350.5,126.7031" style="stroke:#181818;stroke-width:1.0;"/><line style="stroke:#181818;stroke-width:1.0;" x1="581.5" x2="631.5" y1="144.7031" y2="144.7031"/><line style="stroke:#181818;stroke-width:1.0;" x1="631.5" x2="631.5" y1="144.7031" y2="299.8096"/><polygon fill="#181818" points="627.5,289.8096,631.5,299.8096,635.5,289.8096,631.5,293.8096" style="stroke:#181818;stroke-width:1.0;"/><line style="stroke:#181818;stroke-width:1.0;" x1="350.5" x2="631.5" y1="299.8096" y2="299.8096"/><line style="stroke:#181818;stroke-width:1.0;" x1="467" x2="467" y1="30" y2="77.6094"/><polygon fill="#181818" points="463,67.6094,467,77.6094,471,67.6094,467,71.6094" style="stroke:#181818;stroke-width:1.0;"/><line style="stroke:#181818;stroke-width:1.0;" x1="143" x2="143" y1="454.4316" y2="474.4316"/><polygon fill="#181818" points="139,464.4316,143,474.4316,147,464.4316,143,468.4316" style="stroke:#181818;stroke-width:1.0;"/><line style="stroke:#181818;stroke-width:1.0;" x1="143" x2="143" y1="509.5254" y2="529.5254"/><polygon fill="#181818" points="139,519.5254,143,529.5254,147,519.5254,143,523.5254" style="stroke:#181818;stroke-width:1.0;"/><line style="stroke:#181818;stroke-width:1.0;" x1="143" x2="143" y1="564.6191" y2="599.6191"/><polygon fill="#181818" points="139,589.6191,143,599.6191,147,589.6191,143,593.6191" style="stroke:#181818;stroke-width:1.0;"/><line style="stroke:#181818;stroke-width:1.0;" x1="143" x2="143" y1="634.7129" y2="654.7129"/><polygon fill="#181818" points="139,644.7129,143,654.7129,147,644.7129,143,648.7129" style="stroke:#181818;stroke-width:1.0;"/><line style="stroke:#181818;stroke-width:1.0;" x1="424.5" x2="424.5" y1="454.4316" y2="474.4316"/><polygon fill="#181818" points="420.5,464.4316,424.5,474.4316,428.5,464.4316,424.5,468.4316" style="stroke:#181818;stroke-width:1.0;"/><line style="stroke:#181818;stroke-width:1.0;" x1="424.5" x2="424.5" y1="509.5254" y2="529.5254"/><polygon fill="#181818" points="420.5,519.5254,424.5,529.5254,428.5,519.5254,424.5,523.5254" style="stroke:#181818;stroke-width:1.0;"/><line style="stroke:#181818;stroke-width:1.0;" x1="424.5" x2="424.5" y1="564.6191" y2="599.6191"/><polygon fill="#181818" points="420.5,589.6191,424.5,599.6191,428.5,589.6191,424.5,593.6191" style="stroke:#181818;stroke-width:1.0;"/><line style="stroke:#181818;stroke-width:1.0;" x1="424.5" x2="424.5" y1="634.7129" y2="654.7129"/><polygon fill="#181818" points="420.5,644.7129,424.5,654.7129,428.5,644.7129,424.5,648.7129" style="stroke:#181818;stroke-width:1.0;"/><line style="stroke:#181818;stroke-width:1.0;" x1="424.5" x2="424.5" y1="689.8066" y2="709.8066"/><polygon fill="#181818" points="420.5,699.8066,424.5,709.8066,428.5,699.8066,424.5,703.8066" style="stroke:#181818;stroke-width:1.0;"/><line style="stroke:#181818;stroke-width:1.0;" x1="733.5" x2="733.5" y1="454.4316" y2="474.4316"/><polygon fill="#181818" points="729.5,464.4316,733.5,474.4316,737.5,464.4316,733.5,468.4316" style="stroke:#181818;stroke-width:1.0;"/><line style="stroke:#181818;stroke-width:1.0;" x1="733.5" x2="733.5" y1="509.5254" y2="529.5254"/><polygon fill="#181818" points="729.5,519.5254,733.5,529.5254,737.5,519.5254,733.5,523.5254" style="stroke:#181818;stroke-width:1.0;"/><line style="stroke:#181818;stroke-width:1.0;" x1="733.5" x2="733.5" y1="564.6191" y2="599.6191"/><polygon fill="#181818" points="729.5,589.6191,733.5,599.6191,737.5,589.6191,733.5,593.6191" style="stroke:#181818;stroke-width:1.0;"/><line style="stroke:#181818;stroke-width:1.0;" x1="733.5" x2="733.5" y1="634.7129" y2="654.7129"/><polygon fill="#181818" points="729.5,644.7129,733.5,654.7129,737.5,644.7129,733.5,648.7129" style="stroke:#181818;stroke-width:1.0;"/><line style="stroke:#181818;stroke-width:1.0;" x1="143" x2="143" y1="386.4189" y2="419.3379"/><polygon fill="#181818" points="139,409.3379,143,419.3379,147,409.3379,143,413.3379" style="stroke:#181818;stroke-width:1.0;"/><line style="stroke:#181818;stroke-width:1.0;" x1="424.5" x2="424.5" y1="386.4189" y2="419.3379"/><polygon fill="#181818" points="420.5,409.3379,424.5,419.3379,428.5,409.3379,424.5,413.3379" style="stroke:#181818;stroke-width:1.0;"/><line style="stroke:#181818;stroke-width:1.0;" x1="733.5" x2="733.5" y1="386.4189" y2="419.3379"/><polygon fill="#181818" points="729.5,409.3379,733.5,419.3379,737.5,409.3379,733.5,413.3379" style="stroke:#181818;stroke-width:1.0;"/><line style="stroke:#181818;stroke-width:1.0;" x1="242.5" x2="332.5" y1="374.4189" y2="374.4189"/><polygon fill="#181818" points="322.5,370.4189,332.5,374.4189,322.5,378.4189,326.5,374.4189" style="stroke:#181818;stroke-width:1.0;"/><line style="stroke:#181818;stroke-width:1.0;" x1="516.5" x2="630" y1="374.4189" y2="374.4189"/><polygon fill="#181818" points="620,370.4189,630,374.4189,620,378.4189,624,374.4189" style="stroke:#181818;stroke-width:1.0;"/><line style="stroke:#181818;stroke-width:1.0;" x1="467" x2="467" y1="299.8096" y2="347.4189"/><line style="stroke:#181818;stroke-width:1.0;" x1="467" x2="143" y1="347.4189" y2="347.4189"/><line style="stroke:#181818;stroke-width:1.0;" x1="143" x2="143" y1="347.4189" y2="362.4189"/><polygon fill="#181818" points="139,352.4189,143,362.4189,147,352.4189,143,356.4189" style="stroke:#181818;stroke-width:1.0;"/><line style="stroke:#181818;stroke-width:1.0;" x1="837" x2="905" y1="374.4189" y2="374.4189"/><line style="stroke:#181818;stroke-width:1.0;" x1="905" x2="905" y1="374.4189" y2="560.6543"/><polygon fill="#181818" points="901,550.6543,905,560.6543,909,550.6543,905,554.6543" style="stroke:#181818;stroke-width:1.0;"/><!--SRC=[fLDDJy904BttLqnwWhzW3mOX4emn2iR4uxATmeHjj-vE8SRutvrsMoXY8kXb3_FnvhqtivwLuoWgvIKcMq0yhT0pp0f6bocDCNn405SlX3kumnqQW-uTnegLiIjuL2jC94yP31Qed5v3PjsXS0YynW86h-Y7KYP0iwAi6DhQPtHv4kABQfbJbwXZQ3pMi6D3UWF2x31znfYV8i_nhQ5-g9iWApA-GuF1WuMHhcM6bZfUf9H5dqSEt2YzaNXGNbE8E-WTyTeAVT-mZC6XHjfYUdtAvgbg68XFIoMZQrT6Ms6ZbWRt50bzAr-Cf48nmXnzPNWVTYZ4iC5fCEez99rUhbpVbdiIYcpXsmP3kMTRzbmzadIEdYaURGqoPtDeGPBB98UPjsI4u7Vv8OhfvJxiE_zfoA4z3UVpgoszmvpyv8iG5DbRX4M9cZBI_HDj1DKzdMz_sNnxwETeFVa4NIvyX2y0]--></g></svg>